<?xml version="1.0" encoding="UTF-8" standalone="no"?><!DOCTYPE svg PUBLIC "-//W3C//DTD SVG 1.1//EN" "http://www.w3.org/Graphics/SVG/1.1/DTD/svg11.dtd"><svg width="100%" height="100%" viewBox="0 0 4963 3854" version="1.1" xmlns="http://www.w3.org/2000/svg" xmlns:xlink="http://www.w3.org/1999/xlink" xml:space="preserve" xmlns:serif="http://www.serif.com/" style="fill-rule:evenodd;clip-rule:evenodd;stroke-linejoin:round;stroke-miterlimit:2;"><g><path d="M1305.48,931.846c364.736,-376.283 704.783,-645.703 982.747,-783.16c273.4,-135.199 502.451,-144.851 661.552,-56.395l67.189,54.237c19.429,21.61 38.033,49.059 55.033,81.493c36.298,69.251 64.875,175.947 116.253,256.341c56.59,88.55 132.064,156.569 172.374,189.874c44.035,29.184 93.052,70.93 147.974,81.183c122.311,22.835 261.102,1.676 358.424,17.069c46.136,7.297 86.749,20.453 120.967,39.012l42.076,27.761l38.722,37.633c112.052,133.197 165.083,346.872 130.098,631.639c-36.916,300.49 -170.624,693.538 -406.243,1152.45c308.369,6.262 649.421,49.595 896.657,137.342c35.017,12.428 64.908,36.016 85.01,67.083c113.975,176.15 137.714,342.95 104.491,485.857c-34.226,147.219 -130.523,273.911 -275.129,362.901c-345.88,212.852 -1009.94,203.759 -1562.65,-315.16c-529.584,-24.83 -982.815,-157.61 -1341.34,-419.752c-370.845,-245.327 -648.93,-621.392 -848.887,-1104.08c-618.582,-308.558 -865.928,-841.887 -839.824,-1227.14c21.824,-322.107 217.112,-557.189 541.22,-579.941c69.961,-4.912 146.911,0.759 230.416,19.775c36.166,8.236 68.581,28.102 92.209,56.512c166.758,200.503 322.025,503.063 430.658,787.463Z" style="fill:#fff;"/><path d="M1305.48,931.846c364.736,-376.283 704.783,-645.703 982.747,-783.16c273.4,-135.199 502.451,-144.851 661.552,-56.395l67.189,54.237c19.429,21.61 38.033,49.059 55.033,81.493c36.298,69.251 64.875,175.947 116.253,256.341c56.59,88.55 132.064,156.569 172.374,189.874c44.035,29.184 93.052,70.93 147.974,81.183c122.311,22.835 261.102,1.676 358.424,17.069c46.136,7.297 86.749,20.453 120.967,39.012l42.076,27.761l38.722,37.633c112.052,133.197 165.083,346.872 130.098,631.639c-36.916,300.49 -170.624,693.538 -406.243,1152.45c308.369,6.262 649.421,49.595 896.657,137.342c35.017,12.428 64.908,36.016 85.01,67.083c113.975,176.15 137.714,342.95 104.491,485.857c-34.226,147.219 -130.523,273.911 -275.129,362.901c-345.88,212.852 -1009.94,203.759 -1562.65,-315.16c-529.584,-24.83 -982.815,-157.61 -1341.34,-419.752c-370.845,-245.327 -648.93,-621.392 -848.887,-1104.08c-618.582,-308.558 -865.928,-841.887 -839.824,-1227.14c21.824,-322.107 217.112,-557.189 541.22,-579.941c69.961,-4.912 146.911,0.759 230.416,19.775c36.166,8.236 68.581,28.102 92.209,56.512c166.758,200.503 322.025,503.063 430.658,787.463Zm3177.9,2207.84c-204.323,-58.802 -462.748,-85.952 -698.613,-90.742c-133.792,-2.717 -256.743,-74.181 -325.324,-189.091c-68.581,-114.91 -73.113,-257.049 -11.992,-376.094c209.435,-407.918 333.485,-755.44 366.299,-1022.54c16.108,-131.111 16.782,-236.744 -23.301,-307.648c-99.058,-11.655 -233.657,5.585 -353.061,-16.707c-105.001,-19.604 -206.934,-83.383 -291.122,-139.177c-11.35,-7.522 -22.296,-15.637 -32.794,-24.31c-59.238,-48.943 -169.022,-149.926 -252.186,-280.057c-54.461,-85.218 -88.718,-195.625 -126.715,-272.828c-70.7,-19.794 -162.19,20.564 -274.339,76.024c-248.805,123.037 -549.656,368.594 -876.13,705.404c-92.279,95.201 -226.778,136.697 -356.654,110.035c-129.876,-26.662 -237.149,-117.79 -284.459,-241.647c-82.533,-216.07 -193.895,-445.72 -317.645,-614.998c-15.917,-1.109 -31.243,-1.166 -45.975,-0.132c-116.177,8.156 -173.424,103.631 -181.247,219.092c-18.582,274.246 185.541,634.028 625.883,853.677c83.692,41.747 149.491,112.318 185.285,198.724c167.392,404.075 394.04,723.587 704.488,928.959c5.06,3.347 10.04,6.813 14.938,10.393c301.53,220.471 685.081,324.496 1130.48,345.379c92.313,4.328 180.05,41.461 247.424,104.715c390.385,366.518 849.385,417.921 1093.68,267.582c49.784,-30.637 88.762,-69.614 100.544,-120.297c8.881,-38.2 2.006,-79.442 -17.468,-123.719Z" style="fill:#fff;"/><path d="M1314.84,932.925c367.539,-387.974 710.641,-666.931 991.551,-810.798c276.298,-141.504 508.339,-154.704 670.034,-67.119l68.376,54.15c19.805,21.685 38.805,49.318 56.208,82.043c37.156,69.874 66.691,177.933 119.189,258.913c57.822,89.195 134.669,157.238 175.694,190.504c44.779,29.021 94.674,70.741 150.382,80.354c124.059,21.409 264.579,-2.156 363.278,12.056c46.788,6.737 88.012,19.512 122.785,37.876l42.786,27.604l39.441,37.69c114.264,133.769 169.16,350.237 135.257,640.288c-35.775,306.065 -169.125,707.668 -405.382,1177.75c312.5,1.808 658.318,40.824 909.315,126.384c35.549,12.118 65.965,35.658 86.503,66.949c116.447,177.413 141.406,346.654 108.518,492.444c-33.881,150.189 -130.77,280.425 -276.814,373.042c-349.319,221.529 -1085.51,222.102 -1648.38,-297.331c-536.754,-17.415 -933.473,-145.717 -1298.18,-406.946c-377.104,-243.95 -660.925,-622.198 -866.16,-1110.01c-628.475,-304.577 -882.003,-843.176 -857.645,-1235.26c20.366,-327.821 216.971,-569.725 545.262,-597.65c70.864,-6.028 148.866,-1.401 233.584,16.7c36.691,7.839 69.644,27.558 93.741,56.095c170.062,201.392 329.034,506.72 440.655,794.275Zm-763.79,-797.612c-290.699,24.727 -462.315,241.165 -480.348,531.45c-23.417,376.93 228.8,892.716 842.231,1179.67c200.309,485.981 478.3,862.988 851.416,1103.87c360.44,258.678 817.217,382.066 1350.54,395.648c537.049,509.527 1183.69,519.951 1518.54,307.6c129,-81.808 215.616,-196.084 245.543,-328.745c29.343,-130.074 5.03,-280.602 -98.864,-438.89c-12.068,-18.386 -29.94,-32.218 -50.828,-39.338c-275.882,-94.043 -669.14,-129.935 -1001.22,-121.629c264.334,-504.802 413.058,-934.256 450.708,-1256.37c31.032,-265.484 -14.534,-464.621 -119.12,-587.061c-45.595,-53.378 -121.057,-79.927 -216.702,-84.513c-91.416,-4.384 -206.835,10.532 -310.451,-7.349c-66.221,-11.427 -126.824,-59.684 -179.659,-92.628c-43.636,-35.144 -128.986,-110.144 -193.006,-208.898c-53.594,-82.672 -84.29,-192.735 -122.223,-264.068c-27.584,-51.874 -60.917,-88.58 -96.38,-107.789c-145.993,-79.08 -354.803,-60.018 -604.27,67.745c-295.434,151.305 -660.099,455.455 -1049.9,879.515c-108.767,-308.871 -281.294,-658.708 -468.043,-879.862c-14.159,-16.767 -33.522,-28.353 -55.08,-32.96c-77.149,-16.483 -148.172,-20.89 -212.716,-15.418l-0.166,0.014Zm325.013,1465.89c-432.564,-248.907 -623.391,-631.049 -605.195,-923.945c10.623,-170.989 98.572,-307.56 259.277,-337.91c42.059,36.946 85.025,95.72 125.115,166.936c80.435,142.884 145.223,335.6 152.557,528.886c7.636,201.231 45.164,365.865 68.246,566.033Zm1000.22,1182.22c-347.627,-223.763 -601.563,-579.101 -785.907,-1034.38c-16.157,-278.102 -72.621,-472.058 -82.154,-723.282c-2.089,-55.068 -8.227,-110.026 -17.698,-164.098c65.243,146.079 119.559,294.622 157.727,426.546c2.395,8.275 5.774,15.992 9.975,23.064c249.731,442.788 557.67,830.194 980.635,1107.95c413.007,291.553 890.091,438.848 1399.48,513.129c8.017,1.35 16.339,1.74 24.832,1.056c133.528,-10.753 286.853,-13.199 442.301,-5.662c-48.518,11.598 -96.579,25.074 -143.332,40.377c-242.867,79.491 -447.601,95.616 -718.499,178.53c-499.066,-9.707 -927.234,-118.603 -1262.84,-360.142l-0.129,-0.092c-1.396,-1.005 -2.817,-1.973 -4.263,-2.904l-0.134,-0.086Zm2795.98,334.678c19.158,58.363 22.556,113.596 11.05,164.602c-18.663,82.73 -75.994,151.506 -156.44,202.523c-260.186,165.002 -738.362,148.719 -1166.06,-191.573c198.407,-48.883 368.208,-72.185 562.303,-135.712c189.877,-62.148 404.171,-91.509 569.066,-80.704c76.742,5.029 141.852,14.625 180.085,40.864Zm-1125.16,-477.861c-14.607,27.794 -29.575,55.831 -44.904,84.106c-453.171,-72.533 -878.227,-208.284 -1247.7,-469.496c-0.944,-0.667 -1.899,-1.318 -2.866,-1.953c-377.986,-247.837 -656.273,-590.587 -884.253,-981.324c21.796,-24.327 43.511,-48.278 65.138,-71.848c304.755,317.067 622.979,641.116 955.843,864.378c0.417,0.283 0.834,0.567 1.25,0.851c329.138,227.567 748.932,406.412 1157.5,575.286Zm-305.354,-1775.7c73.268,44.546 161.948,106.043 254.735,122.055c95.491,16.478 199.98,9.513 290.676,9.218c28.825,-0.094 55.907,0.539 80.052,4.016c15.887,2.287 30.808,2.226 39.207,12.058c77.063,90.219 96.007,239.776 73.142,435.397c-31.227,267.153 -145.323,611.293 -341.482,1013.49c-399.847,-164.994 -812.287,-338.272 -1134.27,-561.169c-0.415,-0.287 -0.832,-0.571 -1.251,-0.851c-325.057,-217.753 -634.644,-535.948 -931.931,-845.59c317.257,-327.4 611.26,-565.878 856.674,-691.566c171.899,-88.038 313.117,-123.879 414.378,-70.861c1.836,2.314 8.75,11.134 12.382,17.235c12.219,20.522 23.211,45.992 34.662,73.534c29.04,69.843 59.777,150.506 102.348,216.176c80.728,124.528 188.722,218.588 240.051,259.44l0.217,0.173c3.251,2.583 6.658,4.959 10.208,7.12l0.203,0.123Z" style="fill:#63ba47;"/><path d="M1314.84,932.925c367.539,-387.974 710.641,-666.931 991.551,-810.798c276.298,-141.504 508.339,-154.704 670.034,-67.119l68.376,54.15c19.805,21.685 38.805,49.318 56.208,82.043c37.156,69.874 66.691,177.933 119.189,258.913c57.822,89.195 134.669,157.238 175.694,190.504c44.779,29.021 94.674,70.741 150.382,80.354c124.059,21.409 264.579,-2.156 363.278,12.056c46.788,6.737 88.012,19.512 122.785,37.876l42.786,27.604l39.441,37.69c114.264,133.769 169.16,350.237 135.257,640.288c-35.775,306.065 -169.125,707.668 -405.382,1177.75c312.5,1.808 658.318,40.824 909.315,126.384c35.549,12.118 65.965,35.658 86.503,66.949c116.447,177.413 141.406,346.654 108.518,492.444c-33.881,150.189 -130.77,280.425 -276.814,373.042c-349.319,221.529 -1085.51,222.102 -1648.38,-297.331c-536.754,-17.415 -933.473,-145.717 -1298.18,-406.946c-377.104,-243.95 -660.925,-622.198 -866.16,-1110.01c-628.475,-304.577 -882.003,-843.176 -857.645,-1235.26c20.366,-327.821 216.971,-569.725 545.262,-597.65c70.864,-6.028 148.866,-1.401 233.584,16.7c36.691,7.839 69.644,27.558 93.741,56.095c170.062,201.392 329.034,506.72 440.655,794.275Zm-763.79,-797.612c-290.699,24.727 -462.315,241.165 -480.348,531.45c-23.417,376.93 228.8,892.716 842.231,1179.67c200.309,485.981 478.3,862.988 851.416,1103.87c360.44,258.678 817.217,382.066 1350.54,395.648c537.049,509.527 1183.69,519.951 1518.54,307.6c129,-81.808 215.616,-196.084 245.543,-328.745c29.343,-130.074 5.03,-280.602 -98.864,-438.89c-12.068,-18.386 -29.94,-32.218 -50.828,-39.338c-275.882,-94.043 -669.14,-129.935 -1001.22,-121.629c264.334,-504.802 413.058,-934.256 450.708,-1256.37c31.032,-265.484 -14.534,-464.621 -119.12,-587.061c-45.595,-53.378 -121.057,-79.927 -216.702,-84.513c-91.416,-4.384 -206.835,10.532 -310.451,-7.349c-66.221,-11.427 -126.824,-59.684 -179.659,-92.628c-43.636,-35.144 -128.986,-110.144 -193.006,-208.898c-53.594,-82.672 -84.29,-192.735 -122.223,-264.068c-27.584,-51.874 -60.917,-88.58 -96.38,-107.789c-145.993,-79.08 -354.803,-60.018 -604.27,67.745c-295.434,151.305 -660.099,455.455 -1049.9,879.515c-108.767,-308.871 -281.294,-658.708 -468.043,-879.862c-14.159,-16.767 -33.522,-28.353 -55.08,-32.96c-77.149,-16.483 -148.172,-20.89 -212.716,-15.418l-0.166,0.014Zm1325.24,2648.11c-347.627,-223.763 -601.563,-579.101 -785.907,-1034.38c-16.157,-278.102 -72.621,-472.058 -82.154,-723.282c-2.089,-55.068 -8.227,-110.026 -17.698,-164.098c65.243,146.079 119.559,294.622 157.727,426.546c2.395,8.275 5.774,15.992 9.975,23.064c249.731,442.788 557.67,830.194 980.635,1107.95c413.007,291.553 890.091,438.848 1399.48,513.129c8.017,1.35 16.339,1.74 24.832,1.056c133.528,-10.753 286.853,-13.199 442.301,-5.662c-48.518,11.598 -96.579,25.074 -143.332,40.377c-242.867,79.491 -447.601,95.616 -718.499,178.53c-499.066,-9.707 -927.234,-118.603 -1262.84,-360.142l-0.129,-0.092c-1.396,-1.005 -2.817,-1.973 -4.263,-2.904l-0.134,-0.086Zm-1000.22,-1182.22c-432.564,-248.907 -623.391,-631.049 -605.195,-923.945c10.623,-170.989 98.572,-307.56 259.277,-337.91c42.059,36.946 85.025,95.72 125.115,166.936c80.435,142.884 145.223,335.6 152.557,528.886c7.636,201.231 45.164,365.865 68.246,566.033Zm-332.285,-1136.62c1.615,1.486 3.246,2.954 4.892,4.402l-0.236,-5.589c-1.565,0.379 -3.117,0.774 -4.656,1.187Zm40.653,63.166l0.058,-0.005l-7.602,0.322l-25.574,1.089c0.089,0.003 0.237,0.007 0.445,0.011c10.405,-0.019 20.805,-0.45 31.176,-1.292c0.497,-0.041 0.996,-0.082 1.497,-0.125Zm-69.891,-52.639c20.841,31.949 34.992,51.701 36.536,53.847c0.02,-0.169 0.053,-0.439 0.098,-0.81l-2.209,-52.186c-2.746,-3.541 -5.498,-7.05 -8.255,-10.527c-9.176,2.625 -17.897,5.866 -26.17,9.676Zm2727.21,389.437c73.268,44.546 161.948,106.043 254.735,122.055c95.491,16.478 199.98,9.513 290.676,9.218c28.825,-0.094 55.907,0.539 80.052,4.016c15.887,2.287 30.808,2.226 39.207,12.058c77.063,90.219 96.007,239.776 73.142,435.397c-31.227,267.153 -145.323,611.293 -341.482,1013.49c-399.847,-164.994 -812.287,-338.272 -1134.27,-561.169c-0.415,-0.287 -0.832,-0.571 -1.251,-0.851c-325.057,-217.753 -634.644,-535.948 -931.931,-845.59c317.257,-327.4 611.26,-565.878 856.674,-691.566c171.899,-88.038 313.117,-123.879 414.378,-70.861c1.836,2.314 8.75,11.134 12.382,17.235c12.219,20.522 23.211,45.992 34.662,73.534c29.04,69.843 59.777,150.506 102.348,216.176c80.728,124.528 188.722,218.588 240.051,259.44l0.217,0.173c3.251,2.583 6.658,4.959 10.208,7.12l0.203,0.123Zm-204.606,336.534c113.777,69.099 200.109,57.808 204.248,57.217l-22.41,-6.278c-27.234,1.225 -97.399,-1.539 -180.832,-50.657l-1.006,-0.282Zm193.784,49.931c0.129,-0.019 0.194,-0.03 0.194,-0.03l-245.264,-85.687c-69.744,-55.509 -215.577,-184.154 -325.27,-353.362c-20.109,-31.02 -38.545,-64.445 -55.678,-98.786c-143.26,73.696 -303.724,192.593 -476.907,348.219c191.844,192.023 389.004,373.019 593.754,510.18l0.05,0.033l6.126,4.172l0.049,0.034c206.056,142.644 452.476,262.136 707.336,372.805c82.906,-208.565 134.956,-392.178 153.056,-547.024c0.461,-3.948 0.869,-8.009 1.227,-12.155c-53.905,-1.679 -108.067,-5.717 -160.092,-14.695c-140.944,-24.322 -281.07,-105.969 -392.365,-173.635c-0.058,-0.035 -0.116,-0.07 -0.174,-0.105l0.997,0.279c-0.068,-0.04 -0.136,-0.08 -0.204,-0.12l-0.985,-0.276l-3.135,-2.187c-14.975,-9.066 -30.355,-19.633 -45.971,-31.941c-0.44,-0.346 -0.88,-0.694 -1.319,-1.043c-0.149,-0.118 -0.298,-0.236 -0.446,-0.355l245.021,85.679Zm-193.165,-49.877l2.993,0.839c-4.777,-2.641 -9.503,-5.384 -14.175,-8.228l7.062,4.926c1.377,0.834 2.75,1.655 4.12,2.463Zm193.576,50.02c4.096,0 8.182,-0.063 12.255,-0.189l39.006,-139.252c-0.738,-0.38 -1.474,-0.76 -2.21,-1.141l-49.051,140.582Zm-0.411,-0.143c-0.198,0.029 -0.548,0.078 -1.045,0.141c0.485,0.002 0.971,0.002 1.456,0.002l-0.411,-0.143Zm-1.045,0.141c-4.991,-0.019 -9.974,-0.132 -14.945,-0.339l4.266,1.196c5.276,-0.243 8.909,-0.634 10.679,-0.857Zm13.711,-0.187l-2.047,7.309l2.05,-7.309l-0.003,0Zm0.24,-0.007l-0.003,-0l-2.081,7.439l2.084,-7.439Zm38.977,-139.137l11.637,-41.543l-0.335,0.96l-11.348,40.56l0.046,0.023Zm-38.977,139.137c79.943,-2.52 155.228,-29.143 217.487,-73.925c-61.161,-11.184 -121.58,-35.918 -178.51,-65.212l-38.977,139.137Zm303.27,1389.29c-14.607,27.794 -29.575,55.831 -44.904,84.106c-453.171,-72.533 -878.227,-208.284 -1247.7,-469.496c-0.944,-0.667 -1.899,-1.318 -2.866,-1.953c-377.986,-247.837 -656.273,-590.587 -884.253,-981.324c21.796,-24.327 43.511,-48.278 65.138,-71.848c304.755,317.067 622.979,641.116 955.843,864.378c0.417,0.283 0.834,0.567 1.25,0.851c329.138,227.567 748.932,406.412 1157.5,575.286Zm1125.16,477.861c19.158,58.363 22.556,113.596 11.05,164.602c-18.663,82.73 -75.994,151.506 -156.44,202.523c-260.186,165.002 -738.362,148.719 -1166.06,-191.573c198.407,-48.883 368.208,-72.185 562.303,-135.712c189.877,-62.148 404.171,-91.509 569.066,-80.704c76.742,5.029 141.852,14.625 180.085,40.864Z" style="fill:#63ba47;"/></g></svg>