<svg width="1452" height="1402" viewBox="0 0 1452 1402" fill="none" xmlns="http://www.w3.org/2000/svg">
<rect width="1452" height="1402" fill="white"/>
<line x1="362.008" y1="1313.5" x2="545.008" y2="1313.5" stroke="#FF6500" stroke-width="15"/>
<line x1="546.508" y1="1112" x2="546.5" y2="1321" stroke="#FF6500" stroke-width="15"/>
<line x1="1007.01" y1="930.5" x2="1190.01" y2="930.5" stroke="#FF6500" stroke-width="15"/>
<line x1="873.008" y1="930.5" x2="949.008" y2="930.5" stroke="#FF6500" stroke-width="15"/>
<line x1="879.508" y1="1081" x2="879.508" y2="1107" stroke="#FF6500" stroke-width="15"/>
<line x1="1197.5" y1="742" x2="1197.51" y2="1112" stroke="#FF6500" stroke-width="15"/>
<line x1="1049.51" y1="501" x2="1049.51" y2="757" stroke="#FF6500" stroke-width="15"/>
<line x1="369.5" y1="919" x2="369.5" y2="1011" stroke="#FF6500" stroke-width="15"/>
<line x1="369.508" y1="1118" x2="369.508" y2="1321" stroke="#FF6500" stroke-width="15"/>
<line x1="369.5" y1="1089" x2="369.5" y2="1118" stroke="#FF6500" stroke-width="15"/>
<line x1="368.008" y1="926.5" x2="415.008" y2="926.5" stroke="#FF6500" stroke-width="15"/>
<line x1="341" y1="926.5" x2="388" y2="926.5" stroke="#FF6500" stroke-width="15"/>
<line x1="880.508" y1="639.02" x2="879.505" y2="1018.02" stroke="#FF6500" stroke-width="15"/>
<line x1="880.508" y1="501" x2="880.508" y2="580" stroke="#FF6500" stroke-width="15"/>
<line x1="723.508" y1="501" x2="723.508" y2="757" stroke="#FF6500" stroke-width="15"/>
<line x1="723.508" y1="757" x2="723.508" y2="934" stroke="#FF6500" stroke-width="15"/>
<line x1="390.508" y1="757" x2="390.508" y2="934" stroke="#FF6500" stroke-width="15"/>
<line x1="651.008" y1="493.5" x2="932.008" y2="493.5" stroke="#FF6500" stroke-width="15"/>
<line x1="468.008" y1="493.5" x2="598.008" y2="493.5" stroke="#FF6500" stroke-width="15"/>
<line x1="993.008" y1="493.5" x2="1297.01" y2="493.5" stroke="#FF6500" stroke-width="15"/>
<line x1="1298.5" y1="82" x2="1298.5" y2="492" stroke="#FF6500" stroke-width="15"/>
<line x1="274.008" y1="89.5" x2="1291.01" y2="89.5" stroke="#FF6500" stroke-width="15"/>
<line x1="274.008" y1="493.5" x2="411.008" y2="493.5" stroke="#FF6500" stroke-width="15"/>
<line x1="144.008" y1="493.5" x2="274.008" y2="493.5" stroke="#FF6500" stroke-width="15"/>
<line x1="281.508" y1="91" x2="281.508" y2="274" stroke="#FF6500" stroke-width="15"/>
<line x1="281.508" y1="326" x2="281.508" y2="501" stroke="#FF6500" stroke-width="15"/>
<line x1="147.5" y1="486" x2="147.509" y2="1118" stroke="#FF6500" stroke-width="15"/>
<line x1="146.008" y1="749.5" x2="415.008" y2="749.5" stroke="#FF6500" stroke-width="15"/>
<line x1="140.008" y1="1110.5" x2="368.008" y2="1110.5" stroke="#FF6500" stroke-width="15"/>
<line x1="539.008" y1="1104.5" x2="1196.01" y2="1104.5" stroke="#FF6500" stroke-width="15"/>
<line x1="468.008" y1="749.5" x2="716.008" y2="749.5" stroke="#FF6500" stroke-width="15"/>
<line x1="873.008" y1="749.5" x2="1190.01" y2="749.5" stroke="#FF6500" stroke-width="15"/>
<line x1="468.008" y1="926.5" x2="716.008" y2="926.5" stroke="#FF6500" stroke-width="15"/>
<line x1="150" y1="926.5" x2="294" y2="926.5" stroke="#FF6500" stroke-width="15"/>
<path d="M632.623 298V251.28H647.087L657.775 277.52H658.991L669.551 251.28H684.271V298H673.903V258.128L675.375 258.256L663.023 288.528H653.039L640.623 258.256L642.223 258.128V298H632.623ZM715.356 298V287.632H713.628V276.368C713.628 274.576 713.201 273.232 712.348 272.336C711.495 271.44 710.129 270.992 708.252 270.992C707.313 270.992 706.076 271.013 704.54 271.056C703.004 271.099 701.425 271.163 699.804 271.248C698.183 271.333 696.711 271.419 695.388 271.504V262.864C696.369 262.779 697.521 262.693 698.844 262.608C700.167 262.523 701.532 262.459 702.94 262.416C704.348 262.373 705.671 262.352 706.908 262.352C710.492 262.352 713.5 262.864 715.932 263.888C718.407 264.912 720.284 266.469 721.564 268.56C722.844 270.608 723.484 273.253 723.484 276.496V298H715.356ZM704.156 298.896C701.639 298.896 699.42 298.448 697.5 297.552C695.623 296.656 694.151 295.376 693.084 293.712C692.017 292.005 691.484 289.979 691.484 287.632C691.484 285.072 692.145 282.981 693.468 281.36C694.791 279.696 696.647 278.48 699.036 277.712C701.425 276.901 704.177 276.496 707.292 276.496H714.78V282.192H707.228C705.436 282.192 704.049 282.64 703.068 283.536C702.129 284.389 701.66 285.563 701.66 287.056C701.66 288.464 702.129 289.616 703.068 290.512C704.049 291.365 705.436 291.792 707.228 291.792C708.38 291.792 709.404 291.6 710.3 291.216C711.239 290.789 712.007 290.085 712.604 289.104C713.201 288.123 713.543 286.757 713.628 285.008L716.06 287.568C715.847 290 715.249 292.048 714.268 293.712C713.329 295.376 712.007 296.656 710.3 297.552C708.636 298.448 706.588 298.896 704.156 298.896ZM733.836 298V262.928H744.076V298H733.836ZM729.164 270.48V262.928H744.076V270.48H729.164ZM737.804 259.472C735.884 259.472 734.455 258.981 733.516 258C732.62 256.976 732.172 255.696 732.172 254.16C732.172 252.581 732.62 251.301 733.516 250.32C734.455 249.296 735.884 248.784 737.804 248.784C739.724 248.784 741.132 249.296 742.028 250.32C742.967 251.301 743.436 252.581 743.436 254.16C743.436 255.696 742.967 256.976 742.028 258C741.132 258.981 739.724 259.472 737.804 259.472ZM753.547 298V262.928H761.675V277.968H761.099C761.099 274.384 761.547 271.397 762.443 269.008C763.382 266.619 764.79 264.827 766.667 263.632C768.544 262.437 770.827 261.84 773.515 261.84H773.963C778.059 261.84 781.174 263.184 783.307 265.872C785.483 268.517 786.571 272.549 786.571 277.968V298H776.331V277.392C776.331 275.515 775.776 273.979 774.667 272.784C773.558 271.589 772.064 270.992 770.187 270.992C768.267 270.992 766.71 271.611 765.515 272.848C764.363 274.043 763.787 275.621 763.787 277.584V298H753.547ZM839.519 298V251.28H850.015V298H839.519ZM809.311 298V251.28H819.807V298H809.311ZM817.951 279.12V269.904H841.375V279.12H817.951ZM881.106 298V287.632H879.378V276.368C879.378 274.576 878.951 273.232 878.098 272.336C877.245 271.44 875.879 270.992 874.002 270.992C873.063 270.992 871.826 271.013 870.29 271.056C868.754 271.099 867.175 271.163 865.554 271.248C863.933 271.333 862.461 271.419 861.138 271.504V262.864C862.119 262.779 863.271 262.693 864.594 262.608C865.917 262.523 867.282 262.459 868.69 262.416C870.098 262.373 871.421 262.352 872.658 262.352C876.242 262.352 879.25 262.864 881.682 263.888C884.157 264.912 886.034 266.469 887.314 268.56C888.594 270.608 889.234 273.253 889.234 276.496V298H881.106ZM869.906 298.896C867.389 298.896 865.17 298.448 863.25 297.552C861.373 296.656 859.901 295.376 858.834 293.712C857.767 292.005 857.234 289.979 857.234 287.632C857.234 285.072 857.895 282.981 859.218 281.36C860.541 279.696 862.397 278.48 864.786 277.712C867.175 276.901 869.927 276.496 873.042 276.496H880.53V282.192H872.978C871.186 282.192 869.799 282.64 868.818 283.536C867.879 284.389 867.41 285.563 867.41 287.056C867.41 288.464 867.879 289.616 868.818 290.512C869.799 291.365 871.186 291.792 872.978 291.792C874.13 291.792 875.154 291.6 876.05 291.216C876.989 290.789 877.757 290.085 878.354 289.104C878.951 288.123 879.293 286.757 879.378 285.008L881.81 287.568C881.597 290 880.999 292.048 880.018 293.712C879.079 295.376 877.757 296.656 876.05 297.552C874.386 298.448 872.338 298.896 869.906 298.896ZM898.37 298V251.28H908.674V298H898.37ZM894.21 258.832V251.28H908.674V258.832H894.21ZM918.558 298V251.28H928.862V298H918.558ZM914.398 258.832V251.28H928.862V258.832H914.398Z" fill="#3BA723"/>
<path d="M303.256 633V597.96H311.128V633H303.256ZM310.168 633V626.088H324.856V633H310.168ZM330.838 633V606.696H338.518V633H330.838ZM327.334 612.36V606.696H338.518V612.36H327.334ZM333.814 604.104C332.374 604.104 331.302 603.736 330.598 603C329.926 602.232 329.59 601.272 329.59 600.12C329.59 598.936 329.926 597.976 330.598 597.24C331.302 596.472 332.374 596.088 333.814 596.088C335.254 596.088 336.31 596.472 336.982 597.24C337.686 597.976 338.038 598.936 338.038 600.12C338.038 601.272 337.686 602.232 336.982 603C336.31 603.736 335.254 604.104 333.814 604.104ZM350.709 633L342.837 606.696H350.757L358.149 633H350.709ZM353.109 633V626.616H360.837V633H353.109ZM355.941 633L362.325 606.696H369.717L362.901 633H355.941ZM385.7 633.912C383.46 633.912 381.476 633.528 379.748 632.76C378.052 631.992 376.628 630.968 375.476 629.688C374.356 628.376 373.492 626.92 372.884 625.32C372.308 623.688 372.02 622.024 372.02 620.328V619.368C372.02 617.608 372.308 615.928 372.884 614.328C373.492 612.696 374.356 611.24 375.476 609.96C376.596 608.68 377.988 607.672 379.652 606.936C381.348 606.168 383.268 605.784 385.412 605.784C388.228 605.784 390.596 606.424 392.516 607.704C394.468 608.952 395.956 610.6 396.98 612.648C398.004 614.664 398.516 616.872 398.516 619.272V621.864H375.236V617.496H393.86L391.364 619.512C391.364 617.944 391.14 616.6 390.692 615.48C390.244 614.36 389.572 613.512 388.676 612.936C387.812 612.328 386.724 612.024 385.412 612.024C384.068 612.024 382.932 612.328 382.004 612.936C381.076 613.544 380.372 614.44 379.892 615.624C379.412 616.776 379.172 618.2 379.172 619.896C379.172 621.464 379.396 622.84 379.844 624.024C380.292 625.176 380.996 626.072 381.956 626.712C382.916 627.352 384.164 627.672 385.7 627.672C387.108 627.672 388.26 627.4 389.156 626.856C390.052 626.312 390.66 625.64 390.98 624.84H398.036C397.652 626.6 396.9 628.168 395.78 629.544C394.66 630.92 393.252 631.992 391.556 632.76C389.86 633.528 387.908 633.912 385.7 633.912ZM403.606 633V606.696H409.702V617.976H409.558C409.558 614.264 410.342 611.4 411.91 609.384C413.51 607.368 415.814 606.36 418.822 606.36H419.83V612.984H417.91C415.798 612.984 414.166 613.56 413.014 614.712C411.862 615.832 411.286 617.464 411.286 619.608V633H403.606ZM424.271 643.416V636.888H429.743C430.575 636.888 431.279 636.776 431.855 636.552C432.431 636.36 432.895 636.024 433.247 635.544C433.599 635.064 433.887 634.408 434.111 633.576L440.591 606.696H447.887L440.543 635.112C440.031 637.16 439.311 638.792 438.383 640.008C437.487 641.224 436.271 642.088 434.735 642.6C433.231 643.144 431.311 643.416 428.975 643.416H424.271ZM432.527 632.424V626.424H438.095V632.424H432.527ZM429.359 632.424L421.295 606.696H429.023L436.655 632.424H429.359ZM485.1 633V597.96H492.972V633H485.1ZM462.444 633V597.96H470.316V633H462.444ZM468.924 618.84V611.928H486.492V618.84H468.924ZM516.29 633V625.224H514.994V616.776C514.994 615.432 514.674 614.424 514.034 613.752C513.394 613.08 512.37 612.744 510.962 612.744C510.258 612.744 509.33 612.76 508.178 612.792C507.026 612.824 505.842 612.872 504.626 612.936C503.41 613 502.306 613.064 501.314 613.128V606.648C502.05 606.584 502.914 606.52 503.906 606.456C504.898 606.392 505.922 606.344 506.978 606.312C508.034 606.28 509.026 606.264 509.954 606.264C512.642 606.264 514.898 606.648 516.722 607.416C518.578 608.184 519.986 609.352 520.946 610.92C521.906 612.456 522.386 614.44 522.386 616.872V633H516.29ZM507.89 633.672C506.002 633.672 504.338 633.336 502.898 632.664C501.49 631.992 500.386 631.032 499.586 629.784C498.786 628.504 498.386 626.984 498.386 625.224C498.386 623.304 498.882 621.736 499.874 620.52C500.866 619.272 502.258 618.36 504.05 617.784C505.842 617.176 507.906 616.872 510.242 616.872H515.858V621.144H510.194C508.85 621.144 507.81 621.48 507.074 622.152C506.37 622.792 506.018 623.672 506.018 624.792C506.018 625.848 506.37 626.712 507.074 627.384C507.81 628.024 508.85 628.344 510.194 628.344C511.058 628.344 511.826 628.2 512.498 627.912C513.202 627.592 513.778 627.064 514.226 626.328C514.674 625.592 514.93 624.568 514.994 623.256L516.818 625.176C516.658 627 516.21 628.536 515.474 629.784C514.77 631.032 513.778 631.992 512.498 632.664C511.25 633.336 509.714 633.672 507.89 633.672ZM529.238 633V597.96H536.966V633H529.238ZM526.118 603.624V597.96H536.966V603.624H526.118ZM544.379 633V597.96H552.107V633H544.379ZM541.259 603.624V597.96H552.107V603.624H541.259Z" fill="#3BA723"/>
<path d="M925.827 608V584.64H933.059L938.403 597.76H939.011L944.291 584.64H951.651V608H946.467V588.064L947.203 588.128L941.027 603.264H936.035L929.827 588.128L930.627 588.064V608H925.827ZM965.146 608.608C963.61 608.608 962.244 608.373 961.05 607.904C959.855 607.413 958.842 606.752 958.01 605.92C957.199 605.088 956.58 604.139 956.154 603.072C955.727 601.984 955.514 600.843 955.514 599.648V598.912C955.514 597.696 955.727 596.544 956.154 595.456C956.602 594.347 957.242 593.376 958.074 592.544C958.927 591.712 959.951 591.061 961.146 590.592C962.34 590.101 963.674 589.856 965.146 589.856C966.66 589.856 968.004 590.101 969.178 590.592C970.372 591.061 971.386 591.712 972.218 592.544C973.05 593.376 973.69 594.347 974.138 595.456C974.586 596.544 974.81 597.696 974.81 598.912V599.648C974.81 600.843 974.596 601.984 974.17 603.072C973.743 604.139 973.114 605.088 972.282 605.92C971.471 606.752 970.468 607.413 969.274 607.904C968.079 608.373 966.703 608.608 965.146 608.608ZM965.146 604.288C966.148 604.288 966.98 604.075 967.642 603.648C968.303 603.221 968.804 602.624 969.146 601.856C969.508 601.088 969.69 600.235 969.69 599.296C969.69 598.293 969.508 597.419 969.146 596.672C968.783 595.904 968.26 595.296 967.578 594.848C966.916 594.4 966.106 594.176 965.146 594.176C964.207 594.176 963.396 594.4 962.714 594.848C962.031 595.296 961.508 595.904 961.146 596.672C960.804 597.419 960.634 598.293 960.634 599.296C960.634 600.235 960.804 601.088 961.146 601.856C961.487 602.624 961.999 603.221 962.682 603.648C963.364 604.075 964.186 604.288 965.146 604.288ZM986.351 608.224C984.58 608.224 983.151 608.011 982.063 607.584C980.975 607.136 980.175 606.4 979.663 605.376C979.172 604.331 978.927 602.923 978.927 601.152V585.728H983.695V601.344C983.695 602.176 983.908 602.816 984.335 603.264C984.783 603.691 985.412 603.904 986.223 603.904H988.815V608.224H986.351ZM976.271 594.208V590.464H988.815V594.208H976.271ZM1000.23 608.224C998.455 608.224 997.026 608.011 995.938 607.584C994.85 607.136 994.05 606.4 993.538 605.376C993.047 604.331 992.802 602.923 992.802 601.152V585.728H997.57V601.344C997.57 602.176 997.783 602.816 998.21 603.264C998.658 603.691 999.287 603.904 1000.1 603.904H1002.69V608.224H1000.23ZM990.146 594.208V590.464H1002.69V594.208H990.146ZM917.077 648V624.448H922.325V648H917.077ZM931.253 648L924.405 637.952H930.165L937.333 648H931.253ZM920.917 640.512V636.384H926.677C927.445 636.384 928.106 636.235 928.661 635.936C929.237 635.616 929.674 635.179 929.973 634.624C930.293 634.048 930.453 633.387 930.453 632.64C930.453 631.893 930.293 631.243 929.973 630.688C929.674 630.112 929.237 629.675 928.661 629.376C928.106 629.056 927.445 628.896 926.677 628.896H920.917V624.448H926.261C928.202 624.448 929.888 624.747 931.317 625.344C932.746 625.92 933.845 626.784 934.613 627.936C935.381 629.088 935.765 630.539 935.765 632.288V632.8C935.765 634.528 935.37 635.968 934.581 637.12C933.813 638.251 932.714 639.104 931.285 639.68C929.877 640.235 928.202 640.512 926.261 640.512H920.917ZM948.396 648.608C946.86 648.608 945.494 648.373 944.3 647.904C943.105 647.413 942.092 646.752 941.26 645.92C940.449 645.088 939.83 644.139 939.404 643.072C938.977 641.984 938.764 640.843 938.764 639.648V638.912C938.764 637.696 938.977 636.544 939.404 635.456C939.852 634.347 940.492 633.376 941.324 632.544C942.177 631.712 943.201 631.061 944.396 630.592C945.59 630.101 946.924 629.856 948.396 629.856C949.91 629.856 951.254 630.101 952.428 630.592C953.622 631.061 954.636 631.712 955.468 632.544C956.3 633.376 956.94 634.347 957.388 635.456C957.836 636.544 958.06 637.696 958.06 638.912V639.648C958.06 640.843 957.846 641.984 957.42 643.072C956.993 644.139 956.364 645.088 955.532 645.92C954.721 646.752 953.718 647.413 952.524 647.904C951.329 648.373 949.953 648.608 948.396 648.608ZM948.396 644.288C949.398 644.288 950.23 644.075 950.892 643.648C951.553 643.221 952.054 642.624 952.396 641.856C952.758 641.088 952.94 640.235 952.94 639.296C952.94 638.293 952.758 637.419 952.396 636.672C952.033 635.904 951.51 635.296 950.828 634.848C950.166 634.4 949.356 634.176 948.396 634.176C947.457 634.176 946.646 634.4 945.964 634.848C945.281 635.296 944.758 635.904 944.396 636.672C944.054 637.419 943.884 638.293 943.884 639.296C943.884 640.235 944.054 641.088 944.396 641.856C944.737 642.624 945.249 643.221 945.932 643.648C946.614 644.075 947.436 644.288 948.396 644.288ZM970.177 648.608C968.641 648.608 967.276 648.373 966.081 647.904C964.886 647.413 963.873 646.752 963.041 645.92C962.23 645.088 961.612 644.139 961.185 643.072C960.758 641.984 960.545 640.843 960.545 639.648V638.912C960.545 637.696 960.758 636.544 961.185 635.456C961.633 634.347 962.273 633.376 963.105 632.544C963.958 631.712 964.982 631.061 966.177 630.592C967.372 630.101 968.705 629.856 970.177 629.856C971.692 629.856 973.036 630.101 974.209 630.592C975.404 631.061 976.417 631.712 977.249 632.544C978.081 633.376 978.721 634.347 979.169 635.456C979.617 636.544 979.841 637.696 979.841 638.912V639.648C979.841 640.843 979.628 641.984 979.201 643.072C978.774 644.139 978.145 645.088 977.313 645.92C976.502 646.752 975.5 647.413 974.305 647.904C973.11 648.373 971.734 648.608 970.177 648.608ZM970.177 644.288C971.18 644.288 972.012 644.075 972.673 643.648C973.334 643.221 973.836 642.624 974.177 641.856C974.54 641.088 974.721 640.235 974.721 639.296C974.721 638.293 974.54 637.419 974.177 636.672C973.814 635.904 973.292 635.296 972.609 634.848C971.948 634.4 971.137 634.176 970.177 634.176C969.238 634.176 968.428 634.4 967.745 634.848C967.062 635.296 966.54 635.904 966.177 636.672C965.836 637.419 965.665 638.293 965.665 639.296C965.665 640.235 965.836 641.088 966.177 641.856C966.518 642.624 967.03 643.221 967.713 643.648C968.396 644.075 969.217 644.288 970.177 644.288ZM983.414 648V630.464H987.478V638.016H987.19C987.19 636.224 987.414 634.731 987.862 633.536C988.31 632.341 988.982 631.445 989.878 630.848C990.774 630.229 991.873 629.92 993.174 629.92H993.398C994.721 629.92 995.819 630.229 996.694 630.848C997.59 631.445 998.262 632.341 998.71 633.536C999.179 634.731 999.414 636.224 999.414 638.016H998.166C998.166 636.224 998.39 634.731 998.838 633.536C999.307 632.341 999.99 631.445 1000.89 630.848C1001.78 630.229 1002.88 629.92 1004.18 629.92H1004.41C1005.73 629.92 1006.84 630.229 1007.73 630.848C1008.65 631.445 1009.34 632.341 1009.81 633.536C1010.28 634.731 1010.52 636.224 1010.52 638.016V648H1005.4V637.728C1005.4 636.768 1005.14 635.989 1004.63 635.392C1004.14 634.795 1003.44 634.496 1002.52 634.496C1001.6 634.496 1000.88 634.805 1000.34 635.424C999.809 636.021 999.542 636.821 999.542 637.824V648H994.39V637.728C994.39 636.768 994.134 635.989 993.622 635.392C993.131 634.795 992.438 634.496 991.542 634.496C990.603 634.496 989.867 634.805 989.334 635.424C988.801 636.021 988.534 636.821 988.534 637.824V648H983.414Z" fill="#3BA723"/>
<path d="M509.916 833V809.64H515.164V833H509.916ZM494.812 833V809.64H500.06V833H494.812ZM499.132 823.56V818.952H510.844V823.56H499.132ZM526.037 833.544C524.011 833.544 522.453 832.893 521.365 831.592C520.277 830.269 519.733 828.285 519.733 825.64V815.464H524.853V825.896C524.853 826.835 525.12 827.581 525.653 828.136C526.187 828.691 526.901 828.968 527.797 828.968C528.715 828.968 529.461 828.68 530.037 828.104C530.613 827.528 530.901 826.749 530.901 825.768V815.464H536.021V833H531.957V825.608H532.309C532.309 827.379 532.075 828.861 531.605 830.056C531.157 831.229 530.485 832.104 529.589 832.68C528.693 833.256 527.584 833.544 526.261 833.544H526.037ZM540.742 833V815.464H544.806V823.016H544.518C544.518 821.224 544.742 819.731 545.19 818.536C545.638 817.341 546.31 816.445 547.206 815.848C548.102 815.229 549.201 814.92 550.502 814.92H550.726C552.049 814.92 553.148 815.229 554.022 815.848C554.918 816.445 555.59 817.341 556.038 818.536C556.508 819.731 556.742 821.224 556.742 823.016H555.494C555.494 821.224 555.718 819.731 556.166 818.536C556.636 817.341 557.318 816.445 558.214 815.848C559.11 815.229 560.209 814.92 561.51 814.92H561.734C563.057 814.92 564.166 815.229 565.062 815.848C565.98 816.445 566.673 817.341 567.142 818.536C567.612 819.731 567.846 821.224 567.846 823.016V833H562.726V822.728C562.726 821.768 562.47 820.989 561.958 820.392C561.468 819.795 560.764 819.496 559.846 819.496C558.929 819.496 558.204 819.805 557.67 820.424C557.137 821.021 556.87 821.821 556.87 822.824V833H551.718V822.728C551.718 821.768 551.462 820.989 550.95 820.392C550.46 819.795 549.766 819.496 548.87 819.496C547.932 819.496 547.196 819.805 546.662 820.424C546.129 821.021 545.862 821.821 545.862 822.824V833H540.742ZM582.995 833.576C581.566 833.576 580.307 833.277 579.219 832.68C578.131 832.061 577.278 831.176 576.659 830.024C576.04 828.872 575.71 827.464 575.667 825.8H576.275V833H572.211V809.64H577.331V821.512L576.115 823.048C576.179 821.277 576.51 819.795 577.107 818.6C577.726 817.384 578.568 816.477 579.635 815.88C580.702 815.261 581.918 814.952 583.283 814.952C584.478 814.952 585.555 815.176 586.515 815.624C587.496 816.051 588.328 816.669 589.011 817.48C589.694 818.269 590.216 819.208 590.579 820.296C590.963 821.384 591.155 822.568 591.155 823.848V824.552C591.155 825.832 590.963 827.016 590.579 828.104C590.216 829.192 589.672 830.152 588.947 830.984C588.243 831.795 587.39 832.435 586.387 832.904C585.384 833.352 584.254 833.576 582.995 833.576ZM581.651 829.288C582.526 829.288 583.283 829.075 583.923 828.648C584.584 828.221 585.096 827.624 585.459 826.856C585.822 826.067 586.003 825.181 586.003 824.2C586.003 823.197 585.822 822.323 585.459 821.576C585.096 820.829 584.584 820.253 583.923 819.848C583.283 819.421 582.526 819.208 581.651 819.208C580.883 819.208 580.158 819.389 579.475 819.752C578.792 820.115 578.238 820.637 577.811 821.32C577.406 821.981 577.203 822.792 577.203 823.752V824.936C577.203 825.853 577.416 826.643 577.843 827.304C578.291 827.944 578.856 828.435 579.539 828.776C580.222 829.117 580.926 829.288 581.651 829.288ZM602.743 833.608C601.25 833.608 599.927 833.352 598.775 832.84C597.644 832.328 596.695 831.645 595.927 830.792C595.18 829.917 594.604 828.947 594.199 827.88C593.815 826.792 593.623 825.683 593.623 824.552V823.912C593.623 822.739 593.815 821.619 594.199 820.552C594.604 819.464 595.18 818.493 595.927 817.64C596.674 816.787 597.602 816.115 598.711 815.624C599.842 815.112 601.122 814.856 602.551 814.856C604.428 814.856 606.007 815.283 607.287 816.136C608.588 816.968 609.58 818.067 610.263 819.432C610.946 820.776 611.287 822.248 611.287 823.848V825.576H595.767V822.664H608.183L606.519 824.008C606.519 822.963 606.37 822.067 606.071 821.32C605.772 820.573 605.324 820.008 604.727 819.624C604.151 819.219 603.426 819.016 602.551 819.016C601.655 819.016 600.898 819.219 600.279 819.624C599.66 820.029 599.191 820.627 598.871 821.416C598.551 822.184 598.391 823.133 598.391 824.264C598.391 825.309 598.54 826.227 598.839 827.016C599.138 827.784 599.607 828.381 600.247 828.808C600.887 829.235 601.719 829.448 602.743 829.448C603.682 829.448 604.45 829.267 605.047 828.904C605.644 828.541 606.05 828.093 606.263 827.56H610.967C610.711 828.733 610.21 829.779 609.463 830.696C608.716 831.613 607.778 832.328 606.647 832.84C605.516 833.352 604.215 833.608 602.743 833.608ZM614.68 833V815.464H618.744V822.984H618.648C618.648 820.509 619.17 818.6 620.216 817.256C621.282 815.912 622.818 815.24 624.824 815.24H625.496V819.656H624.216C622.808 819.656 621.72 820.04 620.952 820.808C620.184 821.555 619.8 822.643 619.8 824.072V833H614.68ZM512.577 873V849.448H517.825V873H512.577ZM526.753 873L519.905 862.952H525.665L532.833 873H526.753ZM516.417 865.512V861.384H522.177C522.945 861.384 523.606 861.235 524.161 860.936C524.737 860.616 525.174 860.179 525.473 859.624C525.793 859.048 525.953 858.387 525.953 857.64C525.953 856.893 525.793 856.243 525.473 855.688C525.174 855.112 524.737 854.675 524.161 854.376C523.606 854.056 522.945 853.896 522.177 853.896H516.417V849.448H521.761C523.702 849.448 525.388 849.747 526.817 850.344C528.246 850.92 529.345 851.784 530.113 852.936C530.881 854.088 531.265 855.539 531.265 857.288V857.8C531.265 859.528 530.87 860.968 530.081 862.12C529.313 863.251 528.214 864.104 526.785 864.68C525.377 865.235 523.702 865.512 521.761 865.512H516.417ZM543.896 873.608C542.36 873.608 540.994 873.373 539.8 872.904C538.605 872.413 537.592 871.752 536.76 870.92C535.949 870.088 535.33 869.139 534.904 868.072C534.477 866.984 534.264 865.843 534.264 864.648V863.912C534.264 862.696 534.477 861.544 534.904 860.456C535.352 859.347 535.992 858.376 536.824 857.544C537.677 856.712 538.701 856.061 539.896 855.592C541.09 855.101 542.424 854.856 543.896 854.856C545.41 854.856 546.754 855.101 547.928 855.592C549.122 856.061 550.136 856.712 550.968 857.544C551.8 858.376 552.44 859.347 552.888 860.456C553.336 861.544 553.56 862.696 553.56 863.912V864.648C553.56 865.843 553.346 866.984 552.92 868.072C552.493 869.139 551.864 870.088 551.032 870.92C550.221 871.752 549.218 872.413 548.024 872.904C546.829 873.373 545.453 873.608 543.896 873.608ZM543.896 869.288C544.898 869.288 545.73 869.075 546.392 868.648C547.053 868.221 547.554 867.624 547.896 866.856C548.258 866.088 548.44 865.235 548.44 864.296C548.44 863.293 548.258 862.419 547.896 861.672C547.533 860.904 547.01 860.296 546.328 859.848C545.666 859.4 544.856 859.176 543.896 859.176C542.957 859.176 542.146 859.4 541.464 859.848C540.781 860.296 540.258 860.904 539.896 861.672C539.554 862.419 539.384 863.293 539.384 864.296C539.384 865.235 539.554 866.088 539.896 866.856C540.237 867.624 540.749 868.221 541.432 868.648C542.114 869.075 542.936 869.288 543.896 869.288ZM565.677 873.608C564.141 873.608 562.776 873.373 561.581 872.904C560.386 872.413 559.373 871.752 558.541 870.92C557.73 870.088 557.112 869.139 556.685 868.072C556.258 866.984 556.045 865.843 556.045 864.648V863.912C556.045 862.696 556.258 861.544 556.685 860.456C557.133 859.347 557.773 858.376 558.605 857.544C559.458 856.712 560.482 856.061 561.677 855.592C562.872 855.101 564.205 854.856 565.677 854.856C567.192 854.856 568.536 855.101 569.709 855.592C570.904 856.061 571.917 856.712 572.749 857.544C573.581 858.376 574.221 859.347 574.669 860.456C575.117 861.544 575.341 862.696 575.341 863.912V864.648C575.341 865.843 575.128 866.984 574.701 868.072C574.274 869.139 573.645 870.088 572.813 870.92C572.002 871.752 571 872.413 569.805 872.904C568.61 873.373 567.234 873.608 565.677 873.608ZM565.677 869.288C566.68 869.288 567.512 869.075 568.173 868.648C568.834 868.221 569.336 867.624 569.677 866.856C570.04 866.088 570.221 865.235 570.221 864.296C570.221 863.293 570.04 862.419 569.677 861.672C569.314 860.904 568.792 860.296 568.109 859.848C567.448 859.4 566.637 859.176 565.677 859.176C564.738 859.176 563.928 859.4 563.245 859.848C562.562 860.296 562.04 860.904 561.677 861.672C561.336 862.419 561.165 863.293 561.165 864.296C561.165 865.235 561.336 866.088 561.677 866.856C562.018 867.624 562.53 868.221 563.213 868.648C563.896 869.075 564.717 869.288 565.677 869.288ZM578.914 873V855.464H582.978V863.016H582.69C582.69 861.224 582.914 859.731 583.362 858.536C583.81 857.341 584.482 856.445 585.378 855.848C586.274 855.229 587.373 854.92 588.674 854.92H588.898C590.221 854.92 591.319 855.229 592.194 855.848C593.09 856.445 593.762 857.341 594.21 858.536C594.679 859.731 594.914 861.224 594.914 863.016H593.666C593.666 861.224 593.89 859.731 594.338 858.536C594.807 857.341 595.49 856.445 596.386 855.848C597.282 855.229 598.381 854.92 599.682 854.92H599.906C601.229 854.92 602.338 855.229 603.234 855.848C604.151 856.445 604.845 857.341 605.314 858.536C605.783 859.731 606.018 861.224 606.018 863.016V873H600.898V862.728C600.898 861.768 600.642 860.989 600.13 860.392C599.639 859.795 598.935 859.496 598.018 859.496C597.101 859.496 596.375 859.805 595.842 860.424C595.309 861.021 595.042 861.821 595.042 862.824V873H589.89V862.728C589.89 861.768 589.634 860.989 589.122 860.392C588.631 859.795 587.938 859.496 587.042 859.496C586.103 859.496 585.367 859.805 584.834 860.424C584.301 861.021 584.034 861.821 584.034 862.824V873H578.914Z" fill="#3BA723"/>
<path d="M542.718 1020V990.8H549.118V1020H542.718ZM548.318 1020V1014.56H561.078V1020H548.318ZM548.318 1007.88V1002.44H560.158V1007.88H548.318ZM548.318 996.24V990.8H560.798V996.24H548.318ZM566.108 1020V998.08H571.188V1007.48H570.828C570.828 1005.24 571.108 1003.37 571.668 1001.88C572.254 1000.39 573.134 999.267 574.308 998.52C575.481 997.773 576.908 997.4 578.588 997.4H578.868C581.428 997.4 583.374 998.24 584.708 999.92C586.068 1001.57 586.748 1004.09 586.748 1007.48V1020H580.348V1007.12C580.348 1005.95 580.001 1004.99 579.308 1004.24C578.614 1003.49 577.681 1003.12 576.508 1003.12C575.308 1003.12 574.334 1003.51 573.588 1004.28C572.868 1005.03 572.508 1006.01 572.508 1007.24V1020H566.108ZM602.161 1020.28C599.948 1020.28 598.161 1020.01 596.801 1019.48C595.441 1018.92 594.441 1018 593.801 1016.72C593.188 1015.41 592.881 1013.65 592.881 1011.44V992.16H598.841V1011.68C598.841 1012.72 599.108 1013.52 599.641 1014.08C600.201 1014.61 600.988 1014.88 602.001 1014.88H605.241V1020.28H602.161ZM589.561 1002.76V998.08H605.241V1002.76H589.561ZM609.545 1020V998.08H614.625V1007.48H614.505C614.505 1004.39 615.158 1002 616.465 1000.32C617.798 998.64 619.718 997.8 622.225 997.8H623.065V1003.32H621.465C619.705 1003.32 618.345 1003.8 617.385 1004.76C616.425 1005.69 615.945 1007.05 615.945 1008.84V1020H609.545ZM639.465 1020V1013.52H638.385V1006.48C638.385 1005.36 638.118 1004.52 637.585 1003.96C637.051 1003.4 636.198 1003.12 635.025 1003.12C634.438 1003.12 633.665 1003.13 632.705 1003.16C631.745 1003.19 630.758 1003.23 629.745 1003.28C628.731 1003.33 627.811 1003.39 626.985 1003.44V998.04C627.598 997.987 628.318 997.933 629.145 997.88C629.971 997.827 630.825 997.787 631.705 997.76C632.585 997.733 633.411 997.72 634.185 997.72C636.425 997.72 638.305 998.04 639.825 998.68C641.371 999.32 642.545 1000.29 643.345 1001.6C644.145 1002.88 644.545 1004.53 644.545 1006.56V1020H639.465ZM632.465 1020.56C630.891 1020.56 629.505 1020.28 628.305 1019.72C627.131 1019.16 626.211 1018.36 625.545 1017.32C624.878 1016.25 624.545 1014.99 624.545 1013.52C624.545 1011.92 624.958 1010.61 625.785 1009.6C626.611 1008.56 627.771 1007.8 629.265 1007.32C630.758 1006.81 632.478 1006.56 634.425 1006.56H639.105V1010.12H634.385C633.265 1010.12 632.398 1010.4 631.785 1010.96C631.198 1011.49 630.905 1012.23 630.905 1013.16C630.905 1014.04 631.198 1014.76 631.785 1015.32C632.398 1015.85 633.265 1016.12 634.385 1016.12C635.105 1016.12 635.745 1016 636.305 1015.76C636.891 1015.49 637.371 1015.05 637.745 1014.44C638.118 1013.83 638.331 1012.97 638.385 1011.88L639.905 1013.48C639.771 1015 639.398 1016.28 638.785 1017.32C638.198 1018.36 637.371 1019.16 636.305 1019.72C635.265 1020.28 633.985 1020.56 632.465 1020.56ZM649.975 1020V998.08H655.055V1007.48H654.695C654.695 1005.24 654.975 1003.37 655.535 1001.88C656.121 1000.39 657.001 999.267 658.175 998.52C659.348 997.773 660.775 997.4 662.455 997.4H662.735C665.295 997.4 667.241 998.24 668.575 999.92C669.935 1001.57 670.615 1004.09 670.615 1007.48V1020H664.215V1007.12C664.215 1005.95 663.868 1004.99 663.175 1004.24C662.481 1003.49 661.548 1003.12 660.375 1003.12C659.175 1003.12 658.201 1003.51 657.455 1004.28C656.735 1005.03 656.375 1006.01 656.375 1007.24V1020H649.975ZM685.908 1020.76C684.015 1020.76 682.362 1020.45 680.948 1019.84C679.562 1019.2 678.402 1018.35 677.468 1017.28C676.535 1016.21 675.842 1015.01 675.388 1013.68C674.935 1012.32 674.708 1010.92 674.708 1009.48V1008.72C674.708 1007.23 674.948 1005.8 675.428 1004.44C675.908 1003.05 676.615 1001.83 677.548 1000.76C678.482 999.693 679.642 998.853 681.028 998.24C682.442 997.627 684.055 997.32 685.868 997.32C687.842 997.32 689.588 997.707 691.108 998.48C692.628 999.227 693.842 1000.28 694.748 1001.64C695.655 1003 696.162 1004.56 696.268 1006.32H689.988C689.882 1005.33 689.482 1004.51 688.788 1003.84C688.122 1003.15 687.148 1002.8 685.868 1002.8C684.802 1002.8 683.908 1003.07 683.188 1003.6C682.495 1004.13 681.975 1004.87 681.628 1005.8C681.282 1006.73 681.108 1007.84 681.108 1009.12C681.108 1010.29 681.268 1011.36 681.588 1012.32C681.908 1013.25 682.415 1013.99 683.108 1014.52C683.828 1015.03 684.762 1015.28 685.908 1015.28C686.762 1015.28 687.482 1015.13 688.068 1014.84C688.682 1014.52 689.162 1014.09 689.508 1013.56C689.882 1013 690.108 1012.36 690.188 1011.64H696.428C696.348 1013.45 695.842 1015.05 694.908 1016.44C693.975 1017.8 692.735 1018.87 691.188 1019.64C689.642 1020.39 687.882 1020.76 685.908 1020.76ZM710.562 1020.76C708.695 1020.76 707.042 1020.44 705.602 1019.8C704.188 1019.16 703.002 1018.31 702.042 1017.24C701.108 1016.15 700.388 1014.93 699.882 1013.6C699.402 1012.24 699.162 1010.85 699.162 1009.44V1008.64C699.162 1007.17 699.402 1005.77 699.882 1004.44C700.388 1003.08 701.108 1001.87 702.042 1000.8C702.975 999.733 704.135 998.893 705.522 998.28C706.935 997.64 708.535 997.32 710.322 997.32C712.668 997.32 714.642 997.853 716.242 998.92C717.868 999.96 719.108 1001.33 719.962 1003.04C720.815 1004.72 721.242 1006.56 721.242 1008.56V1010.72H701.842V1007.08H717.362L715.282 1008.76C715.282 1007.45 715.095 1006.33 714.722 1005.4C714.348 1004.47 713.788 1003.76 713.042 1003.28C712.322 1002.77 711.415 1002.52 710.322 1002.52C709.202 1002.52 708.255 1002.77 707.482 1003.28C706.708 1003.79 706.122 1004.53 705.722 1005.52C705.322 1006.48 705.122 1007.67 705.122 1009.08C705.122 1010.39 705.308 1011.53 705.682 1012.52C706.055 1013.48 706.642 1014.23 707.442 1014.76C708.242 1015.29 709.282 1015.56 710.562 1015.56C711.735 1015.56 712.695 1015.33 713.442 1014.88C714.188 1014.43 714.695 1013.87 714.962 1013.2H720.842C720.522 1014.67 719.895 1015.97 718.962 1017.12C718.028 1018.27 716.855 1019.16 715.442 1019.8C714.028 1020.44 712.402 1020.76 710.562 1020.76Z" fill="#3BA723"/>
<g clip-path="url(#clip0_147_59)">
<path d="M1033.18 964.793C1037.53 964.793 1041.06 961.259 1041.06 956.9C1041.06 952.541 1037.53 949.007 1033.18 949.007C1028.82 949.007 1025.29 952.541 1025.29 956.9C1025.29 961.259 1028.82 964.793 1033.18 964.793Z" fill="#3BA723"/>
<path d="M1032.09 1014.82V1042.27C1032.04 1047.25 1024.63 1047.25 1024.57 1042.27V1014.82H1014.87L1025.29 978.151H1023.6L1017.53 999.037C1016 1003.66 1009.76 1001.79 1011.23 996.852L1018.02 974.265C1018.8 971.671 1022.06 967.091 1027.72 966.979H1032.81H1038.63C1044.13 967.091 1047.41 971.71 1048.34 974.265L1055.13 996.852C1056.51 1001.76 1050.32 1003.78 1048.82 999.037L1042.76 978.151H1040.82L1051.49 1014.82H1041.54V1042.27C1041.62 1047.25 1034.24 1047.23 1034.27 1042.27V1014.82H1032.09Z" fill="#3BA723"/>
</g>
<g clip-path="url(#clip1_147_59)">
<path d="M255.693 964.793C260.047 964.793 263.576 961.259 263.576 956.9C263.576 952.541 260.047 949.007 255.693 949.007C251.34 949.007 247.811 952.541 247.811 956.9C247.811 961.259 251.34 964.793 255.693 964.793Z" fill="#3BA723"/>
<path d="M247.326 966.979C241.264 966.979 237.381 972.234 237.381 977.422V1001.71C237.325 1006.45 244.15 1006.45 244.172 1001.71V979.365H245.87V1041.05C245.765 1047.49 254.854 1047.31 254.844 1041.05V1005.11H256.3V1041.05C256.418 1047.31 265.555 1047.49 265.516 1041.05V979.365H267.214V1001.71C267.134 1006.49 273.923 1006.49 274.005 1001.71V977.422C273.908 972.234 269.88 967.072 263.818 966.979H247.326Z" fill="#3BA723"/>
</g>
<path d="M981.016 1069.46C979.432 1069.46 978.072 1069.18 976.936 1068.64C975.8 1068.08 974.872 1067.35 974.152 1066.46C973.432 1065.54 972.896 1064.57 972.544 1063.53C972.208 1062.47 972.04 1061.45 972.04 1060.46V1059.93C972.04 1058.84 972.216 1057.77 972.568 1056.71C972.92 1055.64 973.456 1054.67 974.176 1053.81C974.912 1052.94 975.832 1052.26 976.936 1051.74C978.056 1051.22 979.376 1050.95 980.896 1050.95C982.48 1050.95 983.88 1051.25 985.096 1051.84C986.312 1052.43 987.28 1053.26 988 1054.31C988.736 1055.35 989.168 1056.58 989.296 1057.98H985.336C985.224 1057.28 984.968 1056.68 984.568 1056.18C984.168 1055.69 983.648 1055.3 983.008 1055.03C982.384 1054.76 981.68 1054.62 980.896 1054.62C980.112 1054.62 979.416 1054.76 978.808 1055.03C978.2 1055.3 977.688 1055.69 977.272 1056.18C976.872 1056.68 976.56 1057.27 976.336 1057.96C976.128 1058.63 976.024 1059.38 976.024 1060.22C976.024 1061.03 976.128 1061.78 976.336 1062.47C976.56 1063.14 976.88 1063.74 977.296 1064.25C977.728 1064.74 978.256 1065.13 978.88 1065.4C979.504 1065.66 980.216 1065.78 981.016 1065.78C982.232 1065.78 983.256 1065.49 984.088 1064.9C984.936 1064.3 985.448 1063.49 985.624 1062.45H989.56C989.416 1063.73 988.984 1064.9 988.264 1065.98C987.56 1067.03 986.592 1067.88 985.36 1068.52C984.144 1069.14 982.696 1069.46 981.016 1069.46ZM992.123 1069V1051.48H995.987V1069H992.123ZM990.563 1054.31V1051.48H995.987V1054.31H990.563ZM1005.93 1069.46C1004.78 1069.46 1003.76 1069.28 1002.86 1068.93C1001.97 1068.56 1001.21 1068.06 1000.58 1067.44C999.973 1066.82 999.509 1066.1 999.189 1065.3C998.869 1064.49 998.709 1063.63 998.709 1062.74V1062.18C998.709 1061.27 998.869 1060.41 999.189 1059.59C999.525 1058.76 1000.01 1058.03 1000.63 1057.41C1001.27 1056.78 1002.04 1056.3 1002.93 1055.94C1003.83 1055.58 1004.83 1055.39 1005.93 1055.39C1007.07 1055.39 1008.08 1055.58 1008.96 1055.94C1009.85 1056.3 1010.61 1056.78 1011.24 1057.41C1011.86 1058.03 1012.34 1058.76 1012.68 1059.59C1013.01 1060.41 1013.18 1061.27 1013.18 1062.18V1062.74C1013.18 1063.63 1013.02 1064.49 1012.7 1065.3C1012.38 1066.1 1011.91 1066.82 1011.29 1067.44C1010.68 1068.06 1009.93 1068.56 1009.03 1068.93C1008.13 1069.28 1007.1 1069.46 1005.93 1069.46ZM1005.93 1066.22C1006.69 1066.22 1007.31 1066.06 1007.81 1065.74C1008.3 1065.42 1008.68 1064.97 1008.93 1064.39C1009.21 1063.82 1009.34 1063.18 1009.34 1062.47C1009.34 1061.72 1009.21 1061.06 1008.93 1060.5C1008.66 1059.93 1008.27 1059.47 1007.76 1059.14C1007.26 1058.8 1006.65 1058.63 1005.93 1058.63C1005.23 1058.63 1004.62 1058.8 1004.11 1059.14C1003.6 1059.47 1003.21 1059.93 1002.93 1060.5C1002.68 1061.06 1002.55 1061.72 1002.55 1062.47C1002.55 1063.18 1002.68 1063.82 1002.93 1064.39C1003.19 1064.97 1003.57 1065.42 1004.09 1065.74C1004.6 1066.06 1005.21 1066.22 1005.93 1066.22ZM1023.81 1069V1065.11H1023.16V1060.89C1023.16 1060.22 1023 1059.71 1022.68 1059.38C1022.36 1059.04 1021.85 1058.87 1021.14 1058.87C1020.79 1058.87 1020.33 1058.88 1019.75 1058.9C1019.17 1058.91 1018.58 1058.94 1017.97 1058.97C1017.37 1059 1016.81 1059.03 1016.32 1059.06V1055.82C1016.69 1055.79 1017.12 1055.76 1017.61 1055.73C1018.11 1055.7 1018.62 1055.67 1019.15 1055.66C1019.68 1055.64 1020.17 1055.63 1020.64 1055.63C1021.98 1055.63 1023.11 1055.82 1024.02 1056.21C1024.95 1056.59 1025.65 1057.18 1026.13 1057.96C1026.61 1058.73 1026.85 1059.72 1026.85 1060.94V1069H1023.81ZM1019.61 1069.34C1018.66 1069.34 1017.83 1069.17 1017.11 1068.83C1016.41 1068.5 1015.85 1068.02 1015.45 1067.39C1015.05 1066.75 1014.85 1065.99 1014.85 1065.11C1014.85 1064.15 1015.1 1063.37 1015.6 1062.76C1016.09 1062.14 1016.79 1061.68 1017.69 1061.39C1018.58 1061.09 1019.61 1060.94 1020.78 1060.94H1023.59V1063.07H1020.76C1020.09 1063.07 1019.57 1063.24 1019.2 1063.58C1018.85 1063.9 1018.67 1064.34 1018.67 1064.9C1018.67 1065.42 1018.85 1065.86 1019.2 1066.19C1019.57 1066.51 1020.09 1066.67 1020.76 1066.67C1021.19 1066.67 1021.57 1066.6 1021.91 1066.46C1022.26 1066.3 1022.55 1066.03 1022.77 1065.66C1023 1065.3 1023.13 1064.78 1023.16 1064.13L1024.07 1065.09C1023.99 1066 1023.77 1066.77 1023.4 1067.39C1023.05 1068.02 1022.55 1068.5 1021.91 1068.83C1021.29 1069.17 1020.52 1069.34 1019.61 1069.34ZM1039.38 1069L1035.22 1062.86H1033.38L1038.73 1055.85H1042.76L1037.72 1062.38L1037.77 1060.5L1043.7 1069H1039.38ZM1030.11 1069V1051.48H1033.95V1069H1030.11ZM1045.44 1069V1055.85H1048.49V1061.49H1048.42C1048.42 1059.63 1048.81 1058.2 1049.59 1057.19C1050.39 1056.18 1051.54 1055.68 1053.05 1055.68H1053.55V1058.99H1052.59C1051.54 1058.99 1050.72 1059.28 1050.14 1059.86C1049.57 1060.42 1049.28 1061.23 1049.28 1062.3V1069H1045.44ZM1061.88 1069.46C1060.73 1069.46 1059.7 1069.28 1058.81 1068.93C1057.91 1068.56 1057.15 1068.06 1056.53 1067.44C1055.92 1066.82 1055.45 1066.1 1055.13 1065.3C1054.81 1064.49 1054.65 1063.63 1054.65 1062.74V1062.18C1054.65 1061.27 1054.81 1060.41 1055.13 1059.59C1055.47 1058.76 1055.95 1058.03 1056.57 1057.41C1057.21 1056.78 1057.98 1056.3 1058.88 1055.94C1059.77 1055.58 1060.77 1055.39 1061.88 1055.39C1063.01 1055.39 1064.02 1055.58 1064.9 1055.94C1065.8 1056.3 1066.56 1056.78 1067.18 1057.41C1067.81 1058.03 1068.29 1058.76 1068.62 1059.59C1068.96 1060.41 1069.13 1061.27 1069.13 1062.18V1062.74C1069.13 1063.63 1068.97 1064.49 1068.65 1065.3C1068.33 1066.1 1067.85 1066.82 1067.23 1067.44C1066.62 1068.06 1065.87 1068.56 1064.97 1068.93C1064.08 1069.28 1063.05 1069.46 1061.88 1069.46ZM1061.88 1066.22C1062.63 1066.22 1063.25 1066.06 1063.75 1065.74C1064.25 1065.42 1064.62 1064.97 1064.88 1064.39C1065.15 1063.82 1065.29 1063.18 1065.29 1062.47C1065.29 1061.72 1065.15 1061.06 1064.88 1060.5C1064.61 1059.93 1064.21 1059.47 1063.7 1059.14C1063.21 1058.8 1062.6 1058.63 1061.88 1058.63C1061.17 1058.63 1060.57 1058.8 1060.05 1059.14C1059.54 1059.47 1059.15 1059.93 1058.88 1060.5C1058.62 1061.06 1058.49 1061.72 1058.49 1062.47C1058.49 1063.18 1058.62 1063.82 1058.88 1064.39C1059.13 1064.97 1059.52 1065.42 1060.03 1065.74C1060.54 1066.06 1061.16 1066.22 1061.88 1066.22ZM1078.21 1069.46C1077.06 1069.46 1076.04 1069.28 1075.14 1068.93C1074.25 1068.56 1073.49 1068.06 1072.86 1067.44C1072.25 1066.82 1071.79 1066.1 1071.47 1065.3C1071.15 1064.49 1070.99 1063.63 1070.99 1062.74V1062.18C1070.99 1061.27 1071.15 1060.41 1071.47 1059.59C1071.81 1058.76 1072.29 1058.03 1072.91 1057.41C1073.55 1056.78 1074.32 1056.3 1075.21 1055.94C1076.11 1055.58 1077.11 1055.39 1078.21 1055.39C1079.35 1055.39 1080.36 1055.58 1081.24 1055.94C1082.13 1056.3 1082.89 1056.78 1083.52 1057.41C1084.14 1058.03 1084.62 1058.76 1084.96 1059.59C1085.29 1060.41 1085.46 1061.27 1085.46 1062.18V1062.74C1085.46 1063.63 1085.3 1064.49 1084.98 1065.3C1084.66 1066.1 1084.19 1066.82 1083.57 1067.44C1082.96 1068.06 1082.21 1068.56 1081.31 1068.93C1080.41 1069.28 1079.38 1069.46 1078.21 1069.46ZM1078.21 1066.22C1078.97 1066.22 1079.59 1066.06 1080.09 1065.74C1080.58 1065.42 1080.96 1064.97 1081.21 1064.39C1081.49 1063.82 1081.62 1063.18 1081.62 1062.47C1081.62 1061.72 1081.49 1061.06 1081.21 1060.5C1080.94 1059.93 1080.55 1059.47 1080.04 1059.14C1079.54 1058.8 1078.93 1058.63 1078.21 1058.63C1077.51 1058.63 1076.9 1058.8 1076.39 1059.14C1075.88 1059.47 1075.49 1059.93 1075.21 1060.5C1074.96 1061.06 1074.83 1061.72 1074.83 1062.47C1074.83 1063.18 1074.96 1063.82 1075.21 1064.39C1075.47 1064.97 1075.85 1065.42 1076.37 1065.74C1076.88 1066.06 1077.49 1066.22 1078.21 1066.22ZM1088.14 1069V1055.85H1091.19V1061.51H1090.97C1090.97 1060.17 1091.14 1059.05 1091.48 1058.15C1091.81 1057.26 1092.32 1056.58 1092.99 1056.14C1093.66 1055.67 1094.49 1055.44 1095.46 1055.44H1095.63C1096.62 1055.44 1097.45 1055.67 1098.1 1056.14C1098.77 1056.58 1099.28 1057.26 1099.61 1058.15C1099.97 1059.05 1100.14 1060.17 1100.14 1061.51H1099.21C1099.21 1060.17 1099.37 1059.05 1099.71 1058.15C1100.06 1057.26 1100.57 1056.58 1101.25 1056.14C1101.92 1055.67 1102.74 1055.44 1103.72 1055.44H1103.89C1104.88 1055.44 1105.71 1055.67 1106.38 1056.14C1107.07 1056.58 1107.59 1057.26 1107.94 1058.15C1108.29 1059.05 1108.47 1060.17 1108.47 1061.51V1069H1104.63V1061.3C1104.63 1060.58 1104.44 1059.99 1104.05 1059.54C1103.69 1059.1 1103.16 1058.87 1102.47 1058.87C1101.78 1058.87 1101.24 1059.1 1100.84 1059.57C1100.44 1060.02 1100.24 1060.62 1100.24 1061.37V1069H1096.37V1061.3C1096.37 1060.58 1096.18 1059.99 1095.8 1059.54C1095.43 1059.1 1094.91 1058.87 1094.24 1058.87C1093.53 1058.87 1092.98 1059.1 1092.58 1059.57C1092.18 1060.02 1091.98 1060.62 1091.98 1061.37V1069H1088.14Z" fill="#3BA723"/>
<g clip-path="url(#clip2_147_59)">
<path d="M1033.18 789.793C1037.53 789.793 1041.06 786.259 1041.06 781.9C1041.06 777.541 1037.53 774.007 1033.18 774.007C1028.82 774.007 1025.29 777.541 1025.29 781.9C1025.29 786.259 1028.82 789.793 1033.18 789.793Z" fill="#3BA723"/>
<path d="M1032.09 839.824V867.267C1032.04 872.253 1024.63 872.253 1024.57 867.267V839.824H1014.87L1025.29 803.151H1023.6L1017.53 824.037C1016 828.657 1009.76 826.787 1011.23 821.852L1018.02 799.265C1018.8 796.671 1022.06 792.091 1027.72 791.979H1032.81H1038.63C1044.13 792.091 1047.41 796.71 1048.34 799.265L1055.13 821.852C1056.51 826.762 1050.32 828.778 1048.82 824.037L1042.76 803.151H1040.82L1051.49 839.824H1041.54V867.267C1041.62 872.253 1034.24 872.229 1034.27 867.267V839.824H1032.09Z" fill="#3BA723"/>
</g>
<path d="M1002.71 894V879.432H1006.65V894H1002.71ZM997.79 879.912V876.48H1011.59V879.912H997.79ZM1018.59 894.456C1017.44 894.456 1016.42 894.28 1015.52 893.928C1014.63 893.56 1013.87 893.064 1013.24 892.44C1012.63 891.816 1012.17 891.104 1011.85 890.304C1011.53 889.488 1011.37 888.632 1011.37 887.736V887.184C1011.37 886.272 1011.53 885.408 1011.85 884.592C1012.19 883.76 1012.67 883.032 1013.29 882.408C1013.93 881.784 1014.7 881.296 1015.59 880.944C1016.49 880.576 1017.49 880.392 1018.59 880.392C1019.73 880.392 1020.74 880.576 1021.62 880.944C1022.51 881.296 1023.27 881.784 1023.9 882.408C1024.52 883.032 1025 883.76 1025.34 884.592C1025.67 885.408 1025.84 886.272 1025.84 887.184V887.736C1025.84 888.632 1025.68 889.488 1025.36 890.304C1025.04 891.104 1024.57 891.816 1023.95 892.44C1023.34 893.064 1022.59 893.56 1021.69 893.928C1020.79 894.28 1019.76 894.456 1018.59 894.456ZM1018.59 891.216C1019.35 891.216 1019.97 891.056 1020.47 890.736C1020.96 890.416 1021.34 889.968 1021.59 889.392C1021.87 888.816 1022 888.176 1022 887.472C1022 886.72 1021.87 886.064 1021.59 885.504C1021.32 884.928 1020.93 884.472 1020.42 884.136C1019.92 883.8 1019.31 883.632 1018.59 883.632C1017.89 883.632 1017.28 883.8 1016.77 884.136C1016.26 884.472 1015.87 884.928 1015.59 885.504C1015.34 886.064 1015.21 886.72 1015.21 887.472C1015.21 888.176 1015.34 888.816 1015.59 889.392C1015.85 889.968 1016.23 890.416 1016.75 890.736C1017.26 891.056 1017.87 891.216 1018.59 891.216ZM1029.15 894V880.848H1032.99V894H1029.15ZM1027.39 883.68V880.848H1032.99V883.68H1027.39ZM1030.63 879.552C1029.91 879.552 1029.38 879.368 1029.03 879C1028.69 878.616 1028.52 878.136 1028.52 877.56C1028.52 876.968 1028.69 876.488 1029.03 876.12C1029.38 875.736 1029.91 875.544 1030.63 875.544C1031.35 875.544 1031.88 875.736 1032.22 876.12C1032.57 876.488 1032.75 876.968 1032.75 877.56C1032.75 878.136 1032.57 878.616 1032.22 879C1031.88 879.368 1031.35 879.552 1030.63 879.552ZM1036.71 894V876.48H1040.57V894H1036.71ZM1035.15 879.312V876.48H1040.57V879.312H1035.15ZM1050.13 894.456C1049.01 894.456 1048.02 894.264 1047.16 893.88C1046.31 893.496 1045.6 892.984 1045.02 892.344C1044.46 891.688 1044.03 890.96 1043.72 890.16C1043.44 889.344 1043.29 888.512 1043.29 887.664V887.184C1043.29 886.304 1043.44 885.464 1043.72 884.664C1044.03 883.848 1044.46 883.12 1045.02 882.48C1045.58 881.84 1046.28 881.336 1047.11 880.968C1047.96 880.584 1048.92 880.392 1049.99 880.392C1051.4 880.392 1052.58 880.712 1053.54 881.352C1054.52 881.976 1055.26 882.8 1055.77 883.824C1056.28 884.832 1056.54 885.936 1056.54 887.136V888.432H1044.9V886.248H1054.21L1052.96 887.256C1052.96 886.472 1052.85 885.8 1052.63 885.24C1052.4 884.68 1052.07 884.256 1051.62 883.968C1051.19 883.664 1050.64 883.512 1049.99 883.512C1049.32 883.512 1048.75 883.664 1048.28 883.968C1047.82 884.272 1047.47 884.72 1047.23 885.312C1046.99 885.888 1046.87 886.6 1046.87 887.448C1046.87 888.232 1046.98 888.92 1047.2 889.512C1047.43 890.088 1047.78 890.536 1048.26 890.856C1048.74 891.176 1049.36 891.336 1050.13 891.336C1050.84 891.336 1051.41 891.2 1051.86 890.928C1052.31 890.656 1052.61 890.32 1052.77 889.92H1056.3C1056.11 890.8 1055.73 891.584 1055.17 892.272C1054.61 892.96 1053.91 893.496 1053.06 893.88C1052.21 894.264 1051.24 894.456 1050.13 894.456ZM1065.06 894.168C1063.73 894.168 1062.66 894.008 1061.84 893.688C1061.03 893.352 1060.43 892.8 1060.04 892.032C1059.68 891.248 1059.49 890.192 1059.49 888.864V877.296H1063.07V889.008C1063.07 889.632 1063.23 890.112 1063.55 890.448C1063.88 890.768 1064.36 890.928 1064.96 890.928H1066.91V894.168H1065.06ZM1057.5 883.656V880.848H1066.91V883.656H1057.5Z" fill="#3BA723"/>
<path d="M202.016 1069.46C200.432 1069.46 199.072 1069.18 197.936 1068.64C196.8 1068.08 195.872 1067.35 195.152 1066.46C194.432 1065.54 193.896 1064.57 193.544 1063.53C193.208 1062.47 193.04 1061.45 193.04 1060.46V1059.93C193.04 1058.84 193.216 1057.77 193.568 1056.71C193.92 1055.64 194.456 1054.67 195.176 1053.81C195.912 1052.94 196.832 1052.26 197.936 1051.74C199.056 1051.22 200.376 1050.95 201.896 1050.95C203.48 1050.95 204.88 1051.25 206.096 1051.84C207.312 1052.43 208.28 1053.26 209 1054.31C209.736 1055.35 210.168 1056.58 210.296 1057.98H206.336C206.224 1057.28 205.968 1056.68 205.568 1056.18C205.168 1055.69 204.648 1055.3 204.008 1055.03C203.384 1054.76 202.68 1054.62 201.896 1054.62C201.112 1054.62 200.416 1054.76 199.808 1055.03C199.2 1055.3 198.688 1055.69 198.272 1056.18C197.872 1056.68 197.56 1057.27 197.336 1057.96C197.128 1058.63 197.024 1059.38 197.024 1060.22C197.024 1061.03 197.128 1061.78 197.336 1062.47C197.56 1063.14 197.88 1063.74 198.296 1064.25C198.728 1064.74 199.256 1065.13 199.88 1065.4C200.504 1065.66 201.216 1065.78 202.016 1065.78C203.232 1065.78 204.256 1065.49 205.088 1064.9C205.936 1064.3 206.448 1063.49 206.624 1062.45H210.56C210.416 1063.73 209.984 1064.9 209.264 1065.98C208.56 1067.03 207.592 1067.88 206.36 1068.52C205.144 1069.14 203.696 1069.46 202.016 1069.46ZM213.123 1069V1051.48H216.987V1069H213.123ZM211.563 1054.31V1051.48H216.987V1054.31H211.563ZM226.933 1069.46C225.781 1069.46 224.757 1069.28 223.861 1068.93C222.965 1068.56 222.205 1068.06 221.581 1067.44C220.973 1066.82 220.509 1066.1 220.189 1065.3C219.869 1064.49 219.709 1063.63 219.709 1062.74V1062.18C219.709 1061.27 219.869 1060.41 220.189 1059.59C220.525 1058.76 221.005 1058.03 221.629 1057.41C222.269 1056.78 223.037 1056.3 223.933 1055.94C224.829 1055.58 225.829 1055.39 226.933 1055.39C228.069 1055.39 229.077 1055.58 229.957 1055.94C230.853 1056.3 231.613 1056.78 232.237 1057.41C232.861 1058.03 233.341 1058.76 233.677 1059.59C234.013 1060.41 234.181 1061.27 234.181 1062.18V1062.74C234.181 1063.63 234.021 1064.49 233.701 1065.3C233.381 1066.1 232.909 1066.82 232.285 1067.44C231.677 1068.06 230.925 1068.56 230.029 1068.93C229.133 1069.28 228.101 1069.46 226.933 1069.46ZM226.933 1066.22C227.685 1066.22 228.309 1066.06 228.805 1065.74C229.301 1065.42 229.677 1064.97 229.933 1064.39C230.205 1063.82 230.341 1063.18 230.341 1062.47C230.341 1061.72 230.205 1061.06 229.933 1060.5C229.661 1059.93 229.269 1059.47 228.757 1059.14C228.261 1058.8 227.653 1058.63 226.933 1058.63C226.229 1058.63 225.621 1058.8 225.109 1059.14C224.597 1059.47 224.205 1059.93 223.933 1060.5C223.677 1061.06 223.549 1061.72 223.549 1062.47C223.549 1063.18 223.677 1063.82 223.933 1064.39C224.189 1064.97 224.573 1065.42 225.085 1065.74C225.597 1066.06 226.213 1066.22 226.933 1066.22ZM244.805 1069V1065.11H244.157V1060.89C244.157 1060.22 243.997 1059.71 243.677 1059.38C243.357 1059.04 242.845 1058.87 242.141 1058.87C241.789 1058.87 241.325 1058.88 240.749 1058.9C240.173 1058.91 239.581 1058.94 238.973 1058.97C238.365 1059 237.813 1059.03 237.317 1059.06V1055.82C237.685 1055.79 238.117 1055.76 238.613 1055.73C239.109 1055.7 239.621 1055.67 240.149 1055.66C240.677 1055.64 241.173 1055.63 241.637 1055.63C242.981 1055.63 244.109 1055.82 245.021 1056.21C245.949 1056.59 246.653 1057.18 247.133 1057.96C247.613 1058.73 247.853 1059.72 247.853 1060.94V1069H244.805ZM240.605 1069.34C239.661 1069.34 238.829 1069.17 238.109 1068.83C237.405 1068.5 236.853 1068.02 236.453 1067.39C236.053 1066.75 235.853 1065.99 235.853 1065.11C235.853 1064.15 236.101 1063.37 236.597 1062.76C237.093 1062.14 237.789 1061.68 238.685 1061.39C239.581 1061.09 240.613 1060.94 241.781 1060.94H244.589V1063.07H241.757C241.085 1063.07 240.565 1063.24 240.197 1063.58C239.845 1063.9 239.669 1064.34 239.669 1064.9C239.669 1065.42 239.845 1065.86 240.197 1066.19C240.565 1066.51 241.085 1066.67 241.757 1066.67C242.189 1066.67 242.573 1066.6 242.909 1066.46C243.261 1066.3 243.549 1066.03 243.773 1065.66C243.997 1065.3 244.125 1064.78 244.157 1064.13L245.069 1065.09C244.989 1066 244.765 1066.77 244.397 1067.39C244.045 1068.02 243.549 1068.5 242.909 1068.83C242.285 1069.17 241.517 1069.34 240.605 1069.34ZM260.375 1069L256.223 1062.86H254.375L259.727 1055.85H263.759L258.719 1062.38L258.767 1060.5L264.695 1069H260.375ZM251.111 1069V1051.48H254.951V1069H251.111ZM266.44 1069V1055.85H269.488V1061.49H269.416C269.416 1059.63 269.808 1058.2 270.592 1057.19C271.392 1056.18 272.544 1055.68 274.048 1055.68H274.552V1058.99H273.592C272.536 1058.99 271.72 1059.28 271.144 1059.86C270.568 1060.42 270.28 1061.23 270.28 1062.3V1069H266.44ZM282.879 1069.46C281.727 1069.46 280.703 1069.28 279.807 1068.93C278.911 1068.56 278.151 1068.06 277.527 1067.44C276.919 1066.82 276.455 1066.1 276.135 1065.3C275.815 1064.49 275.655 1063.63 275.655 1062.74V1062.18C275.655 1061.27 275.815 1060.41 276.135 1059.59C276.471 1058.76 276.951 1058.03 277.575 1057.41C278.215 1056.78 278.983 1056.3 279.879 1055.94C280.775 1055.58 281.775 1055.39 282.879 1055.39C284.015 1055.39 285.023 1055.58 285.903 1055.94C286.799 1056.3 287.559 1056.78 288.183 1057.41C288.807 1058.03 289.287 1058.76 289.623 1059.59C289.959 1060.41 290.127 1061.27 290.127 1062.18V1062.74C290.127 1063.63 289.967 1064.49 289.647 1065.3C289.327 1066.1 288.855 1066.82 288.231 1067.44C287.623 1068.06 286.871 1068.56 285.975 1068.93C285.079 1069.28 284.047 1069.46 282.879 1069.46ZM282.879 1066.22C283.631 1066.22 284.255 1066.06 284.751 1065.74C285.247 1065.42 285.623 1064.97 285.879 1064.39C286.151 1063.82 286.287 1063.18 286.287 1062.47C286.287 1061.72 286.151 1061.06 285.879 1060.5C285.607 1059.93 285.215 1059.47 284.703 1059.14C284.207 1058.8 283.599 1058.63 282.879 1058.63C282.175 1058.63 281.567 1058.8 281.055 1059.14C280.543 1059.47 280.151 1059.93 279.879 1060.5C279.623 1061.06 279.495 1061.72 279.495 1062.47C279.495 1063.18 279.623 1063.82 279.879 1064.39C280.135 1064.97 280.519 1065.42 281.031 1065.74C281.543 1066.06 282.159 1066.22 282.879 1066.22ZM299.215 1069.46C298.063 1069.46 297.039 1069.28 296.143 1068.93C295.247 1068.56 294.487 1068.06 293.863 1067.44C293.255 1066.82 292.791 1066.1 292.471 1065.3C292.151 1064.49 291.991 1063.63 291.991 1062.74V1062.18C291.991 1061.27 292.151 1060.41 292.471 1059.59C292.807 1058.76 293.287 1058.03 293.911 1057.41C294.551 1056.78 295.319 1056.3 296.215 1055.94C297.111 1055.58 298.111 1055.39 299.215 1055.39C300.351 1055.39 301.359 1055.58 302.239 1055.94C303.135 1056.3 303.895 1056.78 304.519 1057.41C305.143 1058.03 305.623 1058.76 305.959 1059.59C306.295 1060.41 306.463 1061.27 306.463 1062.18V1062.74C306.463 1063.63 306.303 1064.49 305.983 1065.3C305.663 1066.1 305.191 1066.82 304.567 1067.44C303.959 1068.06 303.207 1068.56 302.311 1068.93C301.415 1069.28 300.383 1069.46 299.215 1069.46ZM299.215 1066.22C299.967 1066.22 300.591 1066.06 301.087 1065.74C301.583 1065.42 301.959 1064.97 302.215 1064.39C302.487 1063.82 302.623 1063.18 302.623 1062.47C302.623 1061.72 302.487 1061.06 302.215 1060.5C301.943 1059.93 301.551 1059.47 301.039 1059.14C300.543 1058.8 299.935 1058.63 299.215 1058.63C298.511 1058.63 297.903 1058.8 297.391 1059.14C296.879 1059.47 296.487 1059.93 296.215 1060.5C295.959 1061.06 295.831 1061.72 295.831 1062.47C295.831 1063.18 295.959 1063.82 296.215 1064.39C296.471 1064.97 296.855 1065.42 297.367 1065.74C297.879 1066.06 298.495 1066.22 299.215 1066.22ZM309.143 1069V1055.85H312.191V1061.51H311.975C311.975 1060.17 312.143 1059.05 312.479 1058.15C312.815 1057.26 313.319 1056.58 313.991 1056.14C314.663 1055.67 315.487 1055.44 316.463 1055.44H316.631C317.623 1055.44 318.447 1055.67 319.103 1056.14C319.775 1056.58 320.279 1057.26 320.615 1058.15C320.967 1059.05 321.143 1060.17 321.143 1061.51H320.207C320.207 1060.17 320.375 1059.05 320.711 1058.15C321.063 1057.26 321.575 1056.58 322.247 1056.14C322.919 1055.67 323.743 1055.44 324.719 1055.44H324.887C325.879 1055.44 326.711 1055.67 327.383 1056.14C328.071 1056.58 328.591 1057.26 328.943 1058.15C329.295 1059.05 329.471 1060.17 329.471 1061.51V1069H325.631V1061.3C325.631 1060.58 325.439 1059.99 325.055 1059.54C324.687 1059.1 324.159 1058.87 323.471 1058.87C322.783 1058.87 322.239 1059.1 321.839 1059.57C321.439 1060.02 321.239 1060.62 321.239 1061.37V1069H317.375V1061.3C317.375 1060.58 317.183 1059.99 316.799 1059.54C316.431 1059.1 315.911 1058.87 315.239 1058.87C314.535 1058.87 313.983 1059.1 313.583 1059.57C313.183 1060.02 312.983 1060.62 312.983 1061.37V1069H309.143Z" fill="#3BA723"/>
<g clip-path="url(#clip3_147_59)">
<path d="M262.693 788.793C267.047 788.793 270.576 785.259 270.576 780.9C270.576 776.541 267.047 773.007 262.693 773.007C258.34 773.007 254.811 776.541 254.811 780.9C254.811 785.259 258.34 788.793 262.693 788.793Z" fill="#3BA723"/>
<path d="M254.326 790.979C248.264 790.979 244.381 796.234 244.381 801.422V825.709C244.325 830.454 251.15 830.454 251.172 825.709V803.365H252.87V865.053C252.765 871.494 261.854 871.309 261.844 865.053V829.109H263.3V865.053C263.418 871.309 272.555 871.494 272.516 865.053V803.365H274.214V825.709C274.134 830.491 280.923 830.491 281.005 825.709V801.422C280.908 796.234 276.88 791.072 270.818 790.979H254.326Z" fill="#3BA723"/>
</g>
<path d="M231.71 893V878.432H235.646V893H231.71ZM226.79 878.912V875.48H240.59V878.912H226.79ZM247.594 893.456C246.442 893.456 245.418 893.28 244.522 892.928C243.626 892.56 242.866 892.064 242.242 891.44C241.634 890.816 241.17 890.104 240.85 889.304C240.53 888.488 240.37 887.632 240.37 886.736V886.184C240.37 885.272 240.53 884.408 240.85 883.592C241.186 882.76 241.666 882.032 242.29 881.408C242.93 880.784 243.698 880.296 244.594 879.944C245.49 879.576 246.49 879.392 247.594 879.392C248.73 879.392 249.738 879.576 250.618 879.944C251.514 880.296 252.274 880.784 252.898 881.408C253.522 882.032 254.002 882.76 254.338 883.592C254.674 884.408 254.842 885.272 254.842 886.184V886.736C254.842 887.632 254.682 888.488 254.362 889.304C254.042 890.104 253.57 890.816 252.946 891.44C252.338 892.064 251.586 892.56 250.69 892.928C249.794 893.28 248.762 893.456 247.594 893.456ZM247.594 890.216C248.346 890.216 248.97 890.056 249.466 889.736C249.962 889.416 250.338 888.968 250.594 888.392C250.866 887.816 251.002 887.176 251.002 886.472C251.002 885.72 250.866 885.064 250.594 884.504C250.322 883.928 249.93 883.472 249.418 883.136C248.922 882.8 248.314 882.632 247.594 882.632C246.89 882.632 246.282 882.8 245.77 883.136C245.258 883.472 244.866 883.928 244.594 884.504C244.338 885.064 244.21 885.72 244.21 886.472C244.21 887.176 244.338 887.816 244.594 888.392C244.85 888.968 245.234 889.416 245.746 889.736C246.258 890.056 246.874 890.216 247.594 890.216ZM258.146 893V879.848H261.986V893H258.146ZM256.394 882.68V879.848H261.986V882.68H256.394ZM259.634 878.552C258.914 878.552 258.378 878.368 258.026 878C257.69 877.616 257.522 877.136 257.522 876.56C257.522 875.968 257.69 875.488 258.026 875.12C258.378 874.736 258.914 874.544 259.634 874.544C260.354 874.544 260.882 874.736 261.218 875.12C261.57 875.488 261.746 875.968 261.746 876.56C261.746 877.136 261.57 877.616 261.218 878C260.882 878.368 260.354 878.552 259.634 878.552ZM265.705 893V875.48H269.569V893H265.705ZM264.145 878.312V875.48H269.569V878.312H264.145ZM279.131 893.456C278.011 893.456 277.019 893.264 276.155 892.88C275.307 892.496 274.595 891.984 274.019 891.344C273.459 890.688 273.027 889.96 272.723 889.16C272.435 888.344 272.291 887.512 272.291 886.664V886.184C272.291 885.304 272.435 884.464 272.723 883.664C273.027 882.848 273.459 882.12 274.019 881.48C274.579 880.84 275.275 880.336 276.107 879.968C276.955 879.584 277.915 879.392 278.987 879.392C280.395 879.392 281.579 879.712 282.539 880.352C283.515 880.976 284.259 881.8 284.771 882.824C285.283 883.832 285.539 884.936 285.539 886.136V887.432H273.899V885.248H283.211L281.963 886.256C281.963 885.472 281.851 884.8 281.627 884.24C281.403 883.68 281.067 883.256 280.619 882.968C280.187 882.664 279.643 882.512 278.987 882.512C278.315 882.512 277.747 882.664 277.283 882.968C276.819 883.272 276.467 883.72 276.227 884.312C275.987 884.888 275.867 885.6 275.867 886.448C275.867 887.232 275.979 887.92 276.203 888.512C276.427 889.088 276.779 889.536 277.259 889.856C277.739 890.176 278.363 890.336 279.131 890.336C279.835 890.336 280.411 890.2 280.859 889.928C281.307 889.656 281.611 889.32 281.771 888.92H285.299C285.107 889.8 284.731 890.584 284.171 891.272C283.611 891.96 282.907 892.496 282.059 892.88C281.211 893.264 280.235 893.456 279.131 893.456ZM294.06 893.168C292.732 893.168 291.66 893.008 290.844 892.688C290.028 892.352 289.428 891.8 289.044 891.032C288.676 890.248 288.492 889.192 288.492 887.864V876.296H292.068V888.008C292.068 888.632 292.228 889.112 292.548 889.448C292.884 889.768 293.356 889.928 293.964 889.928H295.908V893.168H294.06ZM286.5 882.656V879.848H295.908V882.656H286.5Z" fill="#3BA723"/>
<rect x="462" y="1100" width="59" height="102" stroke="#FF6500" stroke-width="6"/>
<line x1="465" y1="1189.5" x2="518" y2="1189.5" stroke="#FF6500" stroke-width="3"/>
<line x1="465" y1="1177.5" x2="518" y2="1177.5" stroke="#FF6500" stroke-width="3"/>
<line x1="465" y1="1165.5" x2="518" y2="1165.5" stroke="#FF6500" stroke-width="3"/>
<line x1="465" y1="1153.5" x2="518" y2="1153.5" stroke="#FF6500" stroke-width="3"/>
<line x1="465" y1="1141.5" x2="518" y2="1141.5" stroke="#FF6500" stroke-width="3"/>
<line x1="465" y1="1129.5" x2="518" y2="1129.5" stroke="#FF6500" stroke-width="3"/>
<path d="M1002.26 726V720C1002.26 718.747 1002.46 717.653 1002.86 716.72C1003.29 715.787 1003.96 714.96 1004.86 714.24C1005.77 713.493 1006.97 712.8 1008.46 712.16L1013.18 710.12C1014.38 709.613 1015.26 708.987 1015.82 708.24C1016.41 707.493 1016.7 706.547 1016.7 705.4C1016.7 704.227 1016.34 703.267 1015.62 702.52C1014.9 701.773 1013.85 701.4 1012.46 701.4C1011.08 701.4 1010.02 701.787 1009.3 702.56C1008.58 703.333 1008.22 704.373 1008.22 705.68H1001.86C1001.86 703.84 1002.26 702.187 1003.06 700.72C1003.86 699.227 1005.05 698.053 1006.62 697.2C1008.2 696.347 1010.14 695.92 1012.46 695.92C1014.78 695.92 1016.72 696.333 1018.26 697.16C1019.84 697.987 1021.02 699.093 1021.82 700.48C1022.65 701.867 1023.06 703.427 1023.06 705.16V705.64C1023.06 707.88 1022.45 709.733 1021.22 711.2C1020 712.64 1018.1 713.92 1015.54 715.04L1010.86 717.08C1010.06 717.427 1009.49 717.787 1009.14 718.16C1008.82 718.533 1008.66 719.04 1008.66 719.68V721.68L1007.1 720.36H1023.1V726H1002.26Z" fill="#5E00FF"/>
<path d="M340.13 167.84C337.97 167.84 336.116 167.493 334.57 166.8C333.023 166.08 331.756 165.08 330.77 163.8C329.81 162.493 329.09 161 328.61 159.32C328.156 157.64 327.93 155.84 327.93 153.92V152.24C327.93 147.387 329.17 143.733 331.65 141.28C334.13 138.8 337.783 137.56 342.61 137.56C343.596 137.56 344.57 137.587 345.53 137.64C346.49 137.693 347.423 137.773 348.33 137.88V143.36C347.45 143.28 346.503 143.213 345.49 143.16C344.476 143.08 343.436 143.04 342.37 143.04C340.236 143.04 338.556 143.4 337.33 144.12C336.103 144.813 335.236 145.867 334.73 147.28C334.223 148.693 333.97 150.44 333.97 152.52V155.56L332.53 156.52C332.556 154.52 332.956 152.853 333.73 151.52C334.53 150.16 335.623 149.147 337.01 148.48C338.396 147.813 339.996 147.48 341.81 147.48C343.863 147.48 345.636 147.893 347.13 148.72C348.623 149.52 349.77 150.653 350.57 152.12C351.37 153.587 351.77 155.32 351.77 157.32C351.77 159.427 351.29 161.28 350.33 162.88C349.37 164.453 348.01 165.68 346.25 166.56C344.516 167.413 342.476 167.84 340.13 167.84ZM339.93 162.4C341.103 162.4 342.09 162.187 342.89 161.76C343.716 161.333 344.343 160.76 344.77 160.04C345.223 159.293 345.45 158.427 345.45 157.44C345.45 156.427 345.236 155.56 344.81 154.84C344.383 154.093 343.77 153.52 342.97 153.12C342.196 152.693 341.236 152.48 340.09 152.48C339.05 152.48 338.09 152.667 337.21 153.04C336.356 153.387 335.676 153.933 335.17 154.68C334.663 155.4 334.41 156.32 334.41 157.44C334.41 158.4 334.61 159.253 335.01 160C335.436 160.747 336.063 161.333 336.89 161.76C337.716 162.187 338.73 162.4 339.93 162.4Z" fill="#5E00FF"/>
<path d="M489.072 453L499.312 429.76L498.872 429.16H484.672V423.8H506.792V427.96L496.032 453H489.072ZM484.672 433.88V423.8H489.992V433.88H484.672Z" fill="#5E00FF"/>
<path d="M405.263 1166.76C402.997 1166.76 401.023 1166.35 399.343 1165.52C397.69 1164.67 396.423 1163.52 395.543 1162.08C394.663 1160.64 394.223 1159.01 394.223 1157.2H400.543C400.543 1158.43 400.957 1159.43 401.783 1160.2C402.61 1160.95 403.77 1161.32 405.263 1161.32C406.25 1161.32 407.09 1161.13 407.783 1160.76C408.477 1160.39 409.01 1159.88 409.383 1159.24C409.757 1158.57 409.943 1157.83 409.943 1157C409.943 1155.72 409.53 1154.67 408.703 1153.84C407.903 1153.01 406.757 1152.6 405.263 1152.6C404.463 1152.6 403.757 1152.72 403.143 1152.96C402.557 1153.2 402.05 1153.49 401.623 1153.84L398.663 1148.84L407.503 1143.08L407.143 1142.4H395.423V1136.8H415.103V1142.88L404.903 1149.36L401.703 1148.48C402.237 1148.32 402.797 1148.2 403.383 1148.12C403.997 1148.01 404.65 1147.96 405.343 1147.96C407.61 1147.96 409.557 1148.33 411.183 1149.08C412.81 1149.83 414.063 1150.88 414.943 1152.24C415.85 1153.57 416.303 1155.13 416.303 1156.92V1157.4C416.303 1159.19 415.85 1160.79 414.943 1162.2C414.063 1163.61 412.797 1164.73 411.143 1165.56C409.517 1166.36 407.557 1166.76 405.263 1166.76Z" fill="#5E00FF"/>
<path d="M682.669 857.76C680.349 857.76 678.349 857.32 676.669 856.44C674.989 855.533 673.696 854.32 672.789 852.8C671.909 851.28 671.469 849.6 671.469 847.76H677.789C677.789 848.667 677.989 849.467 678.389 850.16C678.816 850.827 679.402 851.36 680.149 851.76C680.896 852.133 681.749 852.32 682.709 852.32C683.776 852.32 684.669 852.107 685.389 851.68C686.136 851.227 686.709 850.627 687.109 849.88C687.509 849.107 687.709 848.24 687.709 847.28C687.709 846.293 687.509 845.427 687.109 844.68C686.736 843.907 686.176 843.293 685.429 842.84C684.709 842.387 683.829 842.16 682.789 842.16C681.829 842.16 680.962 842.36 680.189 842.76C679.416 843.16 678.842 843.667 678.469 844.28H672.309L673.789 827.8H691.509V833.4H676.389L678.909 831.72L678.029 841.2L676.509 840.8C677.309 839.84 678.269 839.04 679.389 838.4C680.536 837.733 682.029 837.4 683.869 837.4C686.002 837.4 687.816 837.84 689.309 838.72C690.829 839.573 691.989 840.733 692.789 842.2C693.616 843.64 694.029 845.253 694.029 847.04V847.56C694.029 849.347 693.589 851.013 692.709 852.56C691.829 854.107 690.536 855.36 688.829 856.32C687.149 857.28 685.096 857.76 682.669 857.76Z" fill="#5E00FF"/>
<path d="M363.071 685.2V680.08H369.911C371.138 680.08 372.058 679.76 372.671 679.12C373.285 678.48 373.591 677.573 373.591 676.4C373.591 675.227 373.285 674.333 372.671 673.72C372.058 673.08 371.138 672.76 369.911 672.76H363.071V668.8H369.591C371.618 668.8 373.418 669.053 374.991 669.56C376.565 670.04 377.805 670.827 378.711 671.92C379.618 673.013 380.071 674.493 380.071 676.36V676.92C380.071 678.653 379.671 680.147 378.871 681.4C378.071 682.627 376.898 683.573 375.351 684.24C373.805 684.88 371.885 685.2 369.591 685.2H363.071ZM357.471 685.2V655.56H363.871V685.2H357.471ZM363.071 671.72V667.8H368.831C370.085 667.8 370.991 667.48 371.551 666.84C372.111 666.2 372.391 665.347 372.391 664.28C372.391 663.16 372.111 662.28 371.551 661.64C370.991 661 370.085 660.68 368.831 660.68H363.071V655.56H368.431C371.791 655.56 374.365 656.267 376.151 657.68C377.965 659.093 378.871 661.107 378.871 663.72V664.32C378.871 666.133 378.405 667.587 377.471 668.68C376.565 669.773 375.325 670.56 373.751 671.04C372.205 671.493 370.431 671.72 368.431 671.72H363.071ZM395.291 685.76C393.371 685.76 391.665 685.467 390.171 684.88C388.678 684.267 387.411 683.44 386.371 682.4C385.358 681.36 384.585 680.173 384.051 678.84C383.518 677.48 383.251 676.053 383.251 674.56V673.64C383.251 672.12 383.518 670.68 384.051 669.32C384.611 667.933 385.411 666.72 386.451 665.68C387.518 664.64 388.798 663.827 390.291 663.24C391.785 662.627 393.451 662.32 395.291 662.32C397.185 662.32 398.865 662.627 400.331 663.24C401.825 663.827 403.091 664.64 404.131 665.68C405.171 666.72 405.971 667.933 406.531 669.32C407.091 670.68 407.371 672.12 407.371 673.64V674.56C407.371 676.053 407.105 677.48 406.571 678.84C406.038 680.173 405.251 681.36 404.211 682.4C403.198 683.44 401.945 684.267 400.451 684.88C398.958 685.467 397.238 685.76 395.291 685.76ZM395.291 680.36C396.545 680.36 397.585 680.093 398.411 679.56C399.238 679.027 399.865 678.28 400.291 677.32C400.745 676.36 400.971 675.293 400.971 674.12C400.971 672.867 400.745 671.773 400.291 670.84C399.838 669.88 399.185 669.12 398.331 668.56C397.505 668 396.491 667.72 395.291 667.72C394.118 667.72 393.105 668 392.251 668.56C391.398 669.12 390.745 669.88 390.291 670.84C389.865 671.773 389.651 672.867 389.651 674.12C389.651 675.293 389.865 676.36 390.291 677.32C390.718 678.28 391.358 679.027 392.211 679.56C393.065 680.093 394.091 680.36 395.291 680.36ZM422.518 685.76C420.598 685.76 418.891 685.467 417.398 684.88C415.905 684.267 414.638 683.44 413.598 682.4C412.585 681.36 411.811 680.173 411.278 678.84C410.745 677.48 410.478 676.053 410.478 674.56V673.64C410.478 672.12 410.745 670.68 411.278 669.32C411.838 667.933 412.638 666.72 413.678 665.68C414.745 664.64 416.025 663.827 417.518 663.24C419.011 662.627 420.678 662.32 422.518 662.32C424.411 662.32 426.091 662.627 427.558 663.24C429.051 663.827 430.318 664.64 431.358 665.68C432.398 666.72 433.198 667.933 433.758 669.32C434.318 670.68 434.598 672.12 434.598 673.64V674.56C434.598 676.053 434.331 677.48 433.798 678.84C433.265 680.173 432.478 681.36 431.438 682.4C430.425 683.44 429.171 684.267 427.678 684.88C426.185 685.467 424.465 685.76 422.518 685.76ZM422.518 680.36C423.771 680.36 424.811 680.093 425.638 679.56C426.465 679.027 427.091 678.28 427.518 677.32C427.971 676.36 428.198 675.293 428.198 674.12C428.198 672.867 427.971 671.773 427.518 670.84C427.065 669.88 426.411 669.12 425.558 668.56C424.731 668 423.718 667.72 422.518 667.72C421.345 667.72 420.331 668 419.478 668.56C418.625 669.12 417.971 669.88 417.518 670.84C417.091 671.773 416.878 672.867 416.878 674.12C416.878 675.293 417.091 676.36 417.518 677.32C417.945 678.28 418.585 679.027 419.438 679.56C420.291 680.093 421.318 680.36 422.518 680.36ZM449.025 685.28C446.811 685.28 445.025 685.013 443.665 684.48C442.305 683.92 441.305 683 440.665 681.72C440.051 680.413 439.745 678.653 439.745 676.44V657.16H445.705V676.68C445.705 677.72 445.971 678.52 446.505 679.08C447.065 679.613 447.851 679.88 448.865 679.88H452.105V685.28H449.025ZM436.425 667.76V663.08H452.105V667.76H436.425ZM456.408 685V655.8H462.808V672.64H461.848C461.848 670.427 462.128 668.56 462.688 667.04C463.248 665.52 464.075 664.373 465.168 663.6C466.262 662.8 467.635 662.4 469.288 662.4H469.568C471.995 662.4 473.848 663.267 475.128 665C476.408 666.707 477.048 669.213 477.048 672.52V685H470.648V672.12C470.648 670.92 470.288 669.96 469.568 669.24C468.875 668.493 467.955 668.12 466.808 668.12C465.608 668.12 464.635 668.507 463.888 669.28C463.168 670.053 462.808 671.08 462.808 672.36V685H456.408ZM490.822 685.68C487.702 685.68 485.262 685.04 483.502 683.76C481.742 682.48 480.809 680.68 480.702 678.36H486.382C486.489 679.053 486.902 679.68 487.622 680.24C488.369 680.773 489.475 681.04 490.942 681.04C492.062 681.04 492.982 680.853 493.702 680.48C494.449 680.08 494.822 679.52 494.822 678.8C494.822 678.16 494.542 677.653 493.982 677.28C493.422 676.88 492.422 676.6 490.982 676.44L489.262 676.28C486.622 676.013 484.635 675.28 483.302 674.08C481.995 672.88 481.342 671.347 481.342 669.48C481.342 667.933 481.729 666.64 482.502 665.6C483.275 664.56 484.342 663.773 485.702 663.24C487.089 662.707 488.662 662.44 490.422 662.44C493.249 662.44 495.529 663.067 497.262 664.32C498.995 665.547 499.902 667.333 499.982 669.68H494.302C494.195 668.96 493.822 668.36 493.182 667.88C492.542 667.373 491.595 667.12 490.342 667.12C489.355 667.12 488.569 667.307 487.982 667.68C487.395 668.053 487.102 668.56 487.102 669.2C487.102 669.813 487.355 670.28 487.862 670.6C488.369 670.92 489.195 671.147 490.342 671.28L492.062 671.44C494.755 671.733 496.849 672.48 498.342 673.68C499.835 674.88 500.582 676.493 500.582 678.52C500.582 679.987 500.182 681.267 499.382 682.36C498.582 683.427 497.449 684.253 495.982 684.84C494.515 685.4 492.795 685.68 490.822 685.68Z" fill="#FE61E6"/>
<path d="M713.382 1075.4V1068.56L724.463 1050.96L729.543 1054.28L720.063 1069.36L720.623 1070.2H738.103V1075.4H713.382ZM728.703 1081V1059.96H734.743V1081H728.703Z" fill="#5E00FF"/>
<path d="M1138.76 316V286.8H1147.8L1154.48 303.2H1155.24L1161.84 286.8H1171.04V316H1164.56V291.08L1165.48 291.16L1157.76 310.08H1151.52L1143.76 291.16L1144.76 291.08V316H1138.76ZM1190.47 316V309.52H1189.39V302.48C1189.39 301.36 1189.13 300.52 1188.59 299.96C1188.06 299.4 1187.21 299.12 1186.03 299.12C1185.45 299.12 1184.67 299.133 1183.71 299.16C1182.75 299.187 1181.77 299.227 1180.75 299.28C1179.74 299.333 1178.82 299.387 1177.99 299.44V294.04C1178.61 293.987 1179.33 293.933 1180.15 293.88C1180.98 293.827 1181.83 293.787 1182.71 293.76C1183.59 293.733 1184.42 293.72 1185.19 293.72C1187.43 293.72 1189.31 294.04 1190.83 294.68C1192.38 295.32 1193.55 296.293 1194.35 297.6C1195.15 298.88 1195.55 300.533 1195.55 302.56V316H1190.47ZM1183.47 316.56C1181.9 316.56 1180.51 316.28 1179.31 315.72C1178.14 315.16 1177.22 314.36 1176.55 313.32C1175.89 312.253 1175.55 310.987 1175.55 309.52C1175.55 307.92 1175.97 306.613 1176.79 305.6C1177.62 304.56 1178.78 303.8 1180.27 303.32C1181.77 302.813 1183.49 302.56 1185.43 302.56H1190.11V306.12H1185.39C1184.27 306.12 1183.41 306.4 1182.79 306.96C1182.21 307.493 1181.91 308.227 1181.91 309.16C1181.91 310.04 1182.21 310.76 1182.79 311.32C1183.41 311.853 1184.27 312.12 1185.39 312.12C1186.11 312.12 1186.75 312 1187.31 311.76C1187.9 311.493 1188.38 311.053 1188.75 310.44C1189.13 309.827 1189.34 308.973 1189.39 307.88L1190.91 309.48C1190.78 311 1190.41 312.28 1189.79 313.32C1189.21 314.36 1188.38 315.16 1187.31 315.72C1186.27 316.28 1184.99 316.56 1183.47 316.56ZM1202.02 316V294.08H1208.42V316H1202.02ZM1199.1 298.8V294.08H1208.42V298.8H1199.1ZM1204.5 291.92C1203.3 291.92 1202.41 291.613 1201.82 291C1201.26 290.36 1200.98 289.56 1200.98 288.6C1200.98 287.613 1201.26 286.813 1201.82 286.2C1202.41 285.56 1203.3 285.24 1204.5 285.24C1205.7 285.24 1206.58 285.56 1207.14 286.2C1207.73 286.813 1208.02 287.613 1208.02 288.6C1208.02 289.56 1207.73 290.36 1207.14 291C1206.58 291.613 1205.7 291.92 1204.5 291.92ZM1214.34 316V294.08H1219.42V303.48H1219.06C1219.06 301.24 1219.34 299.373 1219.9 297.88C1220.49 296.387 1221.37 295.267 1222.54 294.52C1223.72 293.773 1225.14 293.4 1226.82 293.4H1227.1C1229.66 293.4 1231.61 294.24 1232.94 295.92C1234.3 297.573 1234.98 300.093 1234.98 303.48V316H1228.58V303.12C1228.58 301.947 1228.24 300.987 1227.54 300.24C1226.85 299.493 1225.92 299.12 1224.74 299.12C1223.54 299.12 1222.57 299.507 1221.82 300.28C1221.1 301.027 1220.74 302.013 1220.74 303.24V316H1214.34Z" fill="#5E00FF"/>
<defs>
<clipPath id="clip0_147_59">
<rect width="105" height="97" fill="white" transform="translate(1011 949)"/>
</clipPath>
<clipPath id="clip1_147_59">
<rect width="105" height="97" fill="white" transform="translate(169 949)"/>
</clipPath>
<clipPath id="clip2_147_59">
<rect width="105" height="97" fill="white" transform="translate(1011 774)"/>
</clipPath>
<clipPath id="clip3_147_59">
<rect width="105" height="97" fill="white" transform="translate(176 773)"/>
</clipPath>
</defs>
</svg>
