<svg width="1452" height="1402" viewBox="0 0 1452 1402" fill="none" xmlns="http://www.w3.org/2000/svg">
<rect width="1452" height="1402" fill="white"/>
<line x1="362.008" y1="1313.5" x2="545.008" y2="1313.5" stroke="#FF6500" stroke-width="15"/>
<line x1="546.508" y1="1112" x2="546.5" y2="1321" stroke="#FF6500" stroke-width="15"/>
<line x1="1007.01" y1="930.5" x2="1190.01" y2="930.5" stroke="#FF6500" stroke-width="15"/>
<line x1="873.008" y1="930.5" x2="949.008" y2="930.5" stroke="#FF6500" stroke-width="15"/>
<line x1="879.508" y1="1081" x2="879.508" y2="1107" stroke="#FF6500" stroke-width="15"/>
<line x1="1197.5" y1="742" x2="1197.51" y2="1112" stroke="#FF6500" stroke-width="15"/>
<line x1="1049.51" y1="501" x2="1049.51" y2="757" stroke="#FF6500" stroke-width="15"/>
<line x1="369.5" y1="919" x2="369.5" y2="1011" stroke="#FF6500" stroke-width="15"/>
<line x1="369.508" y1="1118" x2="369.508" y2="1321" stroke="#FF6500" stroke-width="15"/>
<line x1="369.5" y1="1089" x2="369.5" y2="1118" stroke="#FF6500" stroke-width="15"/>
<line x1="368.008" y1="926.5" x2="415.008" y2="926.5" stroke="#FF6500" stroke-width="15"/>
<line x1="341" y1="926.5" x2="388" y2="926.5" stroke="#FF6500" stroke-width="15"/>
<line x1="880.508" y1="639.02" x2="879.505" y2="1018.02" stroke="#FF6500" stroke-width="15"/>
<line x1="880.508" y1="501" x2="880.508" y2="580" stroke="#FF6500" stroke-width="15"/>
<line x1="723.508" y1="501" x2="723.508" y2="757" stroke="#FF6500" stroke-width="15"/>
<line x1="723.508" y1="757" x2="723.508" y2="934" stroke="#FF6500" stroke-width="15"/>
<line x1="390.508" y1="757" x2="390.508" y2="934" stroke="#FF6500" stroke-width="15"/>
<line x1="651.008" y1="493.5" x2="932.008" y2="493.5" stroke="#FF6500" stroke-width="15"/>
<line x1="468.008" y1="493.5" x2="598.008" y2="493.5" stroke="#FF6500" stroke-width="15"/>
<line x1="993.008" y1="493.5" x2="1297.01" y2="493.5" stroke="#FF6500" stroke-width="15"/>
<line x1="1298.5" y1="81.9999" x2="1298.51" y2="501" stroke="#FF6500" stroke-width="15"/>
<line x1="274.008" y1="89.5" x2="1291.01" y2="89.5" stroke="#FF6500" stroke-width="15"/>
<line x1="274.009" y1="493.5" x2="411.009" y2="493.5" stroke="#FF6500" stroke-width="15"/>
<line x1="144.009" y1="493.5" x2="274.009" y2="493.5" stroke="#FF6500" stroke-width="15"/>
<line x1="281.509" y1="91" x2="281.509" y2="274" stroke="#FF6500" stroke-width="15"/>
<line x1="281.509" y1="326" x2="281.509" y2="501" stroke="#FF6500" stroke-width="15"/>
<line x1="147.5" y1="486" x2="147.509" y2="1118" stroke="#FF6500" stroke-width="15"/>
<line x1="146.009" y1="749.5" x2="415.009" y2="749.5" stroke="#FF6500" stroke-width="15"/>
<line x1="140.009" y1="1110.5" x2="368.009" y2="1110.5" stroke="#FF6500" stroke-width="15"/>
<line x1="539.008" y1="1104.5" x2="1196.01" y2="1104.5" stroke="#FF6500" stroke-width="15"/>
<line x1="468.008" y1="749.5" x2="716.008" y2="749.5" stroke="#FF6500" stroke-width="15"/>
<line x1="873.008" y1="749.5" x2="1190.01" y2="749.5" stroke="#FF6500" stroke-width="15"/>
<line x1="468.008" y1="926.5" x2="716.008" y2="926.5" stroke="#FF6500" stroke-width="15"/>
<line x1="150" y1="926.5" x2="294" y2="926.5" stroke="#FF6500" stroke-width="15"/>
<path d="M484.746 339V245.56H513.674L535.05 298.04H537.482L558.602 245.56H588.042V339H567.306V259.256L570.25 259.512L545.546 320.056H525.578L500.746 259.512L503.946 259.256V339H484.746ZM650.212 339V318.264H646.756V295.736C646.756 292.152 645.903 289.464 644.196 287.672C642.489 285.88 639.759 284.984 636.004 284.984C634.127 284.984 631.652 285.027 628.58 285.112C625.508 285.197 622.351 285.325 619.108 285.496C615.865 285.667 612.921 285.837 610.276 286.008V268.728C612.239 268.557 614.543 268.387 617.188 268.216C619.833 268.045 622.564 267.917 625.38 267.832C628.196 267.747 630.841 267.704 633.316 267.704C640.484 267.704 646.5 268.728 651.364 270.776C656.313 272.824 660.068 275.939 662.628 280.12C665.188 284.216 666.468 289.507 666.468 295.992V339H650.212ZM627.812 340.792C622.777 340.792 618.34 339.896 614.5 338.104C610.745 336.312 607.801 333.752 605.668 330.424C603.535 327.011 602.468 322.957 602.468 318.264C602.468 313.144 603.791 308.963 606.436 305.72C609.081 302.392 612.793 299.96 617.572 298.424C622.351 296.803 627.855 295.992 634.084 295.992H649.06V307.384H633.956C630.372 307.384 627.599 308.28 625.636 310.072C623.759 311.779 622.82 314.125 622.82 317.112C622.82 319.928 623.759 322.232 625.636 324.024C627.599 325.731 630.372 326.584 633.956 326.584C636.26 326.584 638.308 326.2 640.1 325.432C641.977 324.579 643.513 323.171 644.708 321.208C645.903 319.245 646.585 316.515 646.756 313.016L651.62 318.136C651.193 323 649.999 327.096 648.036 330.424C646.159 333.752 643.513 336.312 640.1 338.104C636.772 339.896 632.676 340.792 627.812 340.792ZM687.172 339V268.856H707.652V339H687.172ZM677.828 283.96V268.856H707.652V283.96H677.828ZM695.108 261.944C691.268 261.944 688.409 260.963 686.532 259C684.74 256.952 683.844 254.392 683.844 251.32C683.844 248.163 684.74 245.603 686.532 243.64C688.409 241.592 691.268 240.568 695.108 240.568C698.948 240.568 701.764 241.592 703.556 243.64C705.433 245.603 706.372 248.163 706.372 251.32C706.372 254.392 705.433 256.952 703.556 259C701.764 260.963 698.948 261.944 695.108 261.944ZM726.594 339V268.856H742.85V298.936H741.698C741.698 291.768 742.594 285.795 744.386 281.016C746.263 276.237 749.079 272.653 752.834 270.264C756.589 267.875 761.154 266.68 766.53 266.68H767.426C775.618 266.68 781.847 269.368 786.114 274.744C790.466 280.035 792.642 288.099 792.642 298.936V339H772.162V297.784C772.162 294.029 771.053 290.957 768.834 288.568C766.615 286.179 763.629 284.984 759.874 284.984C756.034 284.984 752.919 286.221 750.53 288.696C748.226 291.085 747.074 294.243 747.074 298.168V339H726.594ZM898.537 339V245.56H919.529V339H898.537ZM838.121 339V245.56H859.113V339H838.121ZM855.401 301.24V282.808H902.249V301.24H855.401ZM981.712 339V318.264H978.256V295.736C978.256 292.152 977.403 289.464 975.696 287.672C973.989 285.88 971.259 284.984 967.504 284.984C965.627 284.984 963.152 285.027 960.08 285.112C957.008 285.197 953.851 285.325 950.608 285.496C947.365 285.667 944.421 285.837 941.776 286.008V268.728C943.739 268.557 946.043 268.387 948.688 268.216C951.333 268.045 954.064 267.917 956.88 267.832C959.696 267.747 962.341 267.704 964.816 267.704C971.984 267.704 978 268.728 982.864 270.776C987.813 272.824 991.568 275.939 994.128 280.12C996.688 284.216 997.968 289.507 997.968 295.992V339H981.712ZM959.312 340.792C954.277 340.792 949.84 339.896 946 338.104C942.245 336.312 939.301 333.752 937.168 330.424C935.035 327.011 933.968 322.957 933.968 318.264C933.968 313.144 935.291 308.963 937.936 305.72C940.581 302.392 944.293 299.96 949.072 298.424C953.851 296.803 959.355 295.992 965.584 295.992H980.56V307.384H965.456C961.872 307.384 959.099 308.28 957.136 310.072C955.259 311.779 954.32 314.125 954.32 317.112C954.32 319.928 955.259 322.232 957.136 324.024C959.099 325.731 961.872 326.584 965.456 326.584C967.76 326.584 969.808 326.2 971.6 325.432C973.477 324.579 975.013 323.171 976.208 321.208C977.403 319.245 978.085 316.515 978.256 313.016L983.12 318.136C982.693 323 981.499 327.096 979.536 330.424C977.659 333.752 975.013 336.312 971.6 338.104C968.272 339.896 964.176 340.792 959.312 340.792ZM1016.24 339V245.56H1036.85V339H1016.24ZM1007.92 260.664V245.56H1036.85V260.664H1007.92ZM1056.62 339V245.56H1077.22V339H1056.62ZM1048.3 260.664V245.56H1077.22V260.664H1048.3Z" fill="#3BA723"/>
<path d="M179.013 659V588.92H194.757V659H179.013ZM192.837 659V645.176H222.213V659H192.837ZM234.176 659V606.392H249.536V659H234.176ZM227.168 617.72V606.392H249.536V617.72H227.168ZM240.128 601.208C237.248 601.208 235.104 600.472 233.696 599C232.352 597.464 231.68 595.544 231.68 593.24C231.68 590.872 232.352 588.952 233.696 587.48C235.104 585.944 237.248 585.176 240.128 585.176C243.008 585.176 245.12 585.944 246.464 587.48C247.872 588.952 248.576 590.872 248.576 593.24C248.576 595.544 247.872 597.464 246.464 599C245.12 600.472 243.008 601.208 240.128 601.208ZM273.918 659L258.174 606.392H274.014L288.798 659H273.918ZM278.718 659V646.232H294.174V659H278.718ZM284.382 659L297.15 606.392H311.934L298.302 659H284.382ZM343.901 660.824C339.421 660.824 335.453 660.056 331.997 658.52C328.605 656.984 325.757 654.936 323.453 652.376C321.213 649.752 319.485 646.84 318.269 643.64C317.117 640.376 316.541 637.048 316.541 633.656V631.736C316.541 628.216 317.117 624.856 318.269 621.656C319.485 618.392 321.213 615.48 323.453 612.92C325.693 610.36 328.477 608.344 331.805 606.872C335.197 605.336 339.037 604.568 343.325 604.568C348.957 604.568 353.693 605.848 357.533 608.408C361.437 610.904 364.413 614.2 366.461 618.296C368.509 622.328 369.533 626.744 369.533 631.544V636.728H322.973V627.992H360.221L355.229 632.024C355.229 628.888 354.781 626.2 353.885 623.96C352.989 621.72 351.645 620.024 349.853 618.872C348.125 617.656 345.949 617.048 343.325 617.048C340.637 617.048 338.365 617.656 336.509 618.872C334.653 620.088 333.245 621.88 332.285 624.248C331.325 626.552 330.845 629.4 330.845 632.792C330.845 635.928 331.293 638.68 332.189 641.048C333.085 643.352 334.493 645.144 336.413 646.424C338.333 647.704 340.829 648.344 343.901 648.344C346.717 648.344 349.021 647.8 350.813 646.712C352.605 645.624 353.821 644.28 354.461 642.68H368.573C367.805 646.2 366.301 649.336 364.061 652.088C361.821 654.84 359.005 656.984 355.613 658.52C352.221 660.056 348.317 660.824 343.901 660.824ZM379.711 659V606.392H391.903V628.952H391.615C391.615 621.528 393.183 615.8 396.319 611.768C399.519 607.736 404.127 605.72 410.143 605.72H412.159V618.968H408.319C404.095 618.968 400.831 620.12 398.527 622.424C396.223 624.664 395.071 627.928 395.071 632.216V659H379.711ZM421.041 679.832V666.776H431.985C433.649 666.776 435.057 666.552 436.209 666.104C437.361 665.72 438.289 665.048 438.993 664.088C439.697 663.128 440.273 661.816 440.721 660.152L453.681 606.392H468.273L453.585 663.224C452.561 667.32 451.121 670.584 449.265 673.016C447.473 675.448 445.041 677.176 441.969 678.2C438.961 679.288 435.121 679.832 430.449 679.832H421.041ZM437.553 657.848V645.848H448.689V657.848H437.553ZM431.217 657.848L415.089 606.392H430.545L445.809 657.848H431.217ZM542.7 659V588.92H558.444V659H542.7ZM497.388 659V588.92H513.132V659H497.388ZM510.348 630.68V616.856H545.484V630.68H510.348ZM605.081 659V643.448H602.489V626.552C602.489 623.864 601.849 621.848 600.569 620.504C599.289 619.16 597.241 618.488 594.425 618.488C593.017 618.488 591.161 618.52 588.857 618.584C586.553 618.648 584.185 618.744 581.753 618.872C579.321 619 577.113 619.128 575.129 619.256V606.296C576.601 606.168 578.329 606.04 580.313 605.912C582.297 605.784 584.345 605.688 586.457 605.624C588.569 605.56 590.553 605.528 592.409 605.528C597.785 605.528 602.297 606.296 605.945 607.832C609.657 609.368 612.473 611.704 614.393 614.84C616.313 617.912 617.273 621.88 617.273 626.744V659H605.081ZM588.281 660.344C584.505 660.344 581.177 659.672 578.297 658.328C575.481 656.984 573.273 655.064 571.673 652.568C570.073 650.008 569.273 646.968 569.273 643.448C569.273 639.608 570.265 636.472 572.249 634.04C574.233 631.544 577.017 629.72 580.601 628.568C584.185 627.352 588.313 626.744 592.985 626.744H604.217V635.288H592.889C590.201 635.288 588.121 635.96 586.649 637.304C585.241 638.584 584.537 640.344 584.537 642.584C584.537 644.696 585.241 646.424 586.649 647.768C588.121 649.048 590.201 649.688 592.889 649.688C594.617 649.688 596.153 649.4 597.497 648.824C598.905 648.184 600.057 647.128 600.953 645.656C601.849 644.184 602.361 642.136 602.489 639.512L606.137 643.352C605.817 647 604.921 650.072 603.449 652.568C602.041 655.064 600.057 656.984 597.497 658.328C595.001 659.672 591.929 660.344 588.281 660.344ZM630.977 659V588.92H646.433V659H630.977ZM624.737 600.248V588.92H646.433V600.248H624.737ZM661.258 659V588.92H676.714V659H661.258ZM655.018 600.248V588.92H676.714V600.248H655.018Z" fill="#3BA723"/>
<path d="M916.409 616V586.8H925.449L932.129 603.2H932.889L939.489 586.8H948.689V616H942.209V591.08L943.129 591.16L935.409 610.08H929.169L921.409 591.16L922.409 591.08V616H916.409ZM965.557 616.76C963.637 616.76 961.93 616.467 960.437 615.88C958.944 615.267 957.677 614.44 956.637 613.4C955.624 612.36 954.85 611.173 954.317 609.84C953.784 608.48 953.517 607.053 953.517 605.56V604.64C953.517 603.12 953.784 601.68 954.317 600.32C954.877 598.933 955.677 597.72 956.717 596.68C957.784 595.64 959.064 594.827 960.557 594.24C962.05 593.627 963.717 593.32 965.557 593.32C967.45 593.32 969.13 593.627 970.597 594.24C972.09 594.827 973.357 595.64 974.397 596.68C975.437 597.72 976.237 598.933 976.797 600.32C977.357 601.68 977.637 603.12 977.637 604.64V605.56C977.637 607.053 977.37 608.48 976.837 609.84C976.304 611.173 975.517 612.36 974.477 613.4C973.464 614.44 972.21 615.267 970.717 615.88C969.224 616.467 967.504 616.76 965.557 616.76ZM965.557 611.36C966.81 611.36 967.85 611.093 968.677 610.56C969.504 610.027 970.13 609.28 970.557 608.32C971.01 607.36 971.237 606.293 971.237 605.12C971.237 603.867 971.01 602.773 970.557 601.84C970.104 600.88 969.45 600.12 968.597 599.56C967.77 599 966.757 598.72 965.557 598.72C964.384 598.72 963.37 599 962.517 599.56C961.664 600.12 961.01 600.88 960.557 601.84C960.13 602.773 959.917 603.867 959.917 605.12C959.917 606.293 960.13 607.36 960.557 608.32C960.984 609.28 961.624 610.027 962.477 610.56C963.33 611.093 964.357 611.36 965.557 611.36ZM992.064 616.28C989.85 616.28 988.064 616.013 986.704 615.48C985.344 614.92 984.344 614 983.704 612.72C983.09 611.413 982.784 609.653 982.784 607.44V588.16H988.744V607.68C988.744 608.72 989.01 609.52 989.544 610.08C990.104 610.613 990.89 610.88 991.904 610.88H995.144V616.28H992.064ZM979.464 598.76V594.08H995.144V598.76H979.464ZM1009.41 616.28C1007.19 616.28 1005.41 616.013 1004.05 615.48C1002.69 614.92 1001.69 614 1001.05 612.72C1000.43 611.413 1000.13 609.653 1000.13 607.44V588.16H1006.09V607.68C1006.09 608.72 1006.35 609.52 1006.89 610.08C1007.45 610.613 1008.23 610.88 1009.25 610.88H1012.49V616.28H1009.41ZM996.807 598.76V594.08H1012.49V598.76H996.807ZM905.471 666V636.56H912.031V666H905.471ZM923.191 666L914.631 653.44H921.831L930.791 666H923.191ZM910.271 656.64V651.48H917.471C918.431 651.48 919.258 651.293 919.951 650.92C920.671 650.52 921.218 649.973 921.591 649.28C921.991 648.56 922.191 647.733 922.191 646.8C922.191 645.867 921.991 645.053 921.591 644.36C921.218 643.64 920.671 643.093 919.951 642.72C919.258 642.32 918.431 642.12 917.471 642.12H910.271V636.56H916.951C919.378 636.56 921.485 636.933 923.271 637.68C925.058 638.4 926.431 639.48 927.391 640.92C928.351 642.36 928.831 644.173 928.831 646.36V647C928.831 649.16 928.338 650.96 927.351 652.4C926.391 653.813 925.018 654.88 923.231 655.6C921.471 656.293 919.378 656.64 916.951 656.64H910.271ZM944.62 666.76C942.7 666.76 940.993 666.467 939.5 665.88C938.006 665.267 936.74 664.44 935.7 663.4C934.686 662.36 933.913 661.173 933.38 659.84C932.846 658.48 932.58 657.053 932.58 655.56V654.64C932.58 653.12 932.846 651.68 933.38 650.32C933.94 648.933 934.74 647.72 935.78 646.68C936.846 645.64 938.126 644.827 939.62 644.24C941.113 643.627 942.78 643.32 944.62 643.32C946.513 643.32 948.193 643.627 949.66 644.24C951.153 644.827 952.42 645.64 953.46 646.68C954.5 647.72 955.3 648.933 955.86 650.32C956.42 651.68 956.7 653.12 956.7 654.64V655.56C956.7 657.053 956.433 658.48 955.9 659.84C955.366 661.173 954.58 662.36 953.54 663.4C952.526 664.44 951.273 665.267 949.78 665.88C948.286 666.467 946.566 666.76 944.62 666.76ZM944.62 661.36C945.873 661.36 946.913 661.093 947.74 660.56C948.566 660.027 949.193 659.28 949.62 658.32C950.073 657.36 950.3 656.293 950.3 655.12C950.3 653.867 950.073 652.773 949.62 651.84C949.166 650.88 948.513 650.12 947.66 649.56C946.833 649 945.82 648.72 944.62 648.72C943.446 648.72 942.433 649 941.58 649.56C940.726 650.12 940.073 650.88 939.62 651.84C939.193 652.773 938.98 653.867 938.98 655.12C938.98 656.293 939.193 657.36 939.62 658.32C940.046 659.28 940.686 660.027 941.54 660.56C942.393 661.093 943.42 661.36 944.62 661.36ZM971.846 666.76C969.926 666.76 968.219 666.467 966.726 665.88C965.233 665.267 963.966 664.44 962.926 663.4C961.913 662.36 961.139 661.173 960.606 659.84C960.073 658.48 959.806 657.053 959.806 655.56V654.64C959.806 653.12 960.073 651.68 960.606 650.32C961.166 648.933 961.966 647.72 963.006 646.68C964.073 645.64 965.353 644.827 966.846 644.24C968.339 643.627 970.006 643.32 971.846 643.32C973.739 643.32 975.419 643.627 976.886 644.24C978.379 644.827 979.646 645.64 980.686 646.68C981.726 647.72 982.526 648.933 983.086 650.32C983.646 651.68 983.926 653.12 983.926 654.64V655.56C983.926 657.053 983.659 658.48 983.126 659.84C982.593 661.173 981.806 662.36 980.766 663.4C979.753 664.44 978.499 665.267 977.006 665.88C975.513 666.467 973.793 666.76 971.846 666.76ZM971.846 661.36C973.099 661.36 974.139 661.093 974.966 660.56C975.793 660.027 976.419 659.28 976.846 658.32C977.299 657.36 977.526 656.293 977.526 655.12C977.526 653.867 977.299 652.773 976.846 651.84C976.393 650.88 975.739 650.12 974.886 649.56C974.059 649 973.046 648.72 971.846 648.72C970.673 648.72 969.659 649 968.806 649.56C967.953 650.12 967.299 650.88 966.846 651.84C966.419 652.773 966.206 653.867 966.206 655.12C966.206 656.293 966.419 657.36 966.846 658.32C967.273 659.28 967.913 660.027 968.766 660.56C969.619 661.093 970.646 661.36 971.846 661.36ZM988.393 666V644.08H993.473V653.52H993.113C993.113 651.28 993.393 649.413 993.953 647.92C994.513 646.427 995.353 645.307 996.473 644.56C997.593 643.787 998.966 643.4 1000.59 643.4H1000.87C1002.53 643.4 1003.9 643.787 1004.99 644.56C1006.11 645.307 1006.95 646.427 1007.51 647.92C1008.1 649.413 1008.39 651.28 1008.39 653.52H1006.83C1006.83 651.28 1007.11 649.413 1007.67 647.92C1008.26 646.427 1009.11 645.307 1010.23 644.56C1011.35 643.787 1012.73 643.4 1014.35 643.4H1014.63C1016.29 643.4 1017.67 643.787 1018.79 644.56C1019.94 645.307 1020.81 646.427 1021.39 647.92C1021.98 649.413 1022.27 651.28 1022.27 653.52V666H1015.87V653.16C1015.87 651.96 1015.55 650.987 1014.91 650.24C1014.3 649.493 1013.42 649.12 1012.27 649.12C1011.13 649.12 1010.22 649.507 1009.55 650.28C1008.89 651.027 1008.55 652.027 1008.55 653.28V666H1002.11V653.16C1002.11 651.96 1001.79 650.987 1001.15 650.24C1000.54 649.493 999.673 649.12 998.553 649.12C997.379 649.12 996.459 649.507 995.793 650.28C995.126 651.027 994.793 652.027 994.793 653.28V666H988.393Z" fill="#3BA723"/>
<path d="M502.644 828V798.8H509.204V828H502.644ZM483.764 828V798.8H490.324V828H483.764ZM489.164 816.2V810.44H503.804V816.2H489.164ZM522.797 828.68C520.263 828.68 518.317 827.867 516.957 826.24C515.597 824.587 514.917 822.107 514.917 818.8V806.08H521.317V819.12C521.317 820.293 521.65 821.227 522.317 821.92C522.983 822.613 523.877 822.96 524.997 822.96C526.143 822.96 527.077 822.6 527.797 821.88C528.517 821.16 528.877 820.187 528.877 818.96V806.08H535.277V828H530.197V818.76H530.637C530.637 820.973 530.343 822.827 529.757 824.32C529.197 825.787 528.357 826.88 527.237 827.6C526.117 828.32 524.73 828.68 523.077 828.68H522.797ZM541.178 828V806.08H546.258V815.52H545.898C545.898 813.28 546.178 811.413 546.738 809.92C547.298 808.427 548.138 807.307 549.258 806.56C550.378 805.787 551.751 805.4 553.378 805.4H553.658C555.311 805.4 556.684 805.787 557.778 806.56C558.898 807.307 559.738 808.427 560.298 809.92C560.884 811.413 561.178 813.28 561.178 815.52H559.618C559.618 813.28 559.898 811.413 560.458 809.92C561.044 808.427 561.898 807.307 563.018 806.56C564.138 805.787 565.511 805.4 567.138 805.4H567.418C569.071 805.4 570.458 805.787 571.578 806.56C572.724 807.307 573.591 808.427 574.178 809.92C574.764 811.413 575.058 813.28 575.058 815.52V828H568.658V815.16C568.658 813.96 568.338 812.987 567.698 812.24C567.084 811.493 566.204 811.12 565.058 811.12C563.911 811.12 563.004 811.507 562.338 812.28C561.671 813.027 561.338 814.027 561.338 815.28V828H554.898V815.16C554.898 813.96 554.578 812.987 553.938 812.24C553.324 811.493 552.458 811.12 551.338 811.12C550.164 811.12 549.244 811.507 548.578 812.28C547.911 813.027 547.578 814.027 547.578 815.28V828H541.178ZM593.994 828.72C592.207 828.72 590.634 828.347 589.274 827.6C587.914 826.827 586.847 825.72 586.074 824.28C585.3 822.84 584.887 821.08 584.834 819H585.594V828H580.514V798.8H586.914V813.64L585.394 815.56C585.474 813.347 585.887 811.493 586.634 810C587.407 808.48 588.46 807.347 589.794 806.6C591.127 805.827 592.647 805.44 594.354 805.44C595.847 805.44 597.194 805.72 598.394 806.28C599.62 806.813 600.66 807.587 601.514 808.6C602.367 809.587 603.02 810.76 603.474 812.12C603.954 813.48 604.194 814.96 604.194 816.56V817.44C604.194 819.04 603.954 820.52 603.474 821.88C603.02 823.24 602.34 824.44 601.434 825.48C600.554 826.493 599.487 827.293 598.234 827.88C596.98 828.44 595.567 828.72 593.994 828.72ZM592.314 823.36C593.407 823.36 594.354 823.093 595.154 822.56C595.98 822.027 596.62 821.28 597.074 820.32C597.527 819.333 597.754 818.227 597.754 817C597.754 815.747 597.527 814.653 597.074 813.72C596.62 812.787 595.98 812.067 595.154 811.56C594.354 811.027 593.407 810.76 592.314 810.76C591.354 810.76 590.447 810.987 589.594 811.44C588.74 811.893 588.047 812.547 587.514 813.4C587.007 814.227 586.754 815.24 586.754 816.44V817.92C586.754 819.067 587.02 820.053 587.554 820.88C588.114 821.68 588.82 822.293 589.674 822.72C590.527 823.147 591.407 823.36 592.314 823.36ZM618.679 828.76C616.812 828.76 615.159 828.44 613.719 827.8C612.305 827.16 611.119 826.307 610.159 825.24C609.225 824.147 608.505 822.933 607.999 821.6C607.519 820.24 607.279 818.853 607.279 817.44V816.64C607.279 815.173 607.519 813.773 607.999 812.44C608.505 811.08 609.225 809.867 610.159 808.8C611.092 807.733 612.252 806.893 613.639 806.28C615.052 805.64 616.652 805.32 618.439 805.32C620.785 805.32 622.759 805.853 624.359 806.92C625.985 807.96 627.225 809.333 628.079 811.04C628.932 812.72 629.359 814.56 629.359 816.56V818.72H609.959V815.08H625.479L623.399 816.76C623.399 815.453 623.212 814.333 622.839 813.4C622.465 812.467 621.905 811.76 621.159 811.28C620.439 810.773 619.532 810.52 618.439 810.52C617.319 810.52 616.372 810.773 615.599 811.28C614.825 811.787 614.239 812.533 613.839 813.52C613.439 814.48 613.239 815.667 613.239 817.08C613.239 818.387 613.425 819.533 613.799 820.52C614.172 821.48 614.759 822.227 615.559 822.76C616.359 823.293 617.399 823.56 618.679 823.56C619.852 823.56 620.812 823.333 621.559 822.88C622.305 822.427 622.812 821.867 623.079 821.2H628.959C628.639 822.667 628.012 823.973 627.079 825.12C626.145 826.267 624.972 827.16 623.559 827.8C622.145 828.44 620.519 828.76 618.679 828.76ZM633.6 828V806.08H638.68V815.48H638.56C638.56 812.387 639.213 810 640.52 808.32C641.853 806.64 643.773 805.8 646.28 805.8H647.12V811.32H645.52C643.76 811.32 642.4 811.8 641.44 812.76C640.48 813.693 640 815.053 640 816.84V828H633.6ZM505.971 878V848.56H512.531V878H505.971ZM523.691 878L515.131 865.44H522.331L531.291 878H523.691ZM510.771 868.64V863.48H517.971C518.931 863.48 519.758 863.293 520.451 862.92C521.171 862.52 521.718 861.973 522.091 861.28C522.491 860.56 522.691 859.733 522.691 858.8C522.691 857.867 522.491 857.053 522.091 856.36C521.718 855.64 521.171 855.093 520.451 854.72C519.758 854.32 518.931 854.12 517.971 854.12H510.771V848.56H517.451C519.878 848.56 521.985 848.933 523.771 849.68C525.558 850.4 526.931 851.48 527.891 852.92C528.851 854.36 529.331 856.173 529.331 858.36V859C529.331 861.16 528.838 862.96 527.851 864.4C526.891 865.813 525.518 866.88 523.731 867.6C521.971 868.293 519.878 868.64 517.451 868.64H510.771ZM545.12 878.76C543.2 878.76 541.493 878.467 540 877.88C538.506 877.267 537.24 876.44 536.2 875.4C535.186 874.36 534.413 873.173 533.88 871.84C533.346 870.48 533.08 869.053 533.08 867.56V866.64C533.08 865.12 533.346 863.68 533.88 862.32C534.44 860.933 535.24 859.72 536.28 858.68C537.346 857.64 538.626 856.827 540.12 856.24C541.613 855.627 543.28 855.32 545.12 855.32C547.013 855.32 548.693 855.627 550.16 856.24C551.653 856.827 552.92 857.64 553.96 858.68C555 859.72 555.8 860.933 556.36 862.32C556.92 863.68 557.2 865.12 557.2 866.64V867.56C557.2 869.053 556.933 870.48 556.4 871.84C555.866 873.173 555.08 874.36 554.04 875.4C553.026 876.44 551.773 877.267 550.28 877.88C548.786 878.467 547.066 878.76 545.12 878.76ZM545.12 873.36C546.373 873.36 547.413 873.093 548.24 872.56C549.066 872.027 549.693 871.28 550.12 870.32C550.573 869.36 550.8 868.293 550.8 867.12C550.8 865.867 550.573 864.773 550.12 863.84C549.666 862.88 549.013 862.12 548.16 861.56C547.333 861 546.32 860.72 545.12 860.72C543.946 860.72 542.933 861 542.08 861.56C541.226 862.12 540.573 862.88 540.12 863.84C539.693 864.773 539.48 865.867 539.48 867.12C539.48 868.293 539.693 869.36 540.12 870.32C540.546 871.28 541.186 872.027 542.04 872.56C542.893 873.093 543.92 873.36 545.12 873.36ZM572.346 878.76C570.426 878.76 568.719 878.467 567.226 877.88C565.733 877.267 564.466 876.44 563.426 875.4C562.413 874.36 561.639 873.173 561.106 871.84C560.573 870.48 560.306 869.053 560.306 867.56V866.64C560.306 865.12 560.573 863.68 561.106 862.32C561.666 860.933 562.466 859.72 563.506 858.68C564.573 857.64 565.853 856.827 567.346 856.24C568.839 855.627 570.506 855.32 572.346 855.32C574.239 855.32 575.919 855.627 577.386 856.24C578.879 856.827 580.146 857.64 581.186 858.68C582.226 859.72 583.026 860.933 583.586 862.32C584.146 863.68 584.426 865.12 584.426 866.64V867.56C584.426 869.053 584.159 870.48 583.626 871.84C583.093 873.173 582.306 874.36 581.266 875.4C580.253 876.44 578.999 877.267 577.506 877.88C576.013 878.467 574.293 878.76 572.346 878.76ZM572.346 873.36C573.599 873.36 574.639 873.093 575.466 872.56C576.293 872.027 576.919 871.28 577.346 870.32C577.799 869.36 578.026 868.293 578.026 867.12C578.026 865.867 577.799 864.773 577.346 863.84C576.893 862.88 576.239 862.12 575.386 861.56C574.559 861 573.546 860.72 572.346 860.72C571.173 860.72 570.159 861 569.306 861.56C568.453 862.12 567.799 862.88 567.346 863.84C566.919 864.773 566.706 865.867 566.706 867.12C566.706 868.293 566.919 869.36 567.346 870.32C567.773 871.28 568.413 872.027 569.266 872.56C570.119 873.093 571.146 873.36 572.346 873.36ZM588.893 878V856.08H593.973V865.52H593.613C593.613 863.28 593.893 861.413 594.453 859.92C595.013 858.427 595.853 857.307 596.973 856.56C598.093 855.787 599.466 855.4 601.093 855.4H601.373C603.026 855.4 604.399 855.787 605.493 856.56C606.613 857.307 607.453 858.427 608.013 859.92C608.599 861.413 608.893 863.28 608.893 865.52H607.333C607.333 863.28 607.613 861.413 608.173 859.92C608.759 858.427 609.613 857.307 610.733 856.56C611.853 855.787 613.226 855.4 614.853 855.4H615.133C616.786 855.4 618.173 855.787 619.293 856.56C620.439 857.307 621.306 858.427 621.893 859.92C622.479 861.413 622.773 863.28 622.773 865.52V878H616.373V865.16C616.373 863.96 616.053 862.987 615.413 862.24C614.799 861.493 613.919 861.12 612.773 861.12C611.626 861.12 610.719 861.507 610.053 862.28C609.386 863.027 609.053 864.027 609.053 865.28V878H602.613V865.16C602.613 863.96 602.293 862.987 601.653 862.24C601.039 861.493 600.173 861.12 599.053 861.12C597.879 861.12 596.959 861.507 596.293 862.28C595.626 863.027 595.293 864.027 595.293 865.28V878H588.893Z" fill="#3BA723"/>
<path d="M494.748 1039V992.28H504.988V1039H494.748ZM503.708 1039V1030.3H524.124V1039H503.708ZM503.708 1019.61V1010.9H522.652V1019.61H503.708ZM503.708 1000.98V992.28H523.676V1000.98H503.708ZM532.172 1039V1003.93H540.3V1018.97H539.724C539.724 1015.38 540.172 1012.4 541.068 1010.01C542.007 1007.62 543.415 1005.83 545.292 1004.63C547.169 1003.44 549.452 1002.84 552.14 1002.84H552.588C556.684 1002.84 559.799 1004.18 561.932 1006.87C564.108 1009.52 565.196 1013.55 565.196 1018.97V1039H554.956V1018.39C554.956 1016.51 554.401 1014.98 553.292 1013.78C552.183 1012.59 550.689 1011.99 548.812 1011.99C546.892 1011.99 545.335 1012.61 544.14 1013.85C542.988 1015.04 542.412 1016.62 542.412 1018.58V1039H532.172ZM589.858 1039.45C586.317 1039.45 583.458 1039.02 581.282 1038.17C579.106 1037.27 577.506 1035.8 576.482 1033.75C575.501 1031.66 575.01 1028.85 575.01 1025.3V994.456H584.546V1025.69C584.546 1027.35 584.973 1028.63 585.826 1029.53C586.722 1030.38 587.981 1030.81 589.602 1030.81H594.786V1039.45H589.858ZM569.698 1011.42V1003.93H594.786V1011.42H569.698ZM601.672 1039V1003.93H609.8V1018.97H609.608C609.608 1014.02 610.653 1010.2 612.744 1007.51C614.877 1004.82 617.949 1003.48 621.96 1003.48H623.304V1012.31H620.744C617.928 1012.31 615.752 1013.08 614.216 1014.62C612.68 1016.11 611.912 1018.29 611.912 1021.14V1039H601.672ZM649.544 1039V1028.63H647.816V1017.37C647.816 1015.58 647.389 1014.23 646.536 1013.34C645.682 1012.44 644.317 1011.99 642.44 1011.99C641.501 1011.99 640.264 1012.01 638.728 1012.06C637.192 1012.1 635.613 1012.16 633.992 1012.25C632.37 1012.33 630.898 1012.42 629.576 1012.5V1003.86C630.557 1003.78 631.709 1003.69 633.032 1003.61C634.354 1003.52 635.72 1003.46 637.128 1003.42C638.536 1003.37 639.858 1003.35 641.096 1003.35C644.68 1003.35 647.688 1003.86 650.12 1004.89C652.594 1005.91 654.472 1007.47 655.752 1009.56C657.032 1011.61 657.672 1014.25 657.672 1017.5V1039H649.544ZM638.344 1039.9C635.826 1039.9 633.608 1039.45 631.688 1038.55C629.81 1037.66 628.338 1036.38 627.272 1034.71C626.205 1033.01 625.672 1030.98 625.672 1028.63C625.672 1026.07 626.333 1023.98 627.656 1022.36C628.978 1020.7 630.834 1019.48 633.224 1018.71C635.613 1017.9 638.365 1017.5 641.48 1017.5H648.968V1023.19H641.416C639.624 1023.19 638.237 1023.64 637.256 1024.54C636.317 1025.39 635.848 1026.56 635.848 1028.06C635.848 1029.46 636.317 1030.62 637.256 1031.51C638.237 1032.37 639.624 1032.79 641.416 1032.79C642.568 1032.79 643.592 1032.6 644.488 1032.22C645.426 1031.79 646.194 1031.09 646.792 1030.1C647.389 1029.12 647.73 1027.76 647.816 1026.01L650.248 1028.57C650.034 1031 649.437 1033.05 648.456 1034.71C647.517 1036.38 646.194 1037.66 644.488 1038.55C642.824 1039.45 640.776 1039.9 638.344 1039.9ZM666.36 1039V1003.93H674.488V1018.97H673.912C673.912 1015.38 674.36 1012.4 675.256 1010.01C676.194 1007.62 677.602 1005.83 679.48 1004.63C681.357 1003.44 683.64 1002.84 686.328 1002.84H686.776C690.872 1002.84 693.986 1004.18 696.12 1006.87C698.296 1009.52 699.384 1013.55 699.384 1018.97V1039H689.144V1018.39C689.144 1016.51 688.589 1014.98 687.48 1013.78C686.37 1012.59 684.877 1011.99 683 1011.99C681.08 1011.99 679.522 1012.61 678.328 1013.85C677.176 1015.04 676.6 1016.62 676.6 1018.58V1039H666.36ZM723.854 1040.22C720.824 1040.22 718.179 1039.73 715.918 1038.74C713.699 1037.72 711.843 1036.35 710.35 1034.65C708.856 1032.94 707.747 1031.02 707.022 1028.89C706.296 1026.71 705.934 1024.47 705.934 1022.17V1020.95C705.934 1018.56 706.318 1016.28 707.086 1014.1C707.854 1011.89 708.984 1009.92 710.478 1008.22C711.971 1006.51 713.827 1005.17 716.046 1004.18C718.307 1003.2 720.888 1002.71 723.79 1002.71C726.947 1002.71 729.742 1003.33 732.174 1004.57C734.606 1005.76 736.547 1007.45 737.998 1009.62C739.448 1011.8 740.259 1014.3 740.43 1017.11H730.382C730.211 1015.53 729.571 1014.21 728.462 1013.14C727.395 1012.03 725.838 1011.48 723.79 1011.48C722.083 1011.48 720.654 1011.91 719.502 1012.76C718.392 1013.61 717.56 1014.79 717.006 1016.28C716.451 1017.77 716.174 1019.54 716.174 1021.59C716.174 1023.47 716.43 1025.18 716.942 1026.71C717.454 1028.21 718.264 1029.38 719.374 1030.23C720.526 1031.04 722.019 1031.45 723.854 1031.45C725.219 1031.45 726.371 1031.21 727.31 1030.74C728.291 1030.23 729.059 1029.55 729.614 1028.7C730.211 1027.8 730.574 1026.78 730.702 1025.62H740.686C740.558 1028.53 739.747 1031.09 738.254 1033.3C736.76 1035.48 734.776 1037.19 732.302 1038.42C729.827 1039.62 727.011 1040.22 723.854 1040.22ZM763.299 1040.22C760.312 1040.22 757.667 1039.7 755.363 1038.68C753.101 1037.66 751.203 1036.29 749.667 1034.58C748.173 1032.83 747.021 1030.89 746.211 1028.76C745.443 1026.58 745.059 1024.37 745.059 1022.1V1020.82C745.059 1018.48 745.443 1016.24 746.211 1014.1C747.021 1011.93 748.173 1009.99 749.667 1008.28C751.16 1006.57 753.016 1005.23 755.235 1004.25C757.496 1003.22 760.056 1002.71 762.915 1002.71C766.669 1002.71 769.827 1003.57 772.387 1005.27C774.989 1006.94 776.973 1009.13 778.339 1011.86C779.704 1014.55 780.387 1017.5 780.387 1020.7V1024.15H749.347V1018.33H774.179L770.851 1021.02C770.851 1018.93 770.552 1017.13 769.955 1015.64C769.357 1014.15 768.461 1013.02 767.267 1012.25C766.115 1011.44 764.664 1011.03 762.915 1011.03C761.123 1011.03 759.608 1011.44 758.371 1012.25C757.133 1013.06 756.195 1014.25 755.555 1015.83C754.915 1017.37 754.595 1019.27 754.595 1021.53C754.595 1023.62 754.893 1025.45 755.491 1027.03C756.088 1028.57 757.027 1029.76 758.307 1030.62C759.587 1031.47 761.251 1031.9 763.299 1031.9C765.176 1031.9 766.712 1031.53 767.907 1030.81C769.101 1030.08 769.912 1029.19 770.339 1028.12H779.747C779.235 1030.47 778.232 1032.56 776.739 1034.39C775.245 1036.23 773.368 1037.66 771.107 1038.68C768.845 1039.7 766.243 1040.22 763.299 1040.22Z" fill="#3BA723"/>
<g clip-path="url(#clip0_147_5)">
<path d="M1033.18 964.793C1037.53 964.793 1041.06 961.259 1041.06 956.9C1041.06 952.541 1037.53 949.007 1033.18 949.007C1028.82 949.007 1025.29 952.541 1025.29 956.9C1025.29 961.259 1028.82 964.793 1033.18 964.793Z" fill="#3BA723"/>
<path d="M1032.09 1014.82V1042.27C1032.04 1047.25 1024.63 1047.25 1024.57 1042.27V1014.82H1014.87L1025.29 978.151H1023.6L1017.53 999.037C1016 1003.66 1009.76 1001.79 1011.23 996.852L1018.02 974.265C1018.8 971.671 1022.06 967.091 1027.72 966.979H1032.81H1038.63C1044.13 967.091 1047.41 971.71 1048.34 974.265L1055.13 996.852C1056.51 1001.76 1050.32 1003.78 1048.82 999.037L1042.76 978.151H1040.82L1051.49 1014.82H1041.54V1042.27C1041.62 1047.25 1034.24 1047.23 1034.27 1042.27V1014.82H1032.09Z" fill="#3BA723"/>
</g>
<g clip-path="url(#clip1_147_5)">
<path d="M255.693 964.793C260.047 964.793 263.576 961.259 263.576 956.9C263.576 952.541 260.047 949.007 255.693 949.007C251.34 949.007 247.811 952.541 247.811 956.9C247.811 961.259 251.34 964.793 255.693 964.793Z" fill="#3BA723"/>
<path d="M247.326 966.979C241.264 966.979 237.381 972.234 237.381 977.422V1001.71C237.325 1006.45 244.15 1006.45 244.172 1001.71V979.365H245.87V1041.05C245.765 1047.49 254.854 1047.31 254.844 1041.05V1005.11H256.3V1041.05C256.418 1047.31 265.555 1047.49 265.516 1041.05V979.365H267.214V1001.71C267.134 1006.49 273.923 1006.49 274.005 1001.71V977.422C273.908 972.234 269.88 967.072 263.818 966.979H247.326Z" fill="#3BA723"/>
</g>
<path d="M961.188 1077.61C959.076 1077.61 957.262 1077.25 955.748 1076.52C954.233 1075.77 952.996 1074.8 952.036 1073.61C951.076 1072.39 950.361 1071.09 949.892 1069.7C949.444 1068.3 949.22 1066.93 949.22 1065.61V1064.9C949.22 1063.45 949.454 1062.02 949.924 1060.62C950.393 1059.19 951.108 1057.9 952.068 1056.74C953.049 1055.59 954.276 1054.67 955.748 1053.99C957.241 1053.29 959.001 1052.94 961.028 1052.94C963.14 1052.94 965.006 1053.33 966.628 1054.12C968.249 1054.91 969.54 1056.01 970.5 1057.42C971.481 1058.8 972.057 1060.43 972.228 1062.31H966.948C966.798 1061.37 966.457 1060.57 965.924 1059.91C965.39 1059.25 964.697 1058.74 963.844 1058.38C963.012 1058.01 962.073 1057.83 961.028 1057.83C959.982 1057.83 959.054 1058.01 958.244 1058.38C957.433 1058.74 956.75 1059.25 956.196 1059.91C955.662 1060.57 955.246 1061.36 954.948 1062.28C954.67 1063.18 954.532 1064.18 954.532 1065.29C954.532 1066.38 954.67 1067.38 954.948 1068.3C955.246 1069.19 955.673 1069.98 956.228 1070.66C956.804 1071.33 957.508 1071.84 958.34 1072.2C959.172 1072.54 960.121 1072.71 961.188 1072.71C962.809 1072.71 964.174 1072.32 965.284 1071.53C966.414 1070.74 967.097 1069.65 967.332 1068.26H972.58C972.388 1069.97 971.812 1071.54 970.852 1072.97C969.913 1074.38 968.622 1075.51 966.98 1076.36C965.358 1077.19 963.428 1077.61 961.188 1077.61ZM975.998 1077V1053.64H981.15V1077H975.998ZM973.918 1057.42V1053.64H981.15V1057.42H973.918ZM994.411 1077.61C992.875 1077.61 991.51 1077.37 990.315 1076.9C989.121 1076.41 988.107 1075.75 987.275 1074.92C986.465 1074.09 985.846 1073.14 985.419 1072.07C984.993 1070.98 984.779 1069.84 984.779 1068.65V1067.91C984.779 1066.7 984.993 1065.54 985.419 1064.46C985.867 1063.35 986.507 1062.38 987.339 1061.54C988.193 1060.71 989.217 1060.06 990.411 1059.59C991.606 1059.1 992.939 1058.86 994.411 1058.86C995.926 1058.86 997.27 1059.1 998.443 1059.59C999.638 1060.06 1000.65 1060.71 1001.48 1061.54C1002.32 1062.38 1002.96 1063.35 1003.4 1064.46C1003.85 1065.54 1004.08 1066.7 1004.08 1067.91V1068.65C1004.08 1069.84 1003.86 1070.98 1003.44 1072.07C1003.01 1073.14 1002.38 1074.09 1001.55 1074.92C1000.74 1075.75 999.734 1076.41 998.539 1076.9C997.345 1077.37 995.969 1077.61 994.411 1077.61ZM994.411 1073.29C995.414 1073.29 996.246 1073.07 996.907 1072.65C997.569 1072.22 998.07 1071.62 998.411 1070.86C998.774 1070.09 998.955 1069.23 998.955 1068.3C998.955 1067.29 998.774 1066.42 998.411 1065.67C998.049 1064.9 997.526 1064.3 996.843 1063.85C996.182 1063.4 995.371 1063.18 994.411 1063.18C993.473 1063.18 992.662 1063.4 991.979 1063.85C991.297 1064.3 990.774 1064.9 990.411 1065.67C990.07 1066.42 989.899 1067.29 989.899 1068.3C989.899 1069.23 990.07 1070.09 990.411 1070.86C990.753 1071.62 991.265 1072.22 991.947 1072.65C992.63 1073.07 993.451 1073.29 994.411 1073.29ZM1018.24 1077V1071.82H1017.38V1066.18C1017.38 1065.29 1017.16 1064.62 1016.74 1064.17C1016.31 1063.72 1015.63 1063.5 1014.69 1063.5C1014.22 1063.5 1013.6 1063.51 1012.83 1063.53C1012.06 1063.55 1011.28 1063.58 1010.46 1063.62C1009.65 1063.67 1008.92 1063.71 1008.26 1063.75V1059.43C1008.75 1059.39 1009.32 1059.35 1009.98 1059.3C1010.65 1059.26 1011.33 1059.23 1012.03 1059.21C1012.74 1059.19 1013.4 1059.18 1014.02 1059.18C1015.81 1059.18 1017.31 1059.43 1018.53 1059.94C1019.77 1060.46 1020.7 1061.23 1021.34 1062.28C1021.98 1063.3 1022.3 1064.63 1022.3 1066.25V1077H1018.24ZM1012.64 1077.45C1011.38 1077.45 1010.27 1077.22 1009.31 1076.78C1008.37 1076.33 1007.64 1075.69 1007.1 1074.86C1006.57 1074 1006.3 1072.99 1006.3 1071.82C1006.3 1070.54 1006.64 1069.49 1007.3 1068.68C1007.96 1067.85 1008.89 1067.24 1010.08 1066.86C1011.28 1066.45 1012.65 1066.25 1014.21 1066.25H1017.95V1069.1H1014.18C1013.28 1069.1 1012.59 1069.32 1012.1 1069.77C1011.63 1070.19 1011.39 1070.78 1011.39 1071.53C1011.39 1072.23 1011.63 1072.81 1012.1 1073.26C1012.59 1073.68 1013.28 1073.9 1014.18 1073.9C1014.75 1073.9 1015.26 1073.8 1015.71 1073.61C1016.18 1073.39 1016.57 1073.04 1016.86 1072.55C1017.16 1072.06 1017.33 1071.38 1017.38 1070.5L1018.59 1071.78C1018.49 1073 1018.19 1074.02 1017.7 1074.86C1017.23 1075.69 1016.57 1076.33 1015.71 1076.78C1014.88 1077.22 1013.86 1077.45 1012.64 1077.45ZM1039 1077L1033.46 1068.81H1031L1038.14 1059.46H1043.51L1036.79 1068.17L1036.86 1065.67L1044.76 1077H1039ZM1026.65 1077V1053.64H1031.77V1077H1026.65ZM1047.09 1077V1059.46H1051.15V1066.98H1051.05C1051.05 1064.51 1051.58 1062.6 1052.62 1061.26C1053.69 1059.91 1055.22 1059.24 1057.23 1059.24H1057.9V1063.66H1056.62C1055.21 1063.66 1054.13 1064.04 1053.36 1064.81C1052.59 1065.55 1052.21 1066.64 1052.21 1068.07V1077H1047.09ZM1069.01 1077.61C1067.47 1077.61 1066.1 1077.37 1064.91 1076.9C1063.71 1076.41 1062.7 1075.75 1061.87 1074.92C1061.06 1074.09 1060.44 1073.14 1060.01 1072.07C1059.59 1070.98 1059.37 1069.84 1059.37 1068.65V1067.91C1059.37 1066.7 1059.59 1065.54 1060.01 1064.46C1060.46 1063.35 1061.1 1062.38 1061.93 1061.54C1062.79 1060.71 1063.81 1060.06 1065.01 1059.59C1066.2 1059.1 1067.53 1058.86 1069.01 1058.86C1070.52 1058.86 1071.86 1059.1 1073.04 1059.59C1074.23 1060.06 1075.25 1060.71 1076.08 1061.54C1076.91 1062.38 1077.55 1063.35 1078 1064.46C1078.45 1065.54 1078.67 1066.7 1078.67 1067.91V1068.65C1078.67 1069.84 1078.46 1070.98 1078.03 1072.07C1077.6 1073.14 1076.97 1074.09 1076.14 1074.92C1075.33 1075.75 1074.33 1076.41 1073.13 1076.9C1071.94 1077.37 1070.56 1077.61 1069.01 1077.61ZM1069.01 1073.29C1070.01 1073.29 1070.84 1073.07 1071.5 1072.65C1072.16 1072.22 1072.66 1071.62 1073.01 1070.86C1073.37 1070.09 1073.55 1069.23 1073.55 1068.3C1073.55 1067.29 1073.37 1066.42 1073.01 1065.67C1072.64 1064.9 1072.12 1064.3 1071.44 1063.85C1070.78 1063.4 1069.97 1063.18 1069.01 1063.18C1068.07 1063.18 1067.26 1063.4 1066.57 1063.85C1065.89 1064.3 1065.37 1064.9 1065.01 1065.67C1064.66 1066.42 1064.49 1067.29 1064.49 1068.3C1064.49 1069.23 1064.66 1070.09 1065.01 1070.86C1065.35 1071.62 1065.86 1072.22 1066.54 1072.65C1067.22 1073.07 1068.05 1073.29 1069.01 1073.29ZM1090.79 1077.61C1089.25 1077.61 1087.88 1077.37 1086.69 1076.9C1085.5 1076.41 1084.48 1075.75 1083.65 1074.92C1082.84 1074.09 1082.22 1073.14 1081.79 1072.07C1081.37 1070.98 1081.15 1069.84 1081.15 1068.65V1067.91C1081.15 1066.7 1081.37 1065.54 1081.79 1064.46C1082.24 1063.35 1082.88 1062.38 1083.71 1061.54C1084.57 1060.71 1085.59 1060.06 1086.79 1059.59C1087.98 1059.1 1089.31 1058.86 1090.79 1058.86C1092.3 1058.86 1093.64 1059.1 1094.82 1059.59C1096.01 1060.06 1097.03 1060.71 1097.86 1061.54C1098.69 1062.38 1099.33 1063.35 1099.78 1064.46C1100.23 1065.54 1100.45 1066.7 1100.45 1067.91V1068.65C1100.45 1069.84 1100.24 1070.98 1099.81 1072.07C1099.38 1073.14 1098.75 1074.09 1097.92 1074.92C1097.11 1075.75 1096.11 1076.41 1094.91 1076.9C1093.72 1077.37 1092.34 1077.61 1090.79 1077.61ZM1090.79 1073.29C1091.79 1073.29 1092.62 1073.07 1093.28 1072.65C1093.94 1072.22 1094.44 1071.62 1094.79 1070.86C1095.15 1070.09 1095.33 1069.23 1095.33 1068.3C1095.33 1067.29 1095.15 1066.42 1094.79 1065.67C1094.42 1064.9 1093.9 1064.3 1093.22 1063.85C1092.56 1063.4 1091.75 1063.18 1090.79 1063.18C1089.85 1063.18 1089.04 1063.4 1088.35 1063.85C1087.67 1064.3 1087.15 1064.9 1086.79 1065.67C1086.44 1066.42 1086.27 1067.29 1086.27 1068.3C1086.27 1069.23 1086.44 1070.09 1086.79 1070.86C1087.13 1071.62 1087.64 1072.22 1088.32 1072.65C1089 1073.07 1089.83 1073.29 1090.79 1073.29ZM1104.02 1077V1059.46H1108.09V1067.02H1107.8C1107.8 1065.22 1108.02 1063.73 1108.47 1062.54C1108.92 1061.34 1109.59 1060.45 1110.49 1059.85C1111.38 1059.23 1112.48 1058.92 1113.78 1058.92H1114.01C1115.33 1058.92 1116.43 1059.23 1117.3 1059.85C1118.2 1060.45 1118.87 1061.34 1119.32 1062.54C1119.79 1063.73 1120.02 1065.22 1120.02 1067.02H1118.78C1118.78 1065.22 1119 1063.73 1119.45 1062.54C1119.92 1061.34 1120.6 1060.45 1121.5 1059.85C1122.39 1059.23 1123.49 1058.92 1124.79 1058.92H1125.02C1126.34 1058.92 1127.45 1059.23 1128.34 1059.85C1129.26 1060.45 1129.95 1061.34 1130.42 1062.54C1130.89 1063.73 1131.13 1065.22 1131.13 1067.02V1077H1126.01V1066.73C1126.01 1065.77 1125.75 1064.99 1125.24 1064.39C1124.75 1063.79 1124.04 1063.5 1123.13 1063.5C1122.21 1063.5 1121.48 1063.81 1120.95 1064.42C1120.42 1065.02 1120.15 1065.82 1120.15 1066.82V1077H1115V1066.73C1115 1065.77 1114.74 1064.99 1114.23 1064.39C1113.74 1063.79 1113.05 1063.5 1112.15 1063.5C1111.21 1063.5 1110.48 1063.81 1109.94 1064.42C1109.41 1065.02 1109.14 1065.82 1109.14 1066.82V1077H1104.02Z" fill="#3BA723"/>
<g clip-path="url(#clip2_147_5)">
<path d="M1033.18 789.793C1037.53 789.793 1041.06 786.259 1041.06 781.9C1041.06 777.541 1037.53 774.007 1033.18 774.007C1028.82 774.007 1025.29 777.541 1025.29 781.9C1025.29 786.259 1028.82 789.793 1033.18 789.793Z" fill="#3BA723"/>
<path d="M1032.09 839.824V867.267C1032.04 872.253 1024.63 872.253 1024.57 867.267V839.824H1014.87L1025.29 803.151H1023.6L1017.53 824.037C1016 828.657 1009.76 826.787 1011.23 821.852L1018.02 799.265C1018.8 796.671 1022.06 792.091 1027.72 791.979H1032.81H1038.63C1044.13 792.091 1047.41 796.71 1048.34 799.265L1055.13 821.852C1056.51 826.762 1050.32 828.778 1048.82 824.037L1042.76 803.151H1040.82L1051.49 839.824H1041.54V867.267C1041.62 872.253 1034.24 872.229 1034.27 867.267V839.824H1032.09Z" fill="#3BA723"/>
</g>
<path d="M992.78 902V882.576H998.028V902H992.78ZM986.22 883.216V878.64H1004.62V883.216H986.22ZM1013.96 902.608C1012.42 902.608 1011.06 902.373 1009.86 901.904C1008.67 901.413 1007.65 900.752 1006.82 899.92C1006.01 899.088 1005.39 898.139 1004.97 897.072C1004.54 895.984 1004.33 894.843 1004.33 893.648V892.912C1004.33 891.696 1004.54 890.544 1004.97 889.456C1005.41 888.347 1006.05 887.376 1006.89 886.544C1007.74 885.712 1008.76 885.061 1009.96 884.592C1011.15 884.101 1012.49 883.856 1013.96 883.856C1015.47 883.856 1016.82 884.101 1017.99 884.592C1019.18 885.061 1020.2 885.712 1021.03 886.544C1021.86 887.376 1022.5 888.347 1022.95 889.456C1023.4 890.544 1023.62 891.696 1023.62 892.912V893.648C1023.62 894.843 1023.41 895.984 1022.98 897.072C1022.56 898.139 1021.93 899.088 1021.09 899.92C1020.28 900.752 1019.28 901.413 1018.09 901.904C1016.89 902.373 1015.52 902.608 1013.96 902.608ZM1013.96 898.288C1014.96 898.288 1015.79 898.075 1016.45 897.648C1017.12 897.221 1017.62 896.624 1017.96 895.856C1018.32 895.088 1018.5 894.235 1018.5 893.296C1018.5 892.293 1018.32 891.419 1017.96 890.672C1017.6 889.904 1017.07 889.296 1016.39 888.848C1015.73 888.4 1014.92 888.176 1013.96 888.176C1013.02 888.176 1012.21 888.4 1011.53 888.848C1010.84 889.296 1010.32 889.904 1009.96 890.672C1009.62 891.419 1009.45 892.293 1009.45 893.296C1009.45 894.235 1009.62 895.088 1009.96 895.856C1010.3 896.624 1010.81 897.221 1011.49 897.648C1012.18 898.075 1013 898.288 1013.96 898.288ZM1028.03 902V884.464H1033.15V902H1028.03ZM1025.69 888.24V884.464H1033.15V888.24H1025.69ZM1030.01 882.736C1029.05 882.736 1028.34 882.491 1027.87 882C1027.42 881.488 1027.2 880.848 1027.2 880.08C1027.2 879.291 1027.42 878.651 1027.87 878.16C1028.34 877.648 1029.05 877.392 1030.01 877.392C1030.97 877.392 1031.68 877.648 1032.12 878.16C1032.59 878.651 1032.83 879.291 1032.83 880.08C1032.83 880.848 1032.59 881.488 1032.12 882C1031.68 882.491 1030.97 882.736 1030.01 882.736ZM1038.11 902V878.64H1043.26V902H1038.11ZM1036.03 882.416V878.64H1043.26V882.416H1036.03ZM1056.01 902.608C1054.52 902.608 1053.19 902.352 1052.04 901.84C1050.91 901.328 1049.96 900.645 1049.19 899.792C1048.45 898.917 1047.87 897.947 1047.46 896.88C1047.08 895.792 1046.89 894.683 1046.89 893.552V892.912C1046.89 891.739 1047.08 890.619 1047.46 889.552C1047.87 888.464 1048.45 887.493 1049.19 886.64C1049.94 885.787 1050.87 885.115 1051.98 884.624C1053.11 884.112 1054.39 883.856 1055.82 883.856C1057.69 883.856 1059.27 884.283 1060.55 885.136C1061.85 885.968 1062.85 887.067 1063.53 888.432C1064.21 889.776 1064.55 891.248 1064.55 892.848V894.576H1049.03V891.664H1061.45L1059.78 893.008C1059.78 891.963 1059.64 891.067 1059.34 890.32C1059.04 889.573 1058.59 889.008 1057.99 888.624C1057.42 888.219 1056.69 888.016 1055.82 888.016C1054.92 888.016 1054.16 888.219 1053.54 888.624C1052.93 889.029 1052.46 889.627 1052.14 890.416C1051.82 891.184 1051.66 892.133 1051.66 893.264C1051.66 894.309 1051.81 895.227 1052.1 896.016C1052.4 896.784 1052.87 897.381 1053.51 897.808C1054.15 898.235 1054.98 898.448 1056.01 898.448C1056.95 898.448 1057.72 898.267 1058.31 897.904C1058.91 897.541 1059.32 897.093 1059.53 896.56H1064.23C1063.98 897.733 1063.48 898.779 1062.73 899.696C1061.98 900.613 1061.04 901.328 1059.91 901.84C1058.78 902.352 1057.48 902.608 1056.01 902.608ZM1075.91 902.224C1074.14 902.224 1072.71 902.011 1071.63 901.584C1070.54 901.136 1069.74 900.4 1069.23 899.376C1068.73 898.331 1068.49 896.923 1068.49 895.152V879.728H1073.26V895.344C1073.26 896.176 1073.47 896.816 1073.9 897.264C1074.35 897.691 1074.97 897.904 1075.79 897.904H1078.38V902.224H1075.91ZM1065.83 888.208V884.464H1078.38V888.208H1065.83Z" fill="#3BA723"/>
<path d="M182.188 1077.61C180.076 1077.61 178.262 1077.25 176.748 1076.52C175.233 1075.77 173.996 1074.8 173.036 1073.61C172.076 1072.39 171.361 1071.09 170.892 1069.7C170.444 1068.3 170.22 1066.93 170.22 1065.61V1064.9C170.22 1063.45 170.454 1062.02 170.924 1060.62C171.393 1059.19 172.108 1057.9 173.068 1056.74C174.049 1055.59 175.276 1054.67 176.748 1053.99C178.241 1053.29 180.001 1052.94 182.028 1052.94C184.14 1052.94 186.006 1053.33 187.628 1054.12C189.249 1054.91 190.54 1056.01 191.5 1057.42C192.481 1058.8 193.057 1060.43 193.228 1062.31H187.948C187.798 1061.37 187.457 1060.57 186.924 1059.91C186.39 1059.25 185.697 1058.74 184.844 1058.38C184.012 1058.01 183.073 1057.83 182.028 1057.83C180.982 1057.83 180.054 1058.01 179.244 1058.38C178.433 1058.74 177.75 1059.25 177.196 1059.91C176.662 1060.57 176.246 1061.36 175.948 1062.28C175.67 1063.18 175.532 1064.18 175.532 1065.29C175.532 1066.38 175.67 1067.38 175.948 1068.3C176.246 1069.19 176.673 1069.98 177.228 1070.66C177.804 1071.33 178.508 1071.84 179.34 1072.2C180.172 1072.54 181.121 1072.71 182.188 1072.71C183.809 1072.71 185.174 1072.32 186.284 1071.53C187.414 1070.74 188.097 1069.65 188.332 1068.26H193.58C193.388 1069.97 192.812 1071.54 191.852 1072.97C190.913 1074.38 189.622 1075.51 187.98 1076.36C186.358 1077.19 184.428 1077.61 182.188 1077.61ZM196.998 1077V1053.64H202.15V1077H196.998ZM194.918 1057.42V1053.64H202.15V1057.42H194.918ZM215.411 1077.61C213.875 1077.61 212.51 1077.37 211.315 1076.9C210.121 1076.41 209.107 1075.75 208.275 1074.92C207.465 1074.09 206.846 1073.14 206.419 1072.07C205.993 1070.98 205.779 1069.84 205.779 1068.65V1067.91C205.779 1066.7 205.993 1065.54 206.419 1064.46C206.867 1063.35 207.507 1062.38 208.339 1061.54C209.193 1060.71 210.217 1060.06 211.411 1059.59C212.606 1059.1 213.939 1058.86 215.411 1058.86C216.926 1058.86 218.27 1059.1 219.443 1059.59C220.638 1060.06 221.651 1060.71 222.483 1061.54C223.315 1062.38 223.955 1063.35 224.403 1064.46C224.851 1065.54 225.075 1066.7 225.075 1067.91V1068.65C225.075 1069.84 224.862 1070.98 224.435 1072.07C224.009 1073.14 223.379 1074.09 222.547 1074.92C221.737 1075.75 220.734 1076.41 219.539 1076.9C218.345 1077.37 216.969 1077.61 215.411 1077.61ZM215.411 1073.29C216.414 1073.29 217.246 1073.07 217.907 1072.65C218.569 1072.22 219.07 1071.62 219.411 1070.86C219.774 1070.09 219.955 1069.23 219.955 1068.3C219.955 1067.29 219.774 1066.42 219.411 1065.67C219.049 1064.9 218.526 1064.3 217.843 1063.85C217.182 1063.4 216.371 1063.18 215.411 1063.18C214.473 1063.18 213.662 1063.4 212.979 1063.85C212.297 1064.3 211.774 1064.9 211.411 1065.67C211.07 1066.42 210.899 1067.29 210.899 1068.3C210.899 1069.23 211.07 1070.09 211.411 1070.86C211.753 1071.62 212.265 1072.22 212.947 1072.65C213.63 1073.07 214.451 1073.29 215.411 1073.29ZM239.241 1077V1071.82H238.377V1066.18C238.377 1065.29 238.163 1064.62 237.737 1064.17C237.31 1063.72 236.627 1063.5 235.689 1063.5C235.219 1063.5 234.601 1063.51 233.833 1063.53C233.065 1063.55 232.275 1063.58 231.465 1063.62C230.654 1063.67 229.918 1063.71 229.257 1063.75V1059.43C229.747 1059.39 230.323 1059.35 230.985 1059.3C231.646 1059.26 232.329 1059.23 233.033 1059.21C233.737 1059.19 234.398 1059.18 235.017 1059.18C236.809 1059.18 238.313 1059.43 239.529 1059.94C240.766 1060.46 241.705 1061.23 242.345 1062.28C242.985 1063.3 243.305 1064.63 243.305 1066.25V1077H239.241ZM233.641 1077.45C232.382 1077.45 231.273 1077.22 230.312 1076.78C229.374 1076.33 228.638 1075.69 228.105 1074.86C227.571 1074 227.305 1072.99 227.305 1071.82C227.305 1070.54 227.635 1069.49 228.297 1068.68C228.958 1067.85 229.886 1067.24 231.081 1066.86C232.275 1066.45 233.651 1066.25 235.209 1066.25H238.953V1069.1H235.177C234.281 1069.1 233.587 1069.32 233.097 1069.77C232.627 1070.19 232.393 1070.78 232.393 1071.53C232.393 1072.23 232.627 1072.81 233.097 1073.26C233.587 1073.68 234.281 1073.9 235.177 1073.9C235.753 1073.9 236.265 1073.8 236.713 1073.61C237.182 1073.39 237.566 1073.04 237.865 1072.55C238.163 1072.06 238.334 1071.38 238.377 1070.5L239.593 1071.78C239.486 1073 239.187 1074.02 238.697 1074.86C238.227 1075.69 237.566 1076.33 236.713 1076.78C235.881 1077.22 234.857 1077.45 233.641 1077.45ZM260.001 1077L254.465 1068.81H252.001L259.137 1059.46H264.513L257.793 1068.17L257.857 1065.67L265.761 1077H260.001ZM247.649 1077V1053.64H252.769V1077H247.649ZM268.086 1077V1059.46H272.15V1066.98H272.054C272.054 1064.51 272.577 1062.6 273.622 1061.26C274.689 1059.91 276.225 1059.24 278.23 1059.24H278.902V1063.66H277.622C276.214 1063.66 275.126 1064.04 274.358 1064.81C273.59 1065.55 273.206 1066.64 273.206 1068.07V1077H268.086ZM290.005 1077.61C288.469 1077.61 287.104 1077.37 285.909 1076.9C284.714 1076.41 283.701 1075.75 282.869 1074.92C282.058 1074.09 281.44 1073.14 281.013 1072.07C280.586 1070.98 280.373 1069.84 280.373 1068.65V1067.91C280.373 1066.7 280.586 1065.54 281.013 1064.46C281.461 1063.35 282.101 1062.38 282.933 1061.54C283.786 1060.71 284.81 1060.06 286.005 1059.59C287.2 1059.1 288.533 1058.86 290.005 1058.86C291.52 1058.86 292.864 1059.1 294.037 1059.59C295.232 1060.06 296.245 1060.71 297.077 1061.54C297.909 1062.38 298.549 1063.35 298.997 1064.46C299.445 1065.54 299.669 1066.7 299.669 1067.91V1068.65C299.669 1069.84 299.456 1070.98 299.029 1072.07C298.602 1073.14 297.973 1074.09 297.141 1074.92C296.33 1075.75 295.328 1076.41 294.133 1076.9C292.938 1077.37 291.562 1077.61 290.005 1077.61ZM290.005 1073.29C291.008 1073.29 291.84 1073.07 292.501 1072.65C293.162 1072.22 293.664 1071.62 294.005 1070.86C294.368 1070.09 294.549 1069.23 294.549 1068.3C294.549 1067.29 294.368 1066.42 294.005 1065.67C293.642 1064.9 293.12 1064.3 292.437 1063.85C291.776 1063.4 290.965 1063.18 290.005 1063.18C289.066 1063.18 288.256 1063.4 287.573 1063.85C286.89 1064.3 286.368 1064.9 286.005 1065.67C285.664 1066.42 285.493 1067.29 285.493 1068.3C285.493 1069.23 285.664 1070.09 286.005 1070.86C286.346 1071.62 286.858 1072.22 287.541 1072.65C288.224 1073.07 289.045 1073.29 290.005 1073.29ZM311.786 1077.61C310.25 1077.61 308.885 1077.37 307.69 1076.9C306.496 1076.41 305.482 1075.75 304.65 1074.92C303.84 1074.09 303.221 1073.14 302.794 1072.07C302.368 1070.98 302.154 1069.84 302.154 1068.65V1067.91C302.154 1066.7 302.368 1065.54 302.794 1064.46C303.242 1063.35 303.882 1062.38 304.714 1061.54C305.568 1060.71 306.592 1060.06 307.786 1059.59C308.981 1059.1 310.314 1058.86 311.786 1058.86C313.301 1058.86 314.645 1059.1 315.818 1059.59C317.013 1060.06 318.026 1060.71 318.858 1061.54C319.69 1062.38 320.33 1063.35 320.778 1064.46C321.226 1065.54 321.45 1066.7 321.45 1067.91V1068.65C321.45 1069.84 321.237 1070.98 320.81 1072.07C320.384 1073.14 319.754 1074.09 318.922 1074.92C318.112 1075.75 317.109 1076.41 315.914 1076.9C314.72 1077.37 313.344 1077.61 311.786 1077.61ZM311.786 1073.29C312.789 1073.29 313.621 1073.07 314.282 1072.65C314.944 1072.22 315.445 1071.62 315.786 1070.86C316.149 1070.09 316.33 1069.23 316.33 1068.3C316.33 1067.29 316.149 1066.42 315.786 1065.67C315.424 1064.9 314.901 1064.3 314.218 1063.85C313.557 1063.4 312.746 1063.18 311.786 1063.18C310.848 1063.18 310.037 1063.4 309.354 1063.85C308.672 1064.3 308.149 1064.9 307.786 1065.67C307.445 1066.42 307.274 1067.29 307.274 1068.3C307.274 1069.23 307.445 1070.09 307.786 1070.86C308.128 1071.62 308.64 1072.22 309.322 1072.65C310.005 1073.07 310.826 1073.29 311.786 1073.29ZM325.024 1077V1059.46H329.088V1067.02H328.8C328.8 1065.22 329.024 1063.73 329.472 1062.54C329.92 1061.34 330.592 1060.45 331.488 1059.85C332.384 1059.23 333.482 1058.92 334.784 1058.92H335.008C336.33 1058.92 337.429 1059.23 338.304 1059.85C339.2 1060.45 339.872 1061.34 340.319 1062.54C340.789 1063.73 341.024 1065.22 341.024 1067.02H339.776C339.776 1065.22 340 1063.73 340.448 1062.54C340.917 1061.34 341.6 1060.45 342.496 1059.85C343.392 1059.23 344.49 1058.92 345.792 1058.92H346.016C347.338 1058.92 348.448 1059.23 349.344 1059.85C350.261 1060.45 350.954 1061.34 351.424 1062.54C351.893 1063.73 352.128 1065.22 352.128 1067.02V1077H347.008V1066.73C347.008 1065.77 346.752 1064.99 346.24 1064.39C345.749 1063.79 345.045 1063.5 344.128 1063.5C343.21 1063.5 342.485 1063.81 341.952 1064.42C341.418 1065.02 341.152 1065.82 341.152 1066.82V1077H336V1066.73C336 1065.77 335.744 1064.99 335.232 1064.39C334.741 1063.79 334.048 1063.5 333.152 1063.5C332.213 1063.5 331.477 1063.81 330.944 1064.42C330.41 1065.02 330.144 1065.82 330.144 1066.82V1077H325.024Z" fill="#3BA723"/>
<g clip-path="url(#clip3_147_5)">
<path d="M262.693 788.793C267.047 788.793 270.576 785.259 270.576 780.9C270.576 776.541 267.047 773.007 262.693 773.007C258.34 773.007 254.811 776.541 254.811 780.9C254.811 785.259 258.34 788.793 262.693 788.793Z" fill="#3BA723"/>
<path d="M254.326 790.979C248.264 790.979 244.381 796.234 244.381 801.422V825.709C244.325 830.454 251.15 830.454 251.172 825.709V803.365H252.87V865.053C252.765 871.494 261.854 871.309 261.844 865.053V829.109H263.3V865.053C263.418 871.309 272.555 871.494 272.516 865.053V803.365H274.214V825.709C274.134 830.491 280.923 830.491 281.005 825.709V801.422C280.908 796.234 276.88 791.072 270.818 790.979H254.326Z" fill="#3BA723"/>
</g>
<path d="M221.78 901V881.576H227.028V901H221.78ZM215.22 882.216V877.64H233.62V882.216H215.22ZM242.958 901.608C241.422 901.608 240.057 901.373 238.862 900.904C237.667 900.413 236.654 899.752 235.822 898.92C235.011 898.088 234.393 897.139 233.966 896.072C233.539 894.984 233.326 893.843 233.326 892.648V891.912C233.326 890.696 233.539 889.544 233.966 888.456C234.414 887.347 235.054 886.376 235.886 885.544C236.739 884.712 237.763 884.061 238.958 883.592C240.153 883.101 241.486 882.856 242.958 882.856C244.473 882.856 245.817 883.101 246.99 883.592C248.185 884.061 249.198 884.712 250.03 885.544C250.862 886.376 251.502 887.347 251.95 888.456C252.398 889.544 252.622 890.696 252.622 891.912V892.648C252.622 893.843 252.409 894.984 251.982 896.072C251.555 897.139 250.926 898.088 250.094 898.92C249.283 899.752 248.281 900.413 247.086 900.904C245.891 901.373 244.515 901.608 242.958 901.608ZM242.958 897.288C243.961 897.288 244.793 897.075 245.454 896.648C246.115 896.221 246.617 895.624 246.958 894.856C247.321 894.088 247.502 893.235 247.502 892.296C247.502 891.293 247.321 890.419 246.958 889.672C246.595 888.904 246.073 888.296 245.39 887.848C244.729 887.4 243.918 887.176 242.958 887.176C242.019 887.176 241.209 887.4 240.526 887.848C239.843 888.296 239.321 888.904 238.958 889.672C238.617 890.419 238.446 891.293 238.446 892.296C238.446 893.235 238.617 894.088 238.958 894.856C239.299 895.624 239.811 896.221 240.494 896.648C241.177 897.075 241.998 897.288 242.958 897.288ZM257.027 901V883.464H262.147V901H257.027ZM254.691 887.24V883.464H262.147V887.24H254.691ZM259.011 881.736C258.051 881.736 257.337 881.491 256.867 881C256.419 880.488 256.195 879.848 256.195 879.08C256.195 878.291 256.419 877.651 256.867 877.16C257.337 876.648 258.051 876.392 259.011 876.392C259.971 876.392 260.675 876.648 261.123 877.16C261.593 877.651 261.827 878.291 261.827 879.08C261.827 879.848 261.593 880.488 261.123 881C260.675 881.491 259.971 881.736 259.011 881.736ZM267.107 901V877.64H272.259V901H267.107ZM265.027 881.416V877.64H272.259V881.416H265.027ZM285.009 901.608C283.515 901.608 282.193 901.352 281.041 900.84C279.91 900.328 278.961 899.645 278.193 898.792C277.446 897.917 276.87 896.947 276.465 895.88C276.081 894.792 275.889 893.683 275.889 892.552V891.912C275.889 890.739 276.081 889.619 276.465 888.552C276.87 887.464 277.446 886.493 278.193 885.64C278.939 884.787 279.867 884.115 280.977 883.624C282.107 883.112 283.387 882.856 284.817 882.856C286.694 882.856 288.273 883.283 289.553 884.136C290.854 884.968 291.846 886.067 292.529 887.432C293.211 888.776 293.553 890.248 293.553 891.848V893.576H278.033V890.664H290.449L288.785 892.008C288.785 890.963 288.635 890.067 288.337 889.32C288.038 888.573 287.59 888.008 286.993 887.624C286.417 887.219 285.691 887.016 284.817 887.016C283.921 887.016 283.163 887.219 282.545 887.624C281.926 888.029 281.457 888.627 281.137 889.416C280.817 890.184 280.657 891.133 280.657 892.264C280.657 893.309 280.806 894.227 281.105 895.016C281.403 895.784 281.873 896.381 282.513 896.808C283.153 897.235 283.985 897.448 285.009 897.448C285.947 897.448 286.715 897.267 287.313 896.904C287.91 896.541 288.315 896.093 288.529 895.56H293.233C292.977 896.733 292.475 897.779 291.729 898.696C290.982 899.613 290.043 900.328 288.913 900.84C287.782 901.352 286.481 901.608 285.009 901.608ZM304.913 901.224C303.143 901.224 301.713 901.011 300.625 900.584C299.537 900.136 298.737 899.4 298.225 898.376C297.735 897.331 297.489 895.923 297.489 894.152V878.728H302.257V894.344C302.257 895.176 302.471 895.816 302.897 896.264C303.345 896.691 303.975 896.904 304.785 896.904H307.377V901.224H304.913ZM294.833 887.208V883.464H307.377V887.208H294.833Z" fill="#3BA723"/>
<rect x="462" y="1100" width="59" height="102" stroke="#FF6500" stroke-width="6"/>
<line x1="465" y1="1189.5" x2="518" y2="1189.5" stroke="#FF6500" stroke-width="3"/>
<line x1="465" y1="1177.5" x2="518" y2="1177.5" stroke="#FF6500" stroke-width="3"/>
<line x1="465" y1="1165.5" x2="518" y2="1165.5" stroke="#FF6500" stroke-width="3"/>
<line x1="465" y1="1153.5" x2="518" y2="1153.5" stroke="#FF6500" stroke-width="3"/>
<line x1="465" y1="1141.5" x2="518" y2="1141.5" stroke="#FF6500" stroke-width="3"/>
<line x1="465" y1="1129.5" x2="518" y2="1129.5" stroke="#FF6500" stroke-width="3"/>
<defs>
<clipPath id="clip0_147_5">
<rect width="105" height="97" fill="white" transform="translate(1011 949)"/>
</clipPath>
<clipPath id="clip1_147_5">
<rect width="105" height="97" fill="white" transform="translate(169 949)"/>
</clipPath>
<clipPath id="clip2_147_5">
<rect width="105" height="97" fill="white" transform="translate(1011 774)"/>
</clipPath>
<clipPath id="clip3_147_5">
<rect width="105" height="97" fill="white" transform="translate(176 773)"/>
</clipPath>
</defs>
</svg>
