<svg viewBox="0 26.18 100 19.2" xmlns="http://www.w3.org/2000/svg" version="1.2" style="max-height: 500px" width="100" height="19.2">
	<style>
		.s0 { fill: #ff6500 } 
	</style>
	<g>
		<g>
			<g>
				<path d="m4.04 44.58h-4.04v-17.66h4.04c0 0-0.03 17.66 0 17.66zm7.57 0h-8.05v-3.29h8.05zm-0.58-7.33h-7.47v-3.29h7.47zm0.4-7.04h-7.87v-3.29h7.87z" class="s0"/>
			</g>
			<g>
				<path d="m15.29 44.58h-4.06v-13.26l3.23 0.03-0.03 5.68h-0.22c0.02-1.38 0.2-2.49 0.55-3.41q0.57-1.34 1.67-2.03 1.1-0.68 2.7-0.68h0.18q2.41 0 3.68 1.53 1.29 1.49 1.29 4.57v7.57h-4.07v-7.79q0.01-1.05-0.63-1.74-0.65-0.65-1.76-0.65-1.13-0.01-1.85 0.67-0.68 0.66-0.68 1.79z" class="s0"/>
			</g>
			<g>
				<path d="m29.45 45.02q-2.95-0.03-4.62-1.19-1.66-1.16-1.76-3.26h3.58q0.11 0.62 0.78 1.13 0.71 0.48 2.07 0.49 1.09-0.01 1.77-0.34 0.71-0.36 0.7-1.02 0-0.58-0.53-0.94-0.53-0.34-1.89-0.46l-1.08-0.12q-2.5-0.25-3.74-1.33-1.25-1.09-1.26-2.78 0.01-1.41 0.73-2.35c0.51-0.63 1.16-1.09 2.02-1.43q1.32-0.46 2.98-0.46 2.65 0 4.29 1.11 1.66 1.14 1.74 3.25h-3.61q-0.08-0.66-0.68-1.09-0.61-0.47-1.79-0.46-0.94 0-1.49 0.34-0.54 0.33-0.56 0.92 0.02 0.55 0.48 0.84 0.48 0.3 1.57 0.41l1.08 0.1q2.53 0.26 3.96 1.36 1.41 1.1 1.42 2.92 0 1.33-0.76 2.3-0.75 0.98-2.14 1.52c-0.91 0.34-2.02 0.51-3.26 0.54z" class="s0"/>
			</g>
			<g>
				<path d="m41.05 45.07c-1.19-0.03-2.22-0.2-3.13-0.61q-1.33-0.57-2.25-1.55-0.91-0.99-1.36-2.2-0.47-1.24-0.48-2.51v-0.49q0.01-1.31 0.48-2.54 0.45-1.24 1.36-2.2c0.58-0.65 1.34-1.16 2.2-1.55q1.33-0.55 3-0.55c1.51 0 2.75 0.31 3.78 0.94q1.52 0.97 2.33 2.51 0.8 1.53 0.8 3.34v1.31h-12.24v-2.2h9.8l-1.32 1.04c-0.02-0.8-0.12-1.5-0.35-2.06-0.25-0.55-0.58-0.99-1.06-1.28q-0.68-0.44-1.74-0.44-1.02 0-1.77 0.44-0.72 0.46-1.11 1.35-0.39 0.88-0.4 2.16c0.02 0.8 0.12 1.47 0.38 2.05 0.22 0.61 0.6 1.04 1.11 1.38q0.75 0.48 1.97 0.49 1.09-0.01 1.81-0.41 0.71-0.4 0.96-1.02h3.71q-0.31 1.34-1.18 2.39c-0.59 0.68-1.34 1.24-2.23 1.62q-1.35 0.59-3.07 0.59z" class="s0"/>
			</g>
			<g>
				<path d="m50.99 44.58h-4.06v-13.26l3.23 0.03-0.03 5.68h-0.23q0.03-2.02 0.56-3.38 0.53-1.35 1.59-2.03 1.05-0.7 2.6-0.71h0.17q1.58 0.01 2.63 0.71 1.03 0.68 1.56 2.03c0.36 0.92 0.56 2.03 0.56 3.38h-0.99q0-2.02 0.53-3.38 0.57-1.35 1.62-2.03 1.05-0.7 2.6-0.71h0.18c1.06 0 1.91 0.25 2.65 0.71q1.05 0.68 1.61 2.03 0.56 1.36 0.56 3.38v7.55h-4.04v-7.76q0-1.09-0.61-1.77-0.57-0.65-1.66-0.65-1.11-0.01-1.72 0.67-0.64 0.69-0.63 1.82v7.69h-4.06v-7.76q-0.01-1.09-0.58-1.77-0.61-0.65-1.67-0.65-1.1-0.01-1.74 0.67-0.64 0.69-0.63 1.82z" class="s0"/>
			</g>
			<g>
				<path d="m76.75 45.02q-1.69 0-2.97-0.68-1.3-0.7-2.02-2.01-0.73-1.3-0.78-3.19h0.45l0.02 5.44h-3.23v-17.66h4.07v8.98l-0.99 1.16c0.08-1.33 0.33-2.45 0.84-3.36q0.72-1.38 1.96-2.06 1.25-0.7 2.88-0.7 1.41 0 2.55 0.51 1.17 0.5 1.97 1.4 0.82 0.9 1.24 2.13 0.45 1.23 0.45 2.68v0.54q0 1.45-0.45 2.68-0.43 1.23-1.27 2.18-0.87 0.94-2.04 1.45-1.19 0.51-2.68 0.51zm-1.06-3.22q1.03 0 1.8-0.51 0.79-0.48 1.21-1.35 0.44-0.88 0.43-2.01-0.01-1.14-0.43-1.98-0.44-0.84-1.19-1.31c-0.53-0.32-1.11-0.48-1.82-0.46q-0.91-0.02-1.71 0.39-0.8 0.39-1.29 1.18-0.5 0.77-0.5 1.86v0.9q0 1.03 0.5 1.77 0.54 0.73 1.34 1.11 0.79 0.4 1.66 0.41z" class="s0"/>
			</g>
			<g>
				<path d="m86.73 44.58h-4.06v-17.66h4.06c0 0-0.03 17.66 0 17.66zm0.02-14.8h-5.7v-2.86h5.7c0 0-0.02 2.86 0 2.86z" class="s0"/>
			</g>
			<g>
				<path d="m93.25 45.07c-1.18-0.03-2.22-0.2-3.13-0.61q-1.33-0.57-2.24-1.55-0.91-0.99-1.37-2.2-0.46-1.24-0.48-2.51v-0.49q0.02-1.31 0.48-2.54 0.46-1.24 1.37-2.2c0.58-0.65 1.33-1.16 2.19-1.55q1.33-0.55 3.01-0.55c1.51 0 2.75 0.31 3.78 0.94q1.52 0.97 2.32 2.51 0.8 1.53 0.81 3.34v1.31h-12.24v-2.2h9.79l-1.31 1.04c-0.03-0.8-0.13-1.5-0.35-2.06-0.26-0.55-0.58-0.99-1.06-1.28q-0.68-0.44-1.74-0.44-1.02 0-1.77 0.44-0.73 0.46-1.11 1.35-0.39 0.88-0.41 2.16c0.03 0.8 0.13 1.47 0.38 2.05 0.23 0.61 0.61 1.04 1.11 1.38q0.76 0.48 1.97 0.49 1.1-0.01 1.82-0.41 0.71-0.4 0.96-1.02h3.71q-0.31 1.34-1.19 2.39c-0.58 0.68-1.34 1.24-2.22 1.62q-1.35 0.59-3.08 0.59z" class="s0"/>
			</g>
			<g>
			</g>
		</g>
	</g>
</svg>